<svg width="274" height="386" viewBox="0 0 274 386" fill="none" xmlns="http://www.w3.org/2000/svg">
<g clip-path="url(#clip0_1511_24485)">
<path d="M274 57.3796C273.595 54.7274 272.14 53.3998 269.634 53.3967C223.48 53.3664 177.328 53.3937 131.178 53.4787C130.611 53.4787 130.046 53.5181 129.483 53.597" stroke="#E1EEFE" stroke-width="2"/>
<path d="M129.483 53.5978C127.087 50.9729 124.279 49.184 121.058 48.2311C118.166 47.3723 115.158 47.2783 112.034 47.9489C108.143 48.7834 104.706 50.6725 101.723 53.616" stroke="#FED181" stroke-width="2"/>
<path d="M101.722 53.6163C101.366 53.5738 101.012 53.5238 100.658 53.4661C100.278 53.4024 99.9217 53.3705 99.5899 53.3705C52.6202 53.3493 20.993 53.3584 4.70823 53.3978C2.05957 53.4069 0.490156 54.7164 0 57.3261" stroke="#E1EEFE" stroke-width="2"/>
<path d="M129.483 53.5977L131.269 55.9282C131.392 56.0875 131.433 56.3015 131.383 56.5109L130.703 59.4013" stroke="#E1C07F" stroke-width="2"/>
<path d="M130.703 59.4005C130.508 59.7798 130.394 59.8117 130.36 59.4961C130.345 59.3626 130.308 59.2518 130.251 59.1638C125.973 52.5666 119.927 49.6868 112.112 50.5243C107.572 51.0099 103.593 52.9824 100.174 56.4418C100.159 56.457 100.03 56.6527 99.7863 57.029C99.6188 57.2869 99.3509 57.3886 98.9825 57.334" stroke="#FFB819" stroke-width="2"/>
<path d="M98.9825 57.3341L101.723 53.6152" stroke="#E1C07F" stroke-width="2"/>
<path d="M130.703 59.4023L132.223 62.7025" stroke="#E2D596" stroke-width="2"/>
<path d="M132.223 62.7012C134.476 67.8418 134.959 73.1523 133.671 78.6328" stroke="#F7E398" stroke-width="2"/>
<path d="M133.671 78.6327C133.446 78.6631 133.156 78.616 132.803 78.4916C121.38 74.4222 108.509 70.0631 94.1875 65.4141" stroke="#FFB819" stroke-width="2"/>
<path d="M94.1875 65.4141L95.4251 62.7012" stroke="#F7E398" stroke-width="2"/>
<path d="M95.425 62.7007C96.448 60.804 97.6338 59.0151 98.9825 57.334" stroke="#E2D596" stroke-width="2"/>
<path d="M95.4251 62.7008C95.0445 62.6219 94.4798 62.584 93.7308 62.587C72.094 62.6477 45.3455 62.6113 13.4854 62.4778C13.1474 62.4748 12.607 62.5021 11.8642 62.5597C11.3192 62.6022 10.7758 62.6113 10.2339 62.587C8.6721 62.5142 7.86228 62.4778 7.80443 62.4778C5.32626 62.4869 2.84808 62.5127 0.3699 62.5552C0.255733 62.5597 0.155267 62.4596 0.141567 62.3276C0.129389 62.1668 0.0822 62.0165 0 61.877" stroke="#D9EBFE" stroke-width="2"/>
<path d="M12.7912 58.3629C12.7912 57.5754 12.1473 56.9336 11.3573 56.9336C10.5672 56.9336 9.92334 57.5754 9.92334 58.3629C9.92334 59.1504 10.5672 59.7922 11.3573 59.7922C12.1473 59.7922 12.7912 59.1504 12.7912 58.3629Z" stroke="#BCD8F7" stroke-width="2"/>
<path d="M7.63547 58.3818C7.63547 57.5943 6.99613 56.957 6.2061 56.957C5.41607 56.957 4.77673 57.5943 4.77673 58.3818C4.77673 59.1692 5.41607 59.8065 6.2061 59.8065C6.99613 59.8065 7.63547 59.1692 7.63547 58.3818Z" stroke="#BCD8F7" stroke-width="2"/>
<path d="M17.9105 58.3506C17.9105 57.5767 17.2849 56.9531 16.5085 56.9531C15.7322 56.9531 15.1066 57.5767 15.1066 58.3506C15.1066 59.1244 15.7322 59.748 16.5085 59.748C17.2849 59.748 17.9105 59.1244 17.9105 58.3506Z" stroke="#BCD8F7" stroke-width="2"/>
<path d="M274 62.502C273.857 62.6992 273.667 62.728 273.429 62.5884C227.001 62.5884 180.574 62.5884 134.146 62.5884C133.269 62.5884 132.628 62.6264 132.223 62.7022" stroke="#D9EBFE" stroke-width="2"/>
<path d="M94.1875 65.4145C93.6456 65.3629 93.2224 65.5526 92.918 65.9835C92.2512 66.9121 92.4309 67.6419 93.4568 68.173C93.8039 68.349 94.1616 68.5037 94.53 68.6373" stroke="#F6CE81" stroke-width="2"/>
<path d="M94.53 68.6367C93.982 70.5515 94.0961 72.6318 94.8725 74.8774C95.2682 76.0184 95.8056 76.8544 96.4845 77.3854C96.6032 77.4765 96.6626 77.613 96.6489 77.7496C96.521 79.2699 96.4236 80.2471 96.3566 80.681C95.97 83.139 96.7372 85.1115 98.6582 86.5985" stroke="#7889B4" stroke-width="2"/>
<path d="M98.6582 86.5996C97.1147 90.0226 95.6184 93.4669 94.1692 96.9324C94.0627 97.1873 94.0307 97.4543 94.0733 97.7335" stroke="#F1CCDB" stroke-width="2"/>
<path d="M94.0733 97.7324C90.6513 99.0676 88.0514 101.338 86.2734 104.542C84.5898 107.577 83.3629 110.787 82.5927 114.174C81.2349 120.167 80.6153 126.217 80.734 132.322C80.7949 135.36 81.0766 138.244 81.5789 140.975C82.1056 143.837 82.8378 146.653 83.7754 149.424C86.2993 156.874 88.8947 164.299 91.5616 171.701" stroke="#9BB6FF" stroke-width="2"/>
<path d="M91.5616 171.702L79.9212 171.615C79.7933 171.611 79.6883 171.506 79.6883 171.374C79.6548 146.782 79.6183 122.189 79.5787 97.5971C79.5757 96.1223 79.3565 95.0571 78.9211 94.4017C78.2574 93.3942 77.2193 92.8055 75.8066 92.6355C73.7181 92.3806 72.0833 93.071 70.902 94.7066C53.433 118.832 35.9381 142.938 18.4173 167.027C16.6637 169.443 15.7854 170.653 15.7824 170.659C15.0639 172.049 14.863 173.603 15.1796 175.321C15.4658 176.862 16.3532 177.868 17.8419 178.338C18.5269 178.554 19.5818 178.662 21.0066 178.662C38.0921 178.662 55.2155 178.662 72.3771 178.662C72.5734 178.662 72.7287 178.821 72.7196 179.012C72.7044 179.51 72.6998 180.047 72.7059 180.624C72.7455 185.634 72.7531 190.644 72.7287 195.654C72.7257 196.616 72.817 197.338 73.0027 197.821C73.2919 198.573 73.7562 199.172 74.3955 199.619C75.0196 200.056 76.0106 200.291 77.3684 200.324C81.4449 200.421 85.523 200.445 89.6025 200.397" stroke="#D1E6F8" stroke-width="2"/>
<path d="M89.6026 200.396C89.5721 202.16 89.7365 203.904 90.0958 205.631" stroke="#F7E398" stroke-width="2"/>
<path d="M90.0957 205.631C90.1414 212.962 90.4458 220.283 91.009 227.594" stroke="#828BB6" stroke-width="2"/>
<path d="M91.0091 227.593C90.8417 227.463 90.6727 227.426 90.5022 227.484C90.2647 227.563 90.1247 227.604 90.0821 227.607C88.0788 227.737 84.6904 227.771 79.9167 227.707C63.9272 227.489 42.2478 227.483 14.8782 227.689C13.7639 227.698 12.2174 227.684 10.2385 227.648C8.69189 227.621 7.14379 227.616 5.59417 227.634C4.21199 227.649 3.07032 227.484 2.16917 227.138C1.21017 226.771 0.601278 226.012 0.3425 224.862C0.257256 224.489 0.143089 223.266 0 221.193" stroke="#F6FCFF" stroke-width="2"/>
<path d="M274 223.184C273.857 223.542 273.776 223.912 273.758 224.294C273.682 225.912 272.848 226.893 271.255 227.239C269.828 227.552 268.383 227.699 266.922 227.681C256.379 227.559 245.837 227.607 235.298 227.822C233.596 227.855 232.064 227.854 230.703 227.817C227.708 227.732 226.204 227.69 226.192 227.69C202.113 227.493 178.036 227.525 153.961 227.786C153.641 227.792 153.244 227.742 152.769 227.635C152.382 227.547 151.98 227.496 151.563 227.481C151.193 227.462 150.851 227.226 150.677 226.857L149.992 225.428C149.928 225.296 149.778 225.232 149.65 225.282C149.452 225.361 149.339 225.525 149.312 225.774" stroke="#F4FBFF" stroke-width="2"/>
<path d="M149.312 225.772L146.914 213.596" stroke="#7882A9" stroke-width="2"/>
<path d="M146.914 213.596L148.284 212.23" stroke="#9BB6FF" stroke-width="2"/>
<path d="M148.284 212.231C148.567 211.952 148.716 211.61 148.732 211.207C148.841 208.057 148.965 204.908 149.102 201.761C149.117 201.394 149.035 201.129 148.855 200.965" stroke="#F7E398" stroke-width="2"/>
<path d="M148.855 200.966C148.755 200.717 148.723 200.458 148.759 200.188" stroke="#9BB6FF" stroke-width="2"/>
<path d="M148.759 200.187C148.933 200.178 149.094 200.208 149.243 200.278C149.417 200.357 149.558 200.397 149.668 200.397C178.934 200.397 208.2 200.397 237.467 200.397C237.805 200.397 238.514 200.374 239.595 200.328C240.508 200.292 241.207 200.181 241.691 199.996C242.784 199.583 243.578 198.872 244.075 197.861C244.382 197.236 244.553 196.244 244.586 194.884C244.72 189.54 244.719 184.274 244.582 179.085C244.572 178.848 244.769 178.652 245.011 178.652L257.56 178.557C257.697 178.552 257.807 178.447 257.807 178.32L257.834 172.029C257.834 171.902 257.724 171.802 257.592 171.802L245.084 171.724C244.851 171.724 244.659 171.538 244.659 171.31C244.659 146.624 244.67 122.142 244.691 97.8653C244.694 96.9761 244.522 96.1492 244.175 95.3845C243.846 94.6562 243.313 94.0386 242.577 93.5319C240.902 92.3848 239.287 92.2831 237.732 93.2269C236.986 93.676 236.001 94.7411 234.777 96.4223C216.86 121.054 198.948 145.689 181.041 170.327C180.42 171.182 180.086 172.14 180.041 173.199C179.931 175.59 180.831 177.24 182.74 178.147C183.33 178.426 184.069 178.584 184.955 178.62C185.585 178.648 186.344 178.661 187.233 178.661C203.978 178.661 220.722 178.661 237.467 178.661C237.595 178.661 237.695 178.761 237.695 178.889V194.311C237.695 194.402 237.617 194.479 237.526 194.479C211.228 194.479 184.988 194.464 158.806 194.434C158.154 194.434 157.58 194.475 157.084 194.556C156.561 194.641 156.515 194.531 156.947 194.224C162.028 190.613 165.93 186.003 168.652 180.396C170.268 177.07 171.477 173.842 172.277 170.714" stroke="#D1E6F8" stroke-width="2"/>
<path d="M172.278 170.713C175.617 169.644 178.006 168.719 179.443 167.936C180.8 167.196 181.54 166.105 181.662 164.663C181.756 163.546 181.479 162.375 180.831 161.149C180.259 160.066 179.464 159.066 178.447 158.149C178.201 157.925 178.243 157.829 178.575 157.863C179.546 157.96 180.389 157.898 181.105 157.676C181.766 157.473 181.924 157.072 181.58 156.474C180.74 155.021 179.353 154.241 177.42 154.135C174.256 153.962 171.125 154.2 168.026 154.849C164.172 155.653 160.899 156.981 158.208 158.832C157.909 159.036 157.431 159.319 156.774 159.683C156.296 159.947 155.778 160.142 155.221 160.266C151.065 161.192 146.894 162.044 142.708 162.824" stroke="#F3D5E4" stroke-width="2"/>
<path d="M142.708 162.826C139.323 148.138 134.23 134.071 127.428 120.625" stroke="#9BB6FF" stroke-width="2"/>
<path d="M127.428 120.625C127.794 120.646 128.282 120.608 128.894 120.511C138.186 119.027 147.468 117.51 156.742 115.959C156.888 115.936 157.038 115.977 157.153 116.077C162.222 120.59 168.129 122.524 174.876 121.881C175.811 121.793 176.488 121.621 176.908 121.367C177.818 120.805 177.844 119.942 176.986 118.777C176.709 118.397 175.961 117.733 174.743 116.783C174.629 116.696 174.574 116.555 174.593 116.414C175.001 113.276 174.678 110.248 173.625 107.329C173.348 106.561 173.007 106.034 172.602 105.749C172.096 105.397 171.455 105.197 170.679 105.148C169.12 105.054 167.56 105.01 165.998 105.016" stroke="#F3D5E4" stroke-width="2"/>
<path d="M165.998 105.016C165.962 104.791 165.762 104.427 165.4 103.923C159.899 96.2974 152.572 91.7729 143.421 90.3496C136.726 89.3088 130.133 89.7276 123.643 91.606C123.484 91.6515 123.364 91.6136 123.282 91.4922" stroke="#D1E6F8" stroke-width="2"/>
<path d="M123.282 91.4915C123.574 90.9392 123.999 90.5978 124.556 90.4673C125.74 90.1912 126.745 89.8877 127.57 89.5569C127.693 89.5069 127.771 89.3794 127.757 89.2429C127.459 86.0838 127.153 82.9264 126.839 79.7704C126.787 79.2393 126.94 78.9298 127.296 78.8418" stroke="#F3D5E4" stroke-width="2"/>
<path d="M127.296 78.8422L135.324 81.241C135.694 81.3503 136.1 81.2775 136.425 81.0453C137.088 80.5628 137.075 80.1987 136.384 79.9529C135.431 79.6099 134.526 79.1699 133.671 78.6328" stroke="#F6CE81" stroke-width="2"/>
<path d="M166.204 144.667C166.52 144.803 166.829 144.816 167.131 144.703C167.259 144.658 167.346 144.526 167.341 144.38L167.231 138.176C167.227 138.017 167.172 137.876 167.072 137.775C166.767 137.466 166.492 137.451 166.245 137.73C166.102 137.888 166.02 138.132 165.998 138.463C165.87 140.344 165.878 142.326 166.021 144.407C166.03 144.521 166.099 144.621 166.204 144.667Z" stroke="#D1E6F8" stroke-width="2"/>
<path d="M175.241 138.108C175.241 137.88 175.054 137.693 174.826 137.693H174.287C174.058 137.693 173.871 137.88 173.871 138.108V144.416C173.871 144.644 174.058 144.831 174.287 144.831H174.826C175.054 144.831 175.241 144.644 175.241 144.416V138.108Z" stroke="#D1E6F8" stroke-width="2"/>
<path d="M127.296 78.8432L118.505 76.1484" stroke="#FBAA65" stroke-width="2"/>
<path d="M118.505 76.1473L94.53 68.6367" stroke="#805E35" stroke-width="2"/>
<path d="M118.505 76.1484C118.134 78.0815 117.243 79.7308 115.833 81.0963C114.707 82.1888 113.403 83.2433 111.92 84.2599C111.783 84.3555 111.591 84.269 111.564 84.1051C111.247 82.2601 110.559 80.6199 109.5 79.1846C108.729 78.1376 107.811 77.8023 106.746 78.1786C105.032 78.7825 104.309 80.1101 104.577 82.1615C104.747 83.4755 105.204 85.1384 105.947 87.1504" stroke="#7D6498" stroke-width="2"/>
<path d="M105.947 87.1504C103.42 87.9272 100.99 87.7437 98.6582 86.5996" stroke="#7A5C8F" stroke-width="2"/>
<path d="M123.282 91.4922L119.793 96.7269C119.596 97.0182 119.245 97.1593 118.902 97.0819L114.413 96.0441" stroke="#D6C1DD" stroke-width="2"/>
<path d="M114.413 96.0448C110.647 94.3788 107.976 91.6643 106.399 87.9014C106.393 87.8863 106.364 87.7543 106.312 87.5054C106.275 87.3294 106.154 87.2111 105.947 87.1504" stroke="#F6A8BF" stroke-width="2"/>
<path d="M114.413 96.0449C113.905 98.1024 113.588 100.189 113.463 102.304" stroke="#D3B9D4" stroke-width="2"/>
<path d="M113.463 102.303C111.207 100.57 108.997 99.2517 106.833 98.3474C102.762 96.651 98.5091 96.4462 94.0734 97.7329" stroke="#9E89DA" stroke-width="2"/>
<path d="M165.998 105.016L157.664 105.698" stroke="#D6C1DD" stroke-width="2"/>
<path d="M157.664 105.698C157.673 105.628 157.672 105.563 157.66 105.502C157.65 105.444 157.62 105.387 157.568 105.329C154.917 102.486 152.009 100.424 148.846 99.1431C143.101 96.8216 136.974 96.2344 130.465 97.3815C125.162 98.3162 120.633 100.402 116.879 103.64C116.767 103.737 116.547 103.866 116.222 104.027" stroke="#D1E6F8" stroke-width="2"/>
<path d="M116.222 104.027L115.747 104.351" stroke="#D6C1DD" stroke-width="2"/>
<path d="M115.747 104.351L113.463 102.303" stroke="#7EA3F8" stroke-width="2"/>
<path d="M91.5616 171.701L92.9134 175.361" stroke="#7EA3F8" stroke-width="2"/>
<path d="M92.9134 175.361C92.5968 175.413 92.5268 175.641 92.7034 176.044C92.9621 176.63 93.0063 177.381 92.8358 178.297C92.8084 178.429 92.6942 178.525 92.5618 178.529L80.0765 178.652C79.7934 178.657 79.5696 178.884 79.5788 179.158C79.7432 184.165 79.7538 189.132 79.6107 194.06C79.6016 194.297 79.7934 194.488 80.0354 194.493L91.8859 194.593" stroke="#D1E6F8" stroke-width="2"/>
<path d="M91.8859 194.592C91.6241 195.08 91.6683 195.454 92.0184 195.712" stroke="#7EA3F8" stroke-width="2"/>
<path d="M92.0183 195.713C90.5813 196.927 89.7761 198.488 89.6025 200.397" stroke="#D9D091" stroke-width="2"/>
<path d="M63.6502 116.709C50.5012 134.817 37.2701 153.038 23.9567 171.373C23.7893 171.603 23.8486 171.719 24.1348 171.719L72.3543 171.691C72.4821 171.691 72.5826 171.591 72.5826 171.464C72.5704 151.338 72.6146 131.213 72.715 111.088C72.7181 110.927 72.68 109.927 72.6009 108.088C72.5613 107.077 72.6009 106.071 72.7196 105.07C72.8018 104.399 72.6435 104.337 72.2447 104.883C69.3768 108.825 66.512 112.767 63.6502 116.709Z" stroke="#D1E6F8" stroke-width="2"/>
<path d="M148.759 200.187L147.978 191.406" stroke="#7EA3F8" stroke-width="2"/>
<path d="M147.978 191.406C151.425 190.013 154.34 188.069 156.723 185.575C160.279 181.855 162.876 177.426 164.514 172.288C164.606 172 164.491 171.88 164.172 171.928" stroke="#D1E6F8" stroke-width="2"/>
<path d="M164.172 171.928C166.912 171.767 169.614 171.362 172.277 170.713" stroke="#D6C1DD" stroke-width="2"/>
<path d="M237.352 104.812L188.896 171.52C188.798 171.653 188.833 171.72 189.001 171.72H237.298C237.517 171.72 237.695 171.542 237.695 171.324V104.921C237.695 104.533 237.581 104.496 237.352 104.812Z" stroke="#D1E6F8" stroke-width="2"/>
<path d="M157.664 105.698C144.421 105.343 131.181 104.898 117.943 104.364C117.91 104.364 117.675 104.379 117.24 104.41C116.835 104.44 116.496 104.313 116.222 104.027" stroke="#F3D5E4" stroke-width="2"/>
<path d="M115.747 104.352C120.365 109.255 124.259 114.68 127.428 120.625" stroke="#A092E3" stroke-width="2"/>
<path d="M142.708 162.825L122.062 167.118C121.921 167.145 121.793 167.027 121.807 166.881L122.304 162.193C122.327 161.974 122.131 161.792 121.907 161.824L96.7174 165.233" stroke="#A092E3" stroke-width="2"/>
<path d="M96.7174 165.232C96.4799 164.795 96.2912 164.337 96.1511 163.858C93.4202 154.496 91.452 144.975 90.2464 135.294C90.2221 135.103 90.1779 135.049 90.114 135.131C90.0896 135.161 90.0774 135.202 90.0774 135.254C89.8339 147.856 91.2511 159.737 94.329 170.895C95.6381 175.635 97.6566 181.071 100.384 187.204C100.607 187.702 100.861 188.193 101.147 188.679C101.433 189.155 101.719 189.633 102.006 190.113C103.467 192.562 105.58 194.167 108.344 194.929C111.182 195.709 114.074 196.014 117.021 195.844C119.621 195.692 122.193 195.367 124.738 194.87C126.906 194.445 129.393 193.738 132.2 192.748C136.931 191.079 141.318 189.275 145.362 187.336C146.068 186.999 146.738 186.914 147.371 187.081" stroke="#426EFE" stroke-width="2"/>
<path d="M147.371 187.082L147.978 191.406" stroke="#9BB6FF" stroke-width="2"/>
<path d="M148.855 200.966C143.555 202.468 137.586 203.151 130.949 203.014C126.045 202.914 121.172 202.463 116.331 201.662C108.075 200.3 99.9704 198.317 92.0183 195.713" stroke="#A4A097" stroke-width="2"/>
<path d="M91.8859 194.593C93.1554 191.452 94.1768 188.234 94.9501 184.939C95.2089 183.825 95.2119 182.766 94.9592 181.761C94.4721 179.84 93.7902 177.707 92.9134 175.361" stroke="#9BB6FF" stroke-width="2"/>
<path d="M96.7174 165.232C98.3431 171.201 100.63 177.034 103.577 182.73C104.505 184.523 105.629 186.126 106.947 187.537C108.146 188.82 109.481 189.709 110.952 190.204C112.842 190.838 114.829 191.02 116.911 190.75C122.129 190.071 127.186 188.764 132.082 186.831C136.928 184.919 141.72 182.879 146.458 180.709" stroke="#9A8CE3" stroke-width="2"/>
<path d="M146.458 180.709L147.371 187.082" stroke="#95B1FF" stroke-width="2"/>
<path d="M164.172 171.928C162.595 172.34 160.911 173.02 159.121 173.967C154.892 176.2 150.671 178.448 146.458 180.708" stroke="#F3D5E4" stroke-width="2"/>
<path d="M148.284 212.23C143.063 213.672 137.667 214.393 132.095 214.393C131.853 214.393 131.648 214.575 131.621 214.811L131.273 217.807" stroke="#A4A097" stroke-width="2"/>
<path d="M131.273 217.807L129.41 230.356C129.392 230.484 129.278 230.57 129.15 230.552L109.847 227.935" stroke="#8B754F" stroke-width="2"/>
<path d="M109.847 227.935L110.513 222.719" stroke="#EEDF98" stroke-width="2"/>
<path d="M110.513 222.719L112.788 223.001C112.952 223.024 113.103 222.942 113.144 222.814C113.448 221.849 113.576 220.966 113.527 220.165C113.523 220.042 113.418 219.938 113.281 219.915L111.084 219.496" stroke="#D9D091" stroke-width="2"/>
<path d="M111.084 219.496C111.09 218.81 111.142 218.129 111.239 217.452C111.246 217.425 111.249 217.131 111.249 216.569C111.252 216.12 111.501 215.856 111.998 215.777" stroke="#EEDF98" stroke-width="2"/>
<path d="M111.998 215.777C112.311 215.661 112.571 215.466 112.778 215.189" stroke="#D9D091" stroke-width="2"/>
<path d="M112.778 215.189C112.815 215.484 112.922 215.731 113.098 215.931C113.241 216.092 113.47 216.194 113.783 216.236C114.474 216.327 115.167 216.418 115.861 216.509C115.885 216.513 116.126 216.525 116.582 216.546C117.067 216.567 117.491 216.737 117.857 217.056C117.98 217.16 118.14 217.179 118.217 217.097C118.284 217.021 118.31 216.916 118.295 216.783" stroke="#FFB819" stroke-width="2"/>
<path d="M118.295 216.783L120.044 220.525C120.117 220.675 120.231 220.775 120.35 220.793L122.241 221.071C122.359 221.089 122.455 220.975 122.423 220.857L121.341 217.125" stroke="#D9D091" stroke-width="2"/>
<path d="M121.341 217.124L128.255 218.189C128.428 218.217 128.588 218.108 128.62 217.939L129.081 215.445C129.104 215.322 129.004 215.208 128.867 215.19L121.044 214.17C120.893 214.152 120.766 214.065 120.706 213.943L119.396 211.302C119.326 211.16 119.371 211.099 119.533 211.12L131.698 212.741C131.789 212.755 131.876 212.686 131.89 212.595L132.602 207.251C132.621 207.124 132.534 207.005 132.411 206.992L108.18 203.628C108.015 203.605 107.865 203.714 107.842 203.869L107.335 207.11" stroke="#FFB819" stroke-width="2"/>
<path d="M107.335 207.11C106.799 208.008 105.994 208.419 104.919 208.343C103.988 208.277 103.179 207.946 102.494 207.351C102.398 207.269 102.316 207.137 102.261 206.973C102.127 206.576 101.872 206.356 101.494 206.313C100.118 206.155 98.8759 205.987 97.7677 205.808C97.3613 205.74 96.996 206.063 97.0142 206.477C97.0629 207.457 96.9198 208.193 96.585 208.685" stroke="#D9D091" stroke-width="2"/>
<path d="M96.5849 208.685C94.7309 208.106 92.8753 207.534 91.0182 206.969C90.5128 206.814 90.2053 206.368 90.0957 205.631" stroke="#8B754F" stroke-width="2"/>
<path d="M121.341 217.124C120.97 215.979 120.224 214.415 119.103 212.431C117.484 209.557 115.115 208.011 111.998 207.792C111.325 207.744 109.771 207.516 107.335 207.109" stroke="#D9BB7A" stroke-width="2"/>
<path d="M96.585 208.686C96.6094 210.148 96.4374 211.679 96.069 213.278C96.0279 213.47 96.1603 213.661 96.3613 213.688L100.467 214.289C100.659 214.316 100.846 214.257 100.969 214.125C101.779 213.266 102.756 212.919 103.901 213.083C105.113 213.256 105.877 213.92 106.193 215.076" stroke="#6578AF" stroke-width="2"/>
<path d="M106.193 215.076L105.7 218.831" stroke="#8B754F" stroke-width="2"/>
<path d="M105.7 218.832C105.152 219.879 105.012 220.979 105.28 222.132" stroke="#6578AF" stroke-width="2"/>
<path d="M105.28 222.131L104.627 226.883C104.609 227.024 104.686 227.156 104.814 227.202C105.055 227.287 105.312 227.303 105.586 227.252" stroke="#8B754F" stroke-width="2"/>
<path d="M105.586 227.252C105.705 227.41 105.74 227.628 105.691 227.907C105.335 229.91 104.963 232.569 104.577 235.882" stroke="#7A87B6" stroke-width="2"/>
<path d="M104.577 235.883C104.233 235.78 103.945 235.812 103.714 235.979C103.613 236.052 103.54 236.188 103.517 236.357L100.869 255.224C100.85 255.352 100.937 255.47 101.06 255.484L106.275 256.208C106.431 256.226 106.577 256.116 106.6 255.957C107.47 249.609 108.356 243.417 109.257 237.381C109.337 236.853 109.108 236.543 108.572 236.452" stroke="#2F48B6" stroke-width="2"/>
<path d="M108.573 236.452L109.847 227.936" stroke="#7A87B6" stroke-width="2"/>
<path d="M131.273 217.807C134.373 217.955 137.423 217.62 140.425 216.801" stroke="#2F48B6" stroke-width="2"/>
<path d="M140.425 216.801L140.891 217.37C140.964 217.461 140.991 217.62 140.964 217.807C139.104 231.811 136.269 245.818 132.461 259.825C130.183 268.21 127.815 276.085 125.355 283.45" stroke="#0C1460" stroke-width="2"/>
<path d="M125.355 283.449C124.387 286.053 123.429 288.66 122.483 291.269C122.108 292.307 121.895 293.357 121.843 294.419C121.785 295.7 121.744 296.98 121.72 298.261" stroke="#888DB6" stroke-width="2"/>
<path d="M121.72 298.262C121.412 309.945 121.102 321.628 120.788 333.311C120.77 334.012 120.808 334.549 120.903 334.923" stroke="#0C1460" stroke-width="2"/>
<path d="M120.902 334.922C120.756 335.113 120.68 335.373 120.674 335.7C120.446 346.364 120.065 359.824 119.532 376.08" stroke="#888DB6" stroke-width="2"/>
<path d="M119.533 376.08C119.231 376.135 118.928 376.189 118.624 376.244C118.319 376.299 118.012 376.32 117.701 376.308C113.823 376.156 109.943 376.168 106.061 376.344C104.953 376.393 103.855 376.311 102.768 376.098" stroke="#0C1B6B" stroke-width="2"/>
<path d="M102.768 376.099C101.225 366.813 100.048 359.18 99.2382 353.198C99.2078 352.974 99.1286 352.869 99.0007 352.884" stroke="#8A8EB6" stroke-width="2"/>
<path d="M99.0008 352.884C99.1744 352.777 99.2444 352.626 99.2109 352.429C97.8987 344.171 97.0996 335.864 96.8134 327.507C96.7829 326.654 96.5927 326.041 96.2426 325.668" stroke="#0C1460" stroke-width="2"/>
<path d="M96.2426 325.669C96.3491 325.474 96.4511 325.277 96.5485 325.077C96.649 324.88 96.6962 324.667 96.6901 324.44C96.413 314.086 97.3172 303.845 99.4027 293.719C99.5762 292.866 99.5991 292.021 99.4712 291.184C98.4209 284.328 97.3614 277.473 96.2928 270.618C94.0703 256.334 92.3091 241.993 91.0092 227.594" stroke="#8A8EB6" stroke-width="2"/>
<path d="M118.295 216.783C117.924 215.867 117.369 215.119 116.633 214.539C115.993 214.039 115.34 213.837 114.674 213.934C113.912 214.04 113.281 214.459 112.778 215.19" stroke="#D9BB7A" stroke-width="2"/>
<path d="M111.998 215.776L107.203 215.207" stroke="#C8E1F8" stroke-width="2"/>
<path d="M107.202 215.207C106.883 215.031 106.546 214.987 106.193 215.075" stroke="#D9D091" stroke-width="2"/>
<path d="M146.914 213.596C144.914 214.989 142.751 216.057 140.425 216.8" stroke="#253FA8" stroke-width="2"/>
<path d="M149.312 225.773C151.351 237.184 153.273 248.613 155.075 260.063C156.253 267.534 157.227 275.032 157.998 282.558C158.107 283.632 158.262 286.743 158.463 291.89C158.561 294.381 158.156 296.619 157.249 298.604C156.74 299.717 155.545 301.465 153.664 303.847C152.3 305.577 150.902 307.176 149.472 308.645C140.6 317.767 131.077 326.526 120.902 334.923" stroke="#7E84A9" stroke-width="2"/>
<path d="M121.72 298.261L131.438 292.239C131.557 292.166 131.589 292.011 131.511 291.907L125.355 283.449" stroke="#7E84A9" stroke-width="2"/>
<path d="M107.203 215.207C107.236 216.466 107.084 217.706 106.746 218.926" stroke="#EEDF98" stroke-width="2"/>
<path d="M106.746 218.928C106.381 219.007 106.032 218.975 105.7 218.832" stroke="#D9D091" stroke-width="2"/>
<path d="M111.084 219.497L106.746 218.928" stroke="#C8E1F8" stroke-width="2"/>
<path d="M110.513 222.718L106.289 222.035" stroke="#C8E1F8" stroke-width="2"/>
<path d="M106.289 222.037C105.909 221.87 105.572 221.902 105.28 222.132" stroke="#D9D091" stroke-width="2"/>
<path d="M96.2426 325.668C90.86 332.969 85.3039 340.138 79.5742 347.176" stroke="#8084A9" stroke-width="2"/>
<path d="M79.5742 347.176L72.7242 354.909C72.6374 355.01 72.6465 355.16 72.7424 355.251L95.0278 375.839C95.2409 376.036 95.3779 375.994 95.4388 375.712C96.005 373.05 96.0264 370.436 95.5027 367.869C94.8238 364.534 93.6943 361.359 92.1142 358.346" stroke="#7F8BB4" stroke-width="2"/>
<path d="M92.1143 358.347L99.0008 352.885" stroke="#8084A9" stroke-width="2"/>
<path d="M102.768 376.1C101.721 379.331 101.439 382.632 101.923 386" stroke="#7F8BB4" stroke-width="2"/>
<path d="M106.289 222.035C106.228 223.795 105.994 225.534 105.586 227.252" stroke="#EEDF98" stroke-width="2"/>
<path d="M108.572 236.452L104.577 235.883" stroke="#93B2FF" stroke-width="2"/>
<path d="M243.033 385.999C244.349 385.842 245.3 385.339 245.888 384.493C246.901 383.027 246.981 381.572 246.125 380.127C245.754 379.496 245.282 379.037 244.709 378.748C244.134 378.457 243.47 378.295 242.718 378.261C239.723 378.125 237.162 378.119 235.037 378.243C234.87 378.252 234.667 378.232 234.43 378.184C234.229 378.144 234.023 378.126 233.813 378.129" stroke="#D7E8F8" stroke-width="2"/>
<path d="M233.813 378.13C231.597 369.533 229.161 360.998 226.507 352.525" stroke="#ECF7FF" stroke-width="2"/>
<path d="M226.507 352.524C224.829 346.309 222.403 337.885 219.227 327.252C219.124 326.906 219.001 326.681 218.857 326.578" stroke="#D7E8F8" stroke-width="2"/>
<path d="M218.858 326.58C218.867 326.176 218.791 325.689 218.629 325.119C216.361 317.132 214.04 309.16 211.665 301.203" stroke="#ECF7FF" stroke-width="2"/>
<path d="M211.665 301.203C209.823 294.515 207.92 287.845 205.957 281.193C205.116 278.349 203.518 276.498 201.162 275.64C199.822 275.151 198.438 275.058 197.011 275.362C195.482 275.684 194.225 276.401 193.239 277.515C192.484 278.365 191.742 280.005 191.015 282.436C189.191 288.529 187.43 294.639 185.731 300.766" stroke="#D7E8F8" stroke-width="2"/>
<path d="M185.731 300.766L178.328 326.579" stroke="#ECF7FF" stroke-width="2"/>
<path d="M178.328 326.578C175.683 335.072 173.203 343.613 170.889 352.201" stroke="#D7E8F8" stroke-width="2"/>
<path d="M170.889 352.201C168.128 361.099 165.698 369.558 163.601 377.578C163.519 377.894 163.366 378.115 163.144 378.243" stroke="#ECF7FF" stroke-width="2"/>
<path d="M163.144 378.242L162.459 378.279" stroke="#D2E6F7" stroke-width="2"/>
<path d="M162.459 378.279C160.243 378.261 158.026 378.253 155.81 378.257C154.318 378.26 153.227 378.442 152.536 378.803C151.315 379.443 150.692 380.487 150.668 381.934C150.65 383.006 150.95 383.901 151.568 384.62C152.24 385.4 153.16 385.86 154.326 385.999" stroke="#D7E8F8" stroke-width="2"/>
<path d="M135.032 385.999C135.26 385.85 135.298 385.631 135.146 385.343C134.437 384.02 133.526 382.928 132.415 382.066C131.858 381.635 130.652 380.929 128.798 379.949C125.833 378.383 122.744 377.094 119.532 376.08" stroke="#7E8BB4" stroke-width="2"/>
<path d="M211.665 301.203C211.144 300.975 210.459 300.867 209.61 300.879C203.564 300.967 195.604 300.929 185.731 300.766" stroke="#C8E1F8" stroke-width="2"/>
<path d="M218.858 326.578C218.029 326.663 216.85 326.707 215.318 326.71C203.229 326.725 191.138 326.716 179.045 326.683C178.984 326.683 178.838 326.654 178.607 326.597C178.519 326.575 178.426 326.569 178.328 326.578" stroke="#C8E1F8" stroke-width="2"/>
<path d="M92.1143 358.346C88.4762 354.871 84.835 351.401 81.1908 347.936C80.9625 347.72 80.7098 347.563 80.4328 347.463C80.1496 347.359 79.8634 347.264 79.5742 347.176" stroke="#02115D" stroke-width="2"/>
<path d="M226.507 352.524C204.036 352.382 186.454 352.35 173.762 352.429C172.535 352.435 171.577 352.359 170.889 352.201" stroke="#C8E1F8" stroke-width="2"/>
<path d="M233.813 378.129L213.834 378.393" stroke="#C8E1F8" stroke-width="2"/>
<path d="M213.834 378.393H187.005" stroke="#B6D9F7" stroke-width="2"/>
<path d="M187.005 378.392L163.144 378.242" stroke="#C3DFF7" stroke-width="2"/>
<path d="M223.054 386C223.063 385.97 223.073 385.938 223.082 385.904" stroke="#D8E8F8" stroke-width="2"/>
<path d="M223.082 385.903C223.983 385.873 224.158 385.833 223.607 385.785C223.493 385.776 223.392 385.717 223.324 385.621C223.007 385.157 222.589 384.809 222.068 384.579C221.931 384.518 221.815 384.427 221.721 384.306C221.575 384.123 221.352 383.882 221.054 383.582C220.36 382.884 220.337 382.213 220.986 381.57C221.229 381.327 221.369 381.14 221.406 381.01C221.491 380.697 221.359 380.455 221.008 380.282C220.876 380.213 220.771 380.109 220.716 379.981C220.36 379.18 219.702 378.792 218.743 378.816C217.087 378.855 215.451 378.714 213.834 378.393" stroke="#A1CAF0" stroke-width="2"/>
<path d="M162.459 378.279L162.322 378.443C162.231 378.552 162.194 378.68 162.235 378.766C162.802 380.047 162.625 381.188 161.706 382.189C161.601 382.303 161.546 382.444 161.546 382.585V384.183C161.546 384.308 161.582 384.447 161.655 384.602C161.805 384.917 161.814 385.232 161.683 385.544C161.637 385.649 161.683 385.772 161.788 385.817C161.897 385.866 161.998 385.926 162.089 385.999" stroke="#AED0F0" stroke-width="2"/>
<path d="M187.005 378.393C186.691 378.584 186.347 378.663 185.973 378.629C183.547 378.414 181.149 378.578 178.78 379.121C178.616 379.157 178.479 379.239 178.411 379.348L177.945 380.077C177.89 380.159 177.786 380.254 177.634 380.364C177.494 380.464 177.506 380.626 177.671 380.851C178.237 381.615 178.391 382.498 178.132 383.5C178.118 383.545 178.141 383.614 178.196 383.673L178.274 383.759C178.333 383.828 178.292 383.973 178.178 384.092C177.898 384.383 177.774 384.726 177.808 385.12C177.821 385.266 177.78 385.407 177.694 385.516C177.389 385.914 177.639 386.034 178.443 385.876C178.726 385.821 178.983 385.862 179.214 385.999" stroke="#9CC8EF" stroke-width="2"/>
<path d="M223.082 385.903C208.773 385.882 194.464 385.876 180.155 385.885C179.799 385.885 179.561 385.923 179.443 385.999" stroke="#C6E0F7" stroke-width="2"/>
<path d="M190.74 383.606C190.972 383.967 191.232 384.076 191.521 383.934C191.853 383.77 192.039 383.683 192.079 383.674C193.059 383.45 194.025 383.506 194.978 383.843C195.12 383.893 195.275 383.897 195.417 383.852C196.473 383.539 197.517 383.582 198.549 383.979C198.691 384.034 198.846 384.034 198.974 383.979C199.136 383.915 199.294 383.847 199.449 383.774C199.684 383.665 199.924 383.613 200.171 383.619C203.06 383.701 205.949 383.727 208.838 383.697C208.881 383.697 208.992 383.677 209.172 383.638C209.312 383.607 209.427 383.639 209.519 383.733C209.624 383.838 209.752 383.893 209.857 383.865C210.959 383.589 212.059 383.597 213.158 383.888C213.3 383.924 213.446 383.92 213.588 383.865C214.41 383.553 215.25 383.524 216.108 383.779C216.157 383.794 216.16 383.788 216.117 383.761C215.987 383.679 216.002 383.63 216.163 383.615C216.206 383.612 216.248 383.619 216.291 383.638C216.787 383.835 217.288 383.788 217.793 383.497C217.876 383.446 217.903 383.333 217.853 383.237L217.688 382.891C217.638 382.782 217.675 382.627 217.784 382.504C218.768 381.397 218.768 380.518 217.784 379.869C217.325 379.562 216.637 379.362 215.72 379.268C214.618 379.153 213.513 379.101 212.405 379.113C211.251 379.122 210.149 379.101 209.099 379.049C207.92 378.989 206.744 378.992 205.568 379.058C204.311 379.128 203.142 379.134 202.061 379.077C199.821 378.961 197.581 379.004 195.344 379.204C195.061 379.231 194.704 379.194 194.275 379.09C193.913 379.002 193.544 378.974 193.17 379.004C192.464 379.062 192.101 379.09 192.083 379.09C189.541 379.102 187 379.151 184.461 379.236C184.44 379.239 184.063 379.225 183.329 379.195C182.339 379.159 181.495 379.503 180.794 380.228C180.721 380.306 180.726 380.442 180.808 380.552C180.884 380.655 180.88 380.755 180.794 380.852C180.694 380.966 180.666 381.107 180.721 381.198C180.849 381.41 181.014 381.588 181.214 381.73C181.491 381.922 181.653 382.082 181.699 382.213C181.823 382.571 181.709 382.949 181.356 383.346C181.246 383.471 181.274 383.541 181.438 383.556C182.616 383.653 183.98 383.668 185.53 383.601C185.856 383.586 186.183 383.58 186.512 383.583C187.763 383.598 189.06 383.548 190.403 383.433C190.535 383.424 190.663 383.487 190.74 383.606Z" stroke="#8FC1EE" stroke-width="2"/>
<path d="M129.483 53.5978L131.269 55.9284C131.392 56.0877 131.433 56.3016 131.383 56.511L130.703 59.4015C130.508 59.7808 130.394 59.8127 130.36 59.4971C130.345 59.3635 130.308 59.2528 130.251 59.1648C125.973 52.5676 119.927 49.6877 112.112 50.5253C107.572 51.0108 103.593 52.9833 100.174 56.4427C100.159 56.4579 100.03 56.6536 99.7863 57.0299C99.6188 57.2879 99.3509 57.3895 98.9825 57.3349L101.723 53.616C104.706 50.6725 108.143 48.7834 112.034 47.9489C115.158 47.2783 118.166 47.3723 121.058 48.2311C124.279 49.184 127.087 50.9729 129.483 53.5978Z" fill="#FEA302"/>
<path d="M130.703 59.4025L132.223 62.7026C134.476 67.8432 134.959 73.1537 133.671 78.6342C133.446 78.6645 133.156 78.6175 132.803 78.4931C121.38 74.4237 108.509 70.0645 94.1875 65.4155L95.4251 62.7026C96.448 60.806 97.6338 59.0171 98.9825 57.3359C99.3509 57.3905 99.6188 57.2889 99.7862 57.0309C100.03 56.6547 100.159 56.4589 100.174 56.4437C103.593 52.9843 107.572 51.0118 112.112 50.5263C119.927 49.6887 125.973 52.5686 130.25 59.1658C130.308 59.2538 130.345 59.3645 130.36 59.4981C130.394 59.8137 130.508 59.7818 130.703 59.4025Z" fill="#FFCD30"/>
<path d="M101.722 53.6163L98.9825 57.3352C97.6338 59.0164 96.448 60.8053 95.4251 62.7019C95.0445 62.623 94.4798 62.5851 93.7308 62.5881C72.094 62.6488 45.3455 62.6124 13.4854 62.4788C13.1474 62.4758 12.607 62.5031 11.8642 62.5608C11.3192 62.6033 10.7758 62.6124 10.2339 62.5881C8.6721 62.5153 7.86228 62.4788 7.80443 62.4788C5.32626 62.488 2.84808 62.5137 0.3699 62.5562C0.255733 62.5608 0.155267 62.4606 0.141567 62.3286C0.129389 62.1678 0.0822 62.0176 0 61.878C0 60.3607 0 58.8434 0 57.3261C0.490156 54.7164 2.05957 53.4069 4.70823 53.3978C20.993 53.3584 52.6202 53.3493 99.5899 53.3705C99.9217 53.3705 100.278 53.4024 100.658 53.4661C101.012 53.5238 101.366 53.5738 101.722 53.6163ZM12.7912 58.3639C12.7912 57.5765 12.1473 56.9347 11.3573 56.9347C10.5673 56.9347 9.92337 57.5765 9.92337 58.3639C9.92337 59.1514 10.5673 59.7932 11.3573 59.7932C12.1473 59.7932 12.7912 59.1514 12.7912 58.3639ZM7.63547 58.3822C7.63547 57.5947 6.99613 56.9574 6.2061 56.9574C5.41607 56.9574 4.77673 57.5947 4.77673 58.3822C4.77673 59.1696 5.41607 59.8069 6.2061 59.8069C6.99613 59.8069 7.63547 59.1696 7.63547 58.3822ZM17.9105 58.3503C17.9105 57.5765 17.2848 56.9529 16.5085 56.9529C15.7322 56.9529 15.1065 57.5765 15.1065 58.3503C15.1065 59.1241 15.7322 59.7477 16.5085 59.7477C17.2848 59.7477 17.9105 59.1241 17.9105 58.3503Z" fill="#C4DDFC"/>
<path d="M274 57.3816C274 59.0901 274 60.797 274 62.5025C273.857 62.6997 273.667 62.7285 273.429 62.589C227.001 62.589 180.574 62.589 134.146 62.589C133.269 62.589 132.628 62.6269 132.223 62.7028L130.703 59.4026L131.383 56.5122C131.433 56.3028 131.392 56.0889 131.269 55.9295L129.483 53.599C130.046 53.5201 130.611 53.4806 131.178 53.4806C177.328 53.3957 223.48 53.3684 269.634 53.3987C272.14 53.4017 273.595 54.7294 274 57.3816Z" fill="#C4DDFC"/>
<path d="M11.3573 59.7941C12.1492 59.7941 12.7912 59.1542 12.7912 58.3648C12.7912 57.5755 12.1492 56.9355 11.3573 56.9355C10.5653 56.9355 9.92334 57.5755 9.92334 58.3648C9.92334 59.1542 10.5653 59.7941 11.3573 59.7941Z" fill="#B3D2F1"/>
<path d="M6.2061 59.8065C6.99552 59.8065 7.63547 59.1686 7.63547 58.3818C7.63547 57.5949 6.99552 56.957 6.2061 56.957C5.41668 56.957 4.77673 57.5949 4.77673 58.3818C4.77673 59.1686 5.41668 59.8065 6.2061 59.8065Z" fill="#B3D2F1"/>
<path d="M16.5085 59.748C17.2828 59.748 17.9105 59.1223 17.9105 58.3506C17.9105 57.5788 17.2828 56.9531 16.5085 56.9531C15.7342 56.9531 15.1066 57.5788 15.1066 58.3506C15.1066 59.1223 15.7342 59.748 16.5085 59.748Z" fill="#B3D2F1"/>
<path d="M0 61.8789C0.0822 62.0185 0.129389 62.1687 0.141567 62.3295C0.155267 62.4615 0.255733 62.5617 0.3699 62.5571C2.84808 62.5146 5.32626 62.4889 7.80443 62.4798C7.86228 62.4798 8.6721 62.5162 10.2339 62.589C10.7758 62.6133 11.3192 62.6042 11.8642 62.5617C12.607 62.504 13.1474 62.4767 13.4854 62.4798C45.3455 62.6133 72.094 62.6497 93.7308 62.589C94.4798 62.586 95.0445 62.6239 95.4251 62.7028L94.1875 65.4157C93.6456 65.3641 93.2224 65.5538 92.918 65.9847C92.2512 66.9133 92.4309 67.6431 93.4568 68.1742C93.8039 68.3502 94.1616 68.5049 94.53 68.6385C93.982 70.5533 94.0962 72.6335 94.8725 74.8791C95.2683 76.0201 95.8056 76.8561 96.4845 77.3872C96.6033 77.4782 96.6626 77.6148 96.6489 77.7513C96.5211 79.2717 96.4236 80.2488 96.3567 80.6827C95.97 83.1408 96.7372 85.1133 98.6583 86.6002C97.1147 90.0232 95.6184 93.4675 94.1692 96.933C94.0627 97.1879 94.0307 97.4549 94.0733 97.7341C90.6514 99.0693 88.0514 101.339 86.2735 104.544C84.5899 107.578 83.363 110.789 82.5927 114.176C81.2349 120.169 80.6154 126.218 80.7341 132.324C80.795 135.362 81.0766 138.246 81.5789 140.977C82.1056 143.839 82.8378 146.655 83.7755 149.425C86.2993 156.875 88.8947 164.301 91.5617 171.702L79.9212 171.616C79.7934 171.611 79.6883 171.507 79.6883 171.375C79.6548 146.782 79.6183 122.19 79.5787 97.5976C79.5757 96.1227 79.3565 95.0576 78.9211 94.4021C78.2574 93.3947 77.2193 92.8059 75.8067 92.636C73.7182 92.3811 72.0833 93.0715 70.9021 94.7071C53.433 118.832 35.9381 142.939 18.4174 167.027C16.6638 169.443 15.7854 170.654 15.7824 170.66C15.0639 172.05 14.863 173.603 15.1796 175.321C15.4658 176.863 16.3532 177.869 17.842 178.339C18.527 178.554 19.5819 178.662 21.0067 178.662C38.0921 178.662 55.2156 178.662 72.3771 178.662C72.5735 178.662 72.7287 178.821 72.7196 179.013C72.7044 179.51 72.6998 180.047 72.7059 180.624C72.7455 185.634 72.7531 190.644 72.7287 195.654C72.7257 196.616 72.817 197.339 73.0027 197.821C73.292 198.574 73.7562 199.173 74.3956 199.619C75.0197 200.056 76.0106 200.291 77.3685 200.325C81.445 200.422 85.523 200.446 89.6026 200.397C89.5721 202.16 89.7365 203.905 90.0958 205.632C90.1414 212.964 90.4459 220.285 91.0091 227.595C90.8417 227.464 90.6727 227.428 90.5022 227.486C90.2647 227.565 90.1247 227.606 90.0821 227.609C88.0788 227.739 84.6904 227.772 79.9167 227.709C63.9272 227.49 42.2478 227.484 14.8782 227.69C13.7639 227.7 12.2174 227.686 10.2385 227.65C8.69189 227.622 7.14379 227.618 5.59417 227.636C4.21199 227.651 3.07032 227.486 2.16917 227.14C1.21017 226.773 0.601278 226.014 0.3425 224.864C0.257256 224.491 0.143089 223.268 0 221.195C0 168.09 0 114.984 0 61.8789Z" fill="#EEF9FF"/>
<path d="M274 62.502C274 116.062 274 169.623 274 223.184C273.857 223.542 273.776 223.912 273.758 224.294C273.682 225.912 272.848 226.893 271.255 227.239C269.828 227.552 268.383 227.699 266.922 227.681C256.379 227.559 245.837 227.606 235.298 227.822C233.596 227.855 232.064 227.854 230.703 227.817C227.708 227.732 226.204 227.69 226.192 227.69C202.113 227.493 178.036 227.525 153.961 227.786C153.641 227.792 153.244 227.742 152.769 227.635C152.382 227.547 151.98 227.496 151.563 227.481C151.193 227.462 150.851 227.226 150.677 226.857L149.992 225.428C149.928 225.296 149.778 225.232 149.65 225.282C149.452 225.361 149.339 225.525 149.312 225.774L146.914 213.597L148.284 212.232C148.567 211.953 148.717 211.611 148.732 211.208C148.841 208.058 148.965 204.909 149.102 201.762C149.117 201.395 149.035 201.13 148.855 200.966C148.755 200.717 148.723 200.458 148.759 200.187C148.933 200.178 149.094 200.209 149.243 200.278C149.417 200.357 149.558 200.397 149.668 200.397C178.934 200.397 208.2 200.397 237.467 200.397C237.805 200.397 238.514 200.374 239.595 200.329C240.508 200.292 241.207 200.181 241.691 199.996C242.784 199.584 243.578 198.872 244.075 197.861C244.382 197.236 244.553 196.244 244.586 194.884C244.72 189.541 244.719 184.274 244.582 179.085C244.572 178.848 244.769 178.652 245.011 178.652L257.56 178.557C257.697 178.552 257.807 178.448 257.807 178.32L257.834 172.029C257.834 171.902 257.724 171.802 257.592 171.802L245.084 171.724C244.851 171.724 244.659 171.538 244.659 171.31C244.659 146.624 244.67 122.142 244.691 97.8656C244.694 96.9764 244.522 96.1495 244.175 95.3848C243.846 94.6565 243.314 94.0389 242.577 93.5322C240.902 92.3851 239.287 92.2834 237.732 93.2272C236.986 93.6763 236.001 94.7415 234.777 96.4226C216.86 121.054 198.948 145.689 181.041 170.327C180.42 171.183 180.087 172.14 180.041 173.199C179.931 175.591 180.831 177.24 182.74 178.147C183.33 178.426 184.069 178.584 184.955 178.621C185.585 178.648 186.344 178.662 187.233 178.662C203.978 178.662 220.722 178.662 237.467 178.662C237.595 178.662 237.695 178.762 237.695 178.889V194.311C237.695 194.402 237.617 194.479 237.526 194.479C211.228 194.479 184.988 194.464 158.806 194.434C158.154 194.434 157.58 194.475 157.084 194.557C156.561 194.642 156.515 194.531 156.947 194.224C162.028 190.613 165.93 186.004 168.652 180.396C170.268 177.07 171.477 173.843 172.278 170.714C175.617 169.646 178.006 168.72 179.443 167.937C180.8 167.197 181.54 166.106 181.662 164.664C181.756 163.548 181.479 162.376 180.831 161.15C180.259 160.067 179.464 159.067 178.447 158.151C178.2 157.926 178.243 157.831 178.575 157.864C179.546 157.961 180.389 157.899 181.105 157.677C181.766 157.474 181.924 157.073 181.58 156.476C180.74 155.022 179.353 154.242 177.42 154.136C174.256 153.963 171.125 154.201 168.026 154.851C164.172 155.655 160.899 156.982 158.208 158.834C157.909 159.037 157.431 159.321 156.774 159.685C156.296 159.949 155.778 160.143 155.221 160.267C151.065 161.193 146.894 162.046 142.708 162.826C139.323 148.138 134.23 134.071 127.428 120.625C127.794 120.646 128.282 120.608 128.894 120.511C138.186 119.027 147.468 117.51 156.742 115.959C156.888 115.937 157.039 115.978 157.153 116.078C162.222 120.59 168.129 122.525 174.876 121.881C175.811 121.793 176.488 121.622 176.908 121.367C177.818 120.806 177.844 119.942 176.986 118.777C176.709 118.398 175.961 117.733 174.744 116.783C174.629 116.697 174.575 116.556 174.593 116.415C175.001 113.277 174.678 110.248 173.625 107.329C173.348 106.561 173.007 106.035 172.602 105.749C172.096 105.397 171.456 105.197 170.679 105.149C169.12 105.055 167.56 105.011 165.998 105.017C165.962 104.792 165.762 104.428 165.4 103.924C159.899 96.2982 152.572 91.7736 143.421 90.3504C136.726 89.3095 130.133 89.7283 123.643 91.6067C123.484 91.6522 123.364 91.6143 123.282 91.4929C123.574 90.9406 123.999 90.5992 124.556 90.4687C125.74 90.1926 126.745 89.8891 127.57 89.5584C127.693 89.5083 127.771 89.3808 127.757 89.2443C127.459 86.0853 127.153 82.9278 126.839 79.7718C126.787 79.2408 126.94 78.9312 127.296 78.8432L135.324 81.2421C135.694 81.3513 136.1 81.2785 136.425 81.0463C137.088 80.5638 137.075 80.1997 136.384 79.9539C135.431 79.611 134.526 79.171 133.671 78.6338C134.959 73.1534 134.476 67.8428 132.223 62.7022C132.628 62.6264 133.269 62.5884 134.146 62.5884C180.574 62.5884 227.001 62.5884 273.429 62.5884C273.667 62.728 273.857 62.6992 274 62.502ZM166.204 144.668C166.52 144.805 166.829 144.817 167.131 144.704C167.259 144.659 167.346 144.527 167.341 144.381L167.231 138.177C167.227 138.018 167.172 137.877 167.072 137.776C166.767 137.467 166.492 137.452 166.245 137.731C166.102 137.889 166.02 138.133 165.998 138.464C165.87 140.345 165.878 142.327 166.021 144.409C166.03 144.522 166.099 144.623 166.204 144.668ZM175.241 138.109C175.241 137.881 175.054 137.695 174.826 137.695H174.287C174.059 137.695 173.871 137.881 173.871 138.109V144.418C173.871 144.645 174.059 144.832 174.287 144.832H174.826C175.054 144.832 175.241 144.645 175.241 144.418V138.109Z" fill="#EEF9FF"/>
<path d="M94.1875 65.4145C108.509 70.0635 121.38 74.4227 132.803 78.4921C133.156 78.6165 133.446 78.6635 133.671 78.6332C134.526 79.1703 135.431 79.6103 136.383 79.9532C137.075 80.199 137.088 80.5632 136.425 81.0457C136.1 81.2778 135.694 81.3507 135.324 81.2414L127.296 78.8426L118.505 76.1479L94.53 68.6373C94.1616 68.5037 93.8039 68.349 93.4568 68.173C92.4309 67.6419 92.2512 66.9121 92.918 65.9835C93.2224 65.5526 93.6456 65.3629 94.1875 65.4145Z" fill="#FEA302"/>
<path d="M94.53 68.6387L118.505 76.1493C118.134 78.0823 117.243 79.7316 115.833 81.0972C114.707 82.1896 113.402 83.2442 111.92 84.2608C111.783 84.3563 111.591 84.2699 111.564 84.106C111.247 82.261 110.559 80.6208 109.499 79.1854C108.729 78.1385 107.811 77.8031 106.746 78.1794C105.032 78.7833 104.309 80.1109 104.577 82.1623C104.747 83.4763 105.204 85.1393 105.947 87.1512C103.42 87.9281 100.99 87.7445 98.6582 86.6004C96.7372 85.1135 95.97 83.141 96.3566 80.683C96.4236 80.249 96.521 79.2719 96.6489 77.7516C96.6626 77.615 96.6032 77.4784 96.4845 77.3874C95.8056 76.8563 95.2682 76.0203 94.8725 74.8793C94.0961 72.6337 93.982 70.5535 94.53 68.6387Z" fill="#011868"/>
<path d="M118.505 76.1484L127.296 78.8432C126.94 78.9312 126.787 79.2407 126.839 79.7717C127.153 82.9277 127.459 86.0852 127.757 89.2442C127.771 89.3808 127.693 89.5082 127.57 89.5583C126.745 89.8891 125.74 90.1925 124.556 90.4687C123.999 90.5992 123.574 90.9406 123.282 91.4929L119.793 96.7275C119.596 97.0188 119.245 97.1599 118.902 97.0826L114.413 96.0447C110.647 94.3787 107.976 91.6643 106.399 87.9014C106.393 87.8862 106.364 87.7542 106.312 87.5054C106.275 87.3294 106.154 87.211 105.947 87.1504C105.204 85.1384 104.747 83.4755 104.577 82.1615C104.309 80.1101 105.032 78.7825 106.746 78.1786C107.811 77.8023 108.729 78.1376 109.5 79.1846C110.559 80.6199 111.247 82.2601 111.564 84.1051C111.591 84.269 111.783 84.3555 111.92 84.2599C113.403 83.2433 114.707 82.1888 115.833 81.0963C117.243 79.7308 118.134 78.0815 118.505 76.1484Z" fill="#F8B0C8"/>
<path d="M98.6583 86.5996C100.99 87.7437 103.42 87.9272 105.947 87.1504C106.154 87.2111 106.275 87.3294 106.312 87.5054C106.364 87.7543 106.393 87.8863 106.399 87.9014C107.976 91.6643 110.647 94.3788 114.413 96.0448C113.905 98.1022 113.588 100.189 113.463 102.304C111.207 100.571 108.997 99.2523 106.833 98.348C102.762 96.6517 98.5091 96.4469 94.0733 97.7335C94.0307 97.4543 94.0627 97.1873 94.1692 96.9324C95.6184 93.4669 97.1147 90.0226 98.6583 86.5996Z" fill="#F39FB6"/>
<path d="M165.998 105.016L157.664 105.699C157.673 105.629 157.672 105.564 157.66 105.503C157.65 105.445 157.62 105.388 157.568 105.33C154.917 102.486 152.009 100.424 148.846 99.1439C143.101 96.8224 136.974 96.2352 130.465 97.3823C125.162 98.317 120.633 100.403 116.879 103.641C116.767 103.738 116.547 103.867 116.222 104.028L115.747 104.351L113.463 102.303C113.588 100.188 113.905 98.1015 114.413 96.0441L118.902 97.0819C119.245 97.1593 119.596 97.0182 119.793 96.7268L123.282 91.4922C123.364 91.6136 123.484 91.6515 123.642 91.606C130.133 89.7276 136.726 89.3088 143.421 90.3496C152.572 91.7729 159.899 96.2974 165.4 103.923C165.762 104.427 165.962 104.791 165.998 105.016Z" fill="#B3D2F1"/>
<path d="M91.5616 171.702L92.9134 175.362C92.5967 175.413 92.5267 175.641 92.7033 176.044C92.9621 176.63 93.0062 177.381 92.8357 178.298C92.8083 178.43 92.6942 178.525 92.5617 178.53L80.0765 178.653C79.7933 178.657 79.5696 178.885 79.5787 179.158C79.7431 184.165 79.7538 189.132 79.6107 194.061C79.6015 194.297 79.7933 194.489 80.0354 194.493L91.8859 194.593C91.624 195.082 91.6682 195.455 92.0183 195.713C90.5813 196.927 89.7761 198.488 89.6025 200.397C85.523 200.445 81.4449 200.421 77.3684 200.324C76.0106 200.291 75.0196 200.056 74.3955 199.619C73.7562 199.172 73.2919 198.573 73.0027 197.821C72.817 197.338 72.7257 196.616 72.7287 195.654C72.7531 190.644 72.7455 185.634 72.7059 180.624C72.6998 180.047 72.7044 179.51 72.7196 179.012C72.7287 178.821 72.5734 178.662 72.3771 178.662C55.2155 178.662 38.0921 178.662 21.0066 178.662C19.5818 178.662 18.5269 178.554 17.8419 178.338C16.3532 177.868 15.4658 176.862 15.1796 175.321C14.863 173.603 15.0639 172.049 15.7824 170.659C15.7854 170.653 16.6637 169.443 18.4173 167.027C35.9381 142.938 53.433 118.832 70.902 94.7066C72.0833 93.071 73.7181 92.3806 75.8066 92.6355C77.2193 92.8055 78.2574 93.3942 78.9211 94.4017C79.3565 95.0571 79.5757 96.1223 79.5787 97.5971C79.6183 122.189 79.6548 146.782 79.6883 171.374C79.6883 171.506 79.7933 171.611 79.9212 171.615L91.5616 171.702ZM63.6502 116.71C50.5012 134.818 37.2701 153.039 23.9567 171.374C23.7893 171.605 23.8486 171.72 24.1348 171.72L72.3542 171.693C72.4821 171.693 72.5826 171.593 72.5826 171.465C72.5704 151.34 72.6145 131.214 72.715 111.089C72.718 110.928 72.68 109.928 72.6008 108.089C72.5613 107.079 72.6008 106.073 72.7196 105.071C72.8018 104.401 72.6435 104.338 72.2446 104.885C69.3768 108.827 66.512 112.769 63.6502 116.71Z" fill="#B3D2F1"/>
<path d="M148.759 200.187L147.978 191.407C151.425 190.014 154.34 188.07 156.723 185.576C160.279 181.855 162.876 177.426 164.514 172.289C164.606 172 164.491 171.88 164.172 171.929C166.912 171.768 169.614 171.363 172.278 170.714C171.477 173.842 170.268 177.07 168.652 180.396C165.93 186.003 162.028 190.613 156.947 194.224C156.515 194.531 156.561 194.641 157.084 194.556C157.58 194.475 158.154 194.434 158.806 194.434C184.988 194.464 211.228 194.479 237.526 194.479C237.617 194.479 237.695 194.402 237.695 194.311V178.889C237.695 178.761 237.595 178.661 237.467 178.661C220.722 178.661 203.978 178.661 187.233 178.661C186.344 178.661 185.585 178.648 184.955 178.62C184.069 178.584 183.33 178.426 182.74 178.147C180.831 177.24 179.931 175.59 180.041 173.199C180.087 172.14 180.42 171.182 181.041 170.327C198.948 145.689 216.86 121.054 234.777 96.4223C236.001 94.7411 236.986 93.676 237.732 93.2269C239.287 92.2831 240.902 92.3848 242.577 93.5319C243.314 94.0386 243.846 94.6562 244.175 95.3845C244.522 96.1492 244.694 96.9761 244.691 97.8653C244.67 122.142 244.659 146.624 244.659 171.31C244.659 171.538 244.851 171.724 245.084 171.724L257.592 171.802C257.724 171.802 257.834 171.902 257.834 172.029L257.807 178.32C257.807 178.447 257.697 178.552 257.56 178.557L245.011 178.652C244.769 178.652 244.572 178.848 244.582 179.085C244.719 184.274 244.72 189.54 244.586 194.884C244.553 196.244 244.382 197.236 244.075 197.861C243.578 198.872 242.784 199.583 241.691 199.996C241.207 200.181 240.508 200.292 239.595 200.328C238.514 200.374 237.805 200.396 237.467 200.396C208.2 200.396 178.934 200.396 149.668 200.396C149.558 200.396 149.417 200.357 149.243 200.278C149.094 200.208 148.933 200.178 148.759 200.187ZM237.353 104.811L188.896 171.519C188.798 171.653 188.833 171.72 189.001 171.72H237.298C237.517 171.72 237.695 171.542 237.695 171.324V104.921C237.695 104.532 237.581 104.496 237.353 104.811Z" fill="#B3D2F1"/>
<path d="M157.664 105.7C144.421 105.345 131.181 104.9 117.943 104.366C117.91 104.366 117.675 104.381 117.24 104.412C116.835 104.442 116.496 104.314 116.222 104.029C116.547 103.868 116.767 103.739 116.879 103.642C120.633 100.404 125.162 98.3181 130.465 97.3835C136.974 96.2364 143.101 96.8236 148.846 99.1451C152.009 100.426 154.917 102.488 157.568 105.331C157.62 105.389 157.65 105.446 157.66 105.504C157.672 105.565 157.673 105.63 157.664 105.7Z" fill="#EEF9FF"/>
<path d="M113.463 102.303L115.747 104.351C120.365 109.255 124.259 114.68 127.428 120.624C134.23 134.071 139.323 148.137 142.708 162.825L122.062 167.117C121.921 167.145 121.793 167.026 121.807 166.881L122.304 162.192C122.327 161.974 122.131 161.792 121.907 161.823L96.7174 165.233C96.4799 164.796 96.2912 164.338 96.1511 163.858C93.4203 154.496 91.452 144.975 90.2464 135.295C90.2221 135.104 90.1779 135.049 90.114 135.131C90.0896 135.162 90.0775 135.202 90.0775 135.254C89.8339 147.857 91.2511 159.737 94.329 170.895C95.6381 175.635 97.6566 181.072 100.384 187.205C100.607 187.702 100.861 188.194 101.147 188.68C101.433 189.156 101.719 189.634 102.006 190.113C103.467 192.562 105.58 194.168 108.344 194.929C111.182 195.709 114.074 196.014 117.021 195.844C119.621 195.692 122.193 195.368 124.738 194.87C126.906 194.445 129.393 193.738 132.2 192.749C136.931 191.08 141.318 189.276 145.362 187.337C146.068 187 146.738 186.915 147.371 187.082L147.978 191.406L148.759 200.187C148.723 200.457 148.755 200.716 148.855 200.965C143.555 202.467 137.586 203.15 130.949 203.013C126.045 202.913 121.172 202.463 116.331 201.662C108.075 200.299 99.9704 198.316 92.0183 195.712C91.6682 195.454 91.624 195.081 91.8859 194.592C93.1554 191.452 94.1768 188.233 94.9501 184.938C95.2089 183.824 95.2119 182.765 94.9592 181.761C94.4721 179.84 93.7902 177.706 92.9134 175.361L91.5616 171.701C88.8947 164.3 86.2993 156.874 83.7754 149.424C82.8378 146.653 82.1056 143.837 81.5789 140.976C81.0766 138.245 80.7949 135.36 80.734 132.323C80.6153 126.217 81.2349 120.168 82.5927 114.174C83.3629 110.788 84.5898 107.577 86.2734 104.542C88.0514 101.338 90.6513 99.0681 94.0733 97.7329C98.509 96.4462 102.762 96.651 106.833 98.3474C108.997 99.2517 111.207 100.57 113.463 102.303Z" fill="#4873FE"/>
<path d="M116.222 104.029C116.496 104.315 116.835 104.442 117.24 104.412C117.675 104.381 117.91 104.366 117.943 104.366C131.181 104.9 144.421 105.345 157.664 105.7L165.998 105.017C167.56 105.011 169.12 105.055 170.679 105.149C171.455 105.198 172.096 105.398 172.602 105.75C173.007 106.035 173.348 106.562 173.625 107.329C174.678 110.249 175.001 113.277 174.593 116.415C174.575 116.556 174.629 116.697 174.743 116.784C175.961 117.734 176.709 118.398 176.986 118.777C177.844 119.943 177.818 120.806 176.908 121.367C176.488 121.622 175.811 121.794 174.876 121.882C168.129 122.525 162.222 120.591 157.153 116.078C157.039 115.978 156.888 115.937 156.742 115.96C147.468 117.51 138.186 119.028 128.894 120.512C128.282 120.609 127.794 120.647 127.428 120.625C124.259 114.681 120.365 109.256 115.747 104.352L116.222 104.029Z" fill="#F8B0C8"/>
<path d="M63.6502 116.711C66.512 112.769 69.3768 108.827 72.2447 104.885C72.6435 104.339 72.8018 104.401 72.7196 105.072C72.6009 106.073 72.5613 107.079 72.6009 108.09C72.68 109.929 72.7181 110.929 72.715 111.09C72.6146 131.215 72.5704 151.34 72.5826 171.466C72.5826 171.593 72.4821 171.693 72.3543 171.693L24.1348 171.721C23.8486 171.721 23.7893 171.605 23.9567 171.375C37.2701 153.04 50.5012 134.819 63.6502 116.711Z" fill="#EEF9FF"/>
<path d="M237.352 104.812C237.581 104.496 237.695 104.533 237.695 104.921V171.324C237.695 171.542 237.517 171.72 237.298 171.72H189.001C188.833 171.72 188.798 171.653 188.896 171.52L237.352 104.812Z" fill="#EEF9FF"/>
<path d="M96.7174 165.234C98.3431 171.203 100.629 177.036 103.577 182.732C104.505 184.525 105.628 186.127 106.947 187.538C108.146 188.822 109.481 189.711 110.952 190.206C112.842 190.84 114.829 191.022 116.911 190.752C122.129 190.072 127.186 188.766 132.082 186.833C136.928 184.921 141.72 182.88 146.458 180.711L147.371 187.083C146.738 186.916 146.068 187.001 145.362 187.338C141.318 189.277 136.931 191.081 132.2 192.75C129.393 193.74 126.906 194.447 124.738 194.872C122.193 195.369 119.621 195.694 117.021 195.846C114.074 196.016 111.182 195.711 108.344 194.931C105.58 194.169 103.467 192.564 102.006 190.115C101.719 189.635 101.433 189.157 101.147 188.681C100.861 188.195 100.607 187.704 100.384 187.206C97.6566 181.073 95.6381 175.637 94.329 170.897C91.2511 159.739 89.8339 147.858 90.0774 135.255C90.0774 135.204 90.0896 135.163 90.114 135.133C90.1779 135.051 90.2221 135.105 90.2464 135.296C91.452 144.977 93.4202 154.498 96.1511 163.86C96.2912 164.339 96.4799 164.797 96.7174 165.234Z" fill="#3C68FE"/>
<path d="M166.204 144.669C166.099 144.623 166.03 144.523 166.021 144.409C165.878 142.328 165.87 140.346 165.998 138.465C166.02 138.134 166.102 137.89 166.245 137.732C166.492 137.453 166.767 137.468 167.072 137.777C167.172 137.877 167.227 138.019 167.231 138.178L167.341 144.382C167.346 144.528 167.259 144.66 167.131 144.705C166.829 144.818 166.52 144.805 166.204 144.669Z" fill="#B3D2F1"/>
<path d="M174.826 137.695H174.287C174.057 137.695 173.871 137.881 173.871 138.11V144.418C173.871 144.647 174.057 144.833 174.287 144.833H174.826C175.055 144.833 175.241 144.647 175.241 144.418V138.11C175.241 137.881 175.055 137.695 174.826 137.695Z" fill="#B3D2F1"/>
<path d="M172.277 170.715C169.614 171.364 166.912 171.769 164.172 171.93C162.595 172.343 160.911 173.022 159.121 173.969C154.892 176.203 150.671 178.45 146.458 180.711C141.72 182.88 136.928 184.921 132.082 186.833C127.186 188.766 122.129 190.072 116.911 190.752C114.829 191.022 112.842 190.84 110.952 190.206C109.481 189.711 108.146 188.822 106.947 187.538C105.629 186.127 104.505 184.525 103.577 182.732C100.63 177.036 98.3431 171.203 96.7174 165.234L121.907 161.825C122.131 161.793 122.327 161.975 122.304 162.193L121.807 166.882C121.793 167.028 121.921 167.146 122.062 167.119L142.708 162.826C146.894 162.046 151.065 161.194 155.221 160.268C155.778 160.144 156.296 159.949 156.774 159.685C157.431 159.321 157.909 159.037 158.208 158.834C160.899 156.983 164.172 155.655 168.026 154.851C171.125 154.202 174.256 153.964 177.42 154.137C179.353 154.243 180.74 155.023 181.58 156.476C181.924 157.074 181.765 157.475 181.105 157.678C180.389 157.899 179.546 157.962 178.575 157.865C178.243 157.831 178.2 157.927 178.447 158.151C179.464 159.068 180.258 160.068 180.831 161.151C181.479 162.377 181.756 163.548 181.662 164.665C181.54 166.107 180.8 167.197 179.443 167.938C178.006 168.721 175.617 169.646 172.277 170.715Z" fill="#F8B0C8"/>
<path d="M164.172 171.928C164.491 171.88 164.605 172 164.514 172.288C162.876 177.426 160.279 181.855 156.723 185.575C154.34 188.069 151.425 190.013 147.978 191.406L147.371 187.082L146.458 180.709C150.671 178.448 154.892 176.201 159.121 173.968C160.911 173.021 162.595 172.341 164.172 171.928Z" fill="#EEF9FF"/>
<path d="M92.9134 175.361C93.7902 177.707 94.4722 179.84 94.9593 181.761C95.212 182.766 95.2089 183.825 94.9502 184.939C94.1769 188.234 93.1555 191.452 91.8859 194.593L80.0354 194.493C79.7934 194.488 79.6016 194.297 79.6107 194.06C79.7538 189.132 79.7432 184.165 79.5788 179.158C79.5696 178.884 79.7934 178.657 80.0765 178.652L92.5618 178.529C92.6942 178.525 92.8084 178.429 92.8358 178.297C93.0063 177.381 92.9621 176.63 92.7034 176.044C92.5268 175.641 92.5968 175.413 92.9134 175.361Z" fill="#EEF9FF"/>
<path d="M92.0183 195.713C99.9704 198.317 108.075 200.3 116.331 201.662C121.172 202.463 126.045 202.914 130.949 203.014C137.586 203.151 143.555 202.468 148.855 200.966C149.035 201.13 149.117 201.395 149.102 201.762C148.965 204.909 148.841 208.058 148.732 211.208C148.717 211.611 148.567 211.953 148.284 212.232C143.063 213.673 137.667 214.394 132.095 214.394C131.853 214.394 131.648 214.576 131.62 214.813L131.273 217.808L129.41 230.357C129.392 230.485 129.278 230.571 129.15 230.553L109.847 227.936L110.513 222.719L112.788 223.001C112.952 223.024 113.103 222.942 113.144 222.815C113.448 221.85 113.576 220.967 113.527 220.166C113.523 220.043 113.418 219.938 113.281 219.915L111.084 219.497C111.09 218.811 111.142 218.129 111.239 217.453C111.246 217.425 111.249 217.131 111.249 216.57C111.252 216.121 111.501 215.857 111.997 215.778C112.311 215.662 112.571 215.467 112.778 215.19C112.815 215.485 112.921 215.732 113.098 215.932C113.241 216.093 113.469 216.195 113.783 216.237C114.474 216.328 115.167 216.419 115.861 216.51C115.885 216.513 116.126 216.526 116.582 216.547C117.066 216.568 117.491 216.738 117.857 217.057C117.98 217.161 118.14 217.18 118.217 217.098C118.284 217.022 118.31 216.917 118.295 216.784L120.044 220.525C120.117 220.675 120.231 220.776 120.35 220.794L122.241 221.071C122.359 221.09 122.455 220.976 122.423 220.858L121.341 217.125L128.255 218.19C128.428 218.217 128.588 218.108 128.62 217.94L129.081 215.445C129.104 215.322 129.004 215.209 128.867 215.19L121.044 214.171C120.893 214.153 120.765 214.066 120.706 213.943L119.396 211.303C119.325 211.16 119.371 211.1 119.532 211.121L131.698 212.742C131.789 212.755 131.876 212.687 131.89 212.596L132.602 207.252C132.621 207.124 132.534 207.006 132.41 206.992L108.18 203.629C108.015 203.606 107.865 203.715 107.842 203.87L107.335 207.111C106.799 208.009 105.994 208.42 104.919 208.344C103.988 208.278 103.179 207.947 102.494 207.352C102.398 207.27 102.316 207.138 102.261 206.974C102.127 206.577 101.872 206.357 101.494 206.314C100.118 206.156 98.8759 205.988 97.7678 205.809C97.3613 205.741 96.996 206.064 97.0143 206.478C97.063 207.458 96.9199 208.194 96.585 208.686C94.7309 208.106 92.8753 207.534 91.0182 206.97C90.5129 206.815 90.2054 206.369 90.0958 205.631C89.7365 203.905 89.5721 202.16 89.6026 200.397C89.7761 198.488 90.5814 196.927 92.0183 195.713Z" fill="#FFCD30"/>
<path d="M121.341 217.124C120.97 215.98 120.224 214.416 119.103 212.431C117.484 209.558 115.115 208.011 111.998 207.793C111.325 207.744 109.771 207.517 107.335 207.11L107.842 203.869C107.865 203.714 108.015 203.605 108.18 203.628L132.411 206.992C132.534 207.005 132.621 207.124 132.602 207.251L131.89 212.595C131.876 212.686 131.789 212.755 131.698 212.741L119.533 211.12C119.371 211.099 119.326 211.16 119.396 211.302L120.706 213.943C120.766 214.065 120.893 214.152 121.044 214.17L128.867 215.19C129.004 215.208 129.104 215.322 129.081 215.445L128.62 217.939C128.588 218.108 128.428 218.217 128.255 218.189L121.341 217.124Z" fill="#FEA302"/>
<path d="M90.0957 205.631C90.2053 206.368 90.5128 206.814 91.0182 206.969C92.8753 207.534 94.7309 208.106 96.5849 208.685C96.6093 210.148 96.4373 211.679 96.0689 213.278C96.0278 213.469 96.1602 213.66 96.3612 213.688L100.467 214.289C100.658 214.316 100.846 214.257 100.969 214.125C101.779 213.266 102.756 212.918 103.901 213.082C105.112 213.255 105.877 213.92 106.193 215.076L105.7 218.831C105.152 219.878 105.012 220.978 105.28 222.131L104.627 226.884C104.609 227.025 104.686 227.157 104.814 227.202C105.055 227.287 105.312 227.304 105.586 227.252C105.705 227.41 105.74 227.629 105.691 227.908C105.335 229.911 104.963 232.569 104.577 235.883C104.233 235.78 103.945 235.811 103.714 235.978C103.613 236.051 103.54 236.188 103.517 236.356L100.868 255.224C100.85 255.351 100.937 255.469 101.06 255.483L106.275 256.207C106.431 256.225 106.577 256.116 106.6 255.957C107.47 249.608 108.356 243.416 109.257 237.38C109.337 236.852 109.108 236.543 108.572 236.452L109.847 227.935L129.15 230.552C129.278 230.571 129.392 230.484 129.41 230.357L131.273 217.807C134.373 217.956 137.423 217.621 140.425 216.801L140.891 217.37C140.964 217.461 140.991 217.621 140.964 217.807C139.104 231.812 136.269 245.818 132.461 259.826C130.183 268.21 127.815 276.085 125.355 283.45C124.387 286.054 123.429 288.66 122.483 291.27C122.108 292.308 121.895 293.358 121.843 294.42C121.785 295.701 121.744 296.981 121.72 298.262C121.412 309.945 121.102 321.628 120.788 333.311C120.77 334.012 120.808 334.549 120.902 334.923C120.756 335.114 120.68 335.373 120.674 335.701C120.446 346.365 120.065 359.825 119.532 376.081C119.231 376.135 118.928 376.19 118.624 376.245C118.319 376.299 118.012 376.321 117.701 376.308C113.823 376.157 109.942 376.169 106.061 376.345C104.953 376.393 103.855 376.311 102.768 376.099C101.225 366.813 100.048 359.18 99.2382 353.198C99.2077 352.974 99.1286 352.869 99.0007 352.884C99.1742 352.778 99.2443 352.626 99.2108 352.429C97.8986 344.172 97.0995 335.865 96.8133 327.508C96.7828 326.655 96.5926 326.042 96.2424 325.669C96.349 325.474 96.451 325.277 96.5484 325.077C96.6489 324.88 96.6961 324.667 96.69 324.44C96.4129 314.086 97.3171 303.845 99.4026 293.719C99.5761 292.866 99.5989 292.021 99.4711 291.184C98.4207 284.328 97.3613 277.473 96.2927 270.618C94.0702 256.334 92.309 241.993 91.009 227.594C90.4458 220.283 90.1414 212.962 90.0957 205.631Z" fill="#161D6D"/>
<path d="M107.335 207.112C109.771 207.518 111.325 207.746 111.998 207.795C115.115 208.013 117.484 209.559 119.103 212.433C120.224 214.418 120.97 215.982 121.341 217.126L122.423 220.858C122.455 220.977 122.359 221.091 122.241 221.072L120.35 220.795C120.231 220.777 120.117 220.676 120.044 220.526L118.295 216.785C117.924 215.868 117.369 215.12 116.633 214.54C115.993 214.04 115.34 213.838 114.674 213.935C113.913 214.041 113.281 214.46 112.778 215.191C112.571 215.468 112.311 215.663 111.998 215.779L107.203 215.21C106.883 215.034 106.546 214.99 106.193 215.078C105.877 213.921 105.113 213.257 103.901 213.084C102.756 212.92 101.779 213.267 100.969 214.126C100.846 214.258 100.659 214.317 100.467 214.29L96.3613 213.689C96.1603 213.662 96.0279 213.471 96.069 213.28C96.4374 211.68 96.6094 210.149 96.585 208.687C96.9199 208.195 97.063 207.459 97.0143 206.479C96.996 206.065 97.3614 205.742 97.7678 205.81C98.876 205.989 100.118 206.157 101.494 206.315C101.872 206.358 102.127 206.578 102.261 206.975C102.316 207.139 102.398 207.271 102.494 207.353C103.179 207.948 103.988 208.279 104.919 208.345C105.994 208.421 106.799 208.01 107.335 207.112Z" fill="#B3D2F1"/>
<path d="M148.284 212.232L146.914 213.598C144.914 214.991 142.751 216.059 140.425 216.803C137.423 217.622 134.373 217.957 131.273 217.808L131.621 214.813C131.648 214.577 131.853 214.395 132.095 214.395C137.667 214.395 143.063 213.674 148.284 212.232Z" fill="#4873FE"/>
<path d="M146.914 213.598L149.312 225.774C151.352 237.184 153.273 248.614 155.075 260.063C156.253 267.534 157.227 275.033 157.998 282.559C158.107 283.633 158.262 286.743 158.463 291.89C158.561 294.382 158.156 296.62 157.249 298.604C156.74 299.718 155.545 301.466 153.664 303.848C152.3 305.578 150.903 307.177 149.472 308.646C140.6 317.768 131.077 326.527 120.903 334.924C120.808 334.55 120.77 334.013 120.788 333.312C121.102 321.629 121.412 309.946 121.72 298.263L131.438 292.241C131.557 292.168 131.589 292.013 131.511 291.908L125.355 283.451C127.815 276.086 130.184 268.211 132.461 259.827C136.269 245.819 139.104 231.813 140.964 217.808C140.991 217.622 140.964 217.462 140.891 217.371L140.425 216.802C142.751 216.059 144.914 214.991 146.914 213.598Z" fill="#020A52"/>
<path d="M118.295 216.783C118.31 216.917 118.284 217.022 118.217 217.097C118.14 217.179 117.98 217.161 117.857 217.056C117.491 216.738 117.067 216.568 116.582 216.547C116.126 216.525 115.885 216.513 115.861 216.51C115.167 216.419 114.474 216.328 113.783 216.237C113.47 216.195 113.241 216.093 113.098 215.932C112.922 215.732 112.815 215.484 112.778 215.19C113.281 214.459 113.912 214.04 114.674 213.934C115.34 213.837 115.993 214.039 116.633 214.539C117.369 215.119 117.924 215.867 118.295 216.783Z" fill="#FEA302"/>
<path d="M107.203 215.209C107.236 216.469 107.084 217.708 106.746 218.928C106.381 219.007 106.032 218.975 105.7 218.833L106.193 215.077C106.546 214.989 106.883 215.033 107.203 215.209Z" fill="#FFCD30"/>
<path d="M107.203 215.209L111.998 215.778C111.501 215.857 111.252 216.121 111.249 216.57C111.249 217.131 111.246 217.426 111.239 217.453C111.142 218.13 111.09 218.811 111.084 219.497L106.746 218.928C107.084 217.708 107.236 216.468 107.203 215.209Z" fill="#DDF0FF"/>
<path d="M105.7 218.832C106.032 218.975 106.38 219.007 106.746 218.928L111.084 219.497L113.281 219.915C113.418 219.938 113.523 220.043 113.527 220.166C113.576 220.967 113.448 221.85 113.144 222.815C113.103 222.942 112.952 223.024 112.788 223.002L110.513 222.719L106.289 222.037C105.909 221.87 105.572 221.902 105.28 222.132C105.012 220.979 105.152 219.879 105.7 218.832Z" fill="#B3D2F1"/>
<path d="M106.289 222.037C106.228 223.797 105.994 225.536 105.586 227.253C105.312 227.305 105.055 227.288 104.814 227.203C104.686 227.158 104.609 227.026 104.627 226.885L105.28 222.132C105.572 221.902 105.909 221.87 106.289 222.037Z" fill="#FFCD30"/>
<path d="M106.289 222.037L110.513 222.72L109.847 227.936L108.572 236.453L104.577 235.884C104.963 232.57 105.335 229.912 105.691 227.909C105.74 227.63 105.705 227.411 105.586 227.254C105.994 225.536 106.228 223.797 106.289 222.037Z" fill="#DDF0FF"/>
<path d="M104.577 235.883L108.572 236.452C109.108 236.543 109.337 236.853 109.257 237.381C108.356 243.417 107.47 249.609 106.6 255.957C106.577 256.116 106.431 256.226 106.275 256.208L101.06 255.484C100.937 255.47 100.85 255.352 100.869 255.224L103.517 236.357C103.54 236.188 103.613 236.052 103.714 235.979C103.945 235.812 104.233 235.78 104.577 235.883Z" fill="#4873FE"/>
<path d="M211.665 301.203C211.144 300.975 210.459 300.868 209.61 300.88C203.564 300.968 195.604 300.93 185.731 300.766C187.43 294.639 189.191 288.529 191.015 282.436C191.742 280.005 192.484 278.365 193.239 277.515C194.225 276.401 195.482 275.684 197.011 275.362C198.438 275.058 199.822 275.151 201.162 275.64C203.518 276.498 205.116 278.349 205.957 281.193C207.92 287.845 209.823 294.515 211.665 301.203Z" fill="#B3D2F1"/>
<path d="M125.355 283.451L131.511 291.909C131.589 292.013 131.557 292.168 131.438 292.241L121.72 298.263C121.744 296.982 121.785 295.702 121.843 294.421C121.895 293.359 122.108 292.309 122.483 291.271C123.429 288.662 124.387 286.055 125.355 283.451Z" fill="#FAFDFF"/>
<path d="M185.731 300.766C195.604 300.929 203.564 300.967 209.61 300.879C210.459 300.867 211.144 300.975 211.665 301.203C214.04 309.159 216.361 317.131 218.629 325.118C218.791 325.689 218.867 326.176 218.858 326.579C218.029 326.664 216.85 326.708 215.318 326.711C203.229 326.727 191.138 326.717 179.045 326.684C178.984 326.684 178.838 326.655 178.607 326.598C178.519 326.576 178.426 326.57 178.328 326.579L185.731 300.766Z" fill="#DDF0FF"/>
<path d="M96.2426 325.67C96.5927 326.043 96.7829 326.656 96.8134 327.509C97.0996 335.866 97.8987 344.173 99.2109 352.43C99.2444 352.628 99.1743 352.779 99.0008 352.886L92.1143 358.348C88.4762 354.873 84.835 351.403 81.1908 347.938C80.9625 347.722 80.7098 347.565 80.4328 347.464C80.1496 347.361 79.8634 347.266 79.5742 347.178C85.3039 340.14 90.86 332.971 96.2426 325.67Z" fill="#020A52"/>
<path d="M178.328 326.58C178.426 326.571 178.519 326.577 178.607 326.598C178.838 326.656 178.984 326.685 179.045 326.685C191.138 326.718 203.229 326.727 215.318 326.712C216.85 326.709 218.029 326.665 218.858 326.58C219.001 326.683 219.124 326.908 219.227 327.254C222.403 337.887 224.829 346.311 226.507 352.526C204.036 352.383 186.454 352.352 173.762 352.43C172.535 352.436 171.577 352.361 170.889 352.203C173.203 343.615 175.683 335.074 178.328 326.58Z" fill="#B3D2F1"/>
<path d="M79.5742 347.178C79.8634 347.266 80.1496 347.361 80.4327 347.465C80.7098 347.565 80.9624 347.722 81.1908 347.938C84.835 351.403 88.4761 354.873 92.1143 358.348C93.6943 361.361 94.8238 364.536 95.5027 367.871C96.0264 370.438 96.005 373.052 95.4388 375.714C95.3779 375.996 95.2409 376.038 95.0278 375.841L72.7424 355.253C72.6465 355.162 72.6374 355.012 72.7242 354.911L79.5742 347.178Z" fill="#011868"/>
<path d="M170.889 352.203C171.577 352.361 172.535 352.437 173.762 352.431C186.454 352.352 204.036 352.384 226.507 352.526C229.161 360.999 231.597 369.534 233.813 378.131L213.834 378.395H187.005L163.144 378.244C163.366 378.117 163.519 377.895 163.601 377.58C165.698 369.559 168.128 361.101 170.889 352.203Z" fill="#DDF0FF"/>
<path d="M102.768 376.1C103.855 376.313 104.953 376.395 106.061 376.346C109.942 376.17 113.823 376.158 117.701 376.31C118.012 376.322 118.319 376.301 118.624 376.246C118.928 376.191 119.231 376.137 119.532 376.082C122.744 377.096 125.833 378.385 128.798 379.951C130.652 380.931 131.858 381.637 132.415 382.068C133.526 382.93 134.437 384.022 135.146 385.345C135.298 385.633 135.26 385.852 135.032 386.001C123.996 386.001 112.959 386.001 101.923 386.001C101.439 382.632 101.721 379.332 102.768 376.1Z" fill="#011868"/>
<path d="M233.813 378.129C234.023 378.126 234.229 378.144 234.43 378.184C234.667 378.232 234.87 378.252 235.037 378.243C237.162 378.119 239.723 378.125 242.718 378.261C243.47 378.295 244.134 378.457 244.709 378.748C245.282 379.037 245.754 379.496 246.125 380.127C246.981 381.572 246.901 383.027 245.888 384.493C245.3 385.339 244.349 385.842 243.033 385.999C236.372 385.999 229.713 385.999 223.054 385.999C223.063 385.969 223.073 385.937 223.082 385.904C223.983 385.873 224.158 385.834 223.607 385.786C223.493 385.776 223.392 385.717 223.324 385.622C223.007 385.157 222.589 384.81 222.068 384.579C221.931 384.519 221.815 384.428 221.721 384.306C221.575 384.124 221.352 383.883 221.054 383.582C220.36 382.884 220.337 382.214 220.986 381.57C221.229 381.328 221.369 381.141 221.406 381.011C221.491 380.698 221.359 380.455 221.008 380.282C220.876 380.214 220.771 380.109 220.716 379.982C220.36 379.181 219.702 378.792 218.743 378.817C217.087 378.856 215.451 378.715 213.834 378.393L233.813 378.129Z" fill="#B3D2F1"/>
<path d="M162.459 378.279L162.322 378.443C162.231 378.552 162.194 378.68 162.235 378.766C162.802 380.047 162.625 381.188 161.706 382.189C161.601 382.303 161.546 382.444 161.546 382.585V384.183C161.546 384.307 161.582 384.447 161.655 384.602C161.805 384.917 161.814 385.232 161.683 385.544C161.637 385.649 161.683 385.772 161.788 385.817C161.897 385.866 161.998 385.926 162.089 385.999C159.501 385.999 156.914 385.999 154.326 385.999C153.16 385.86 152.24 385.4 151.568 384.62C150.95 383.901 150.65 383.006 150.668 381.934C150.692 380.487 151.315 379.443 152.536 378.803C153.227 378.442 154.318 378.26 155.81 378.257C158.026 378.253 160.243 378.261 162.459 378.279Z" fill="#B3D2F1"/>
<path d="M162.459 378.281L163.144 378.244L187.005 378.394C186.691 378.586 186.347 378.664 185.973 378.631C183.546 378.416 181.149 378.579 178.78 379.123C178.616 379.159 178.479 379.241 178.41 379.35L177.945 380.079C177.89 380.16 177.786 380.256 177.634 380.365C177.494 380.465 177.506 380.628 177.671 380.852C178.237 381.617 178.391 382.5 178.132 383.502C178.118 383.547 178.141 383.615 178.196 383.675L178.273 383.761C178.333 383.829 178.292 383.975 178.178 384.093C177.897 384.385 177.774 384.728 177.808 385.122C177.821 385.268 177.78 385.409 177.694 385.518C177.389 385.916 177.639 386.035 178.442 385.878C178.726 385.823 178.983 385.864 179.214 386.001C173.506 386.001 167.798 386.001 162.089 386.001C161.998 385.928 161.897 385.867 161.788 385.818C161.683 385.773 161.637 385.65 161.683 385.545C161.814 385.233 161.805 384.919 161.655 384.603C161.582 384.448 161.546 384.309 161.546 384.184V382.587C161.546 382.446 161.601 382.304 161.706 382.191C162.625 381.189 162.802 380.048 162.235 378.768C162.194 378.681 162.231 378.554 162.322 378.444L162.459 378.281Z" fill="#A9CEEF"/>
<path d="M187.005 378.395H213.834C215.451 378.716 217.087 378.857 218.743 378.818C219.702 378.794 220.36 379.182 220.716 379.983C220.771 380.111 220.876 380.215 221.008 380.284C221.359 380.457 221.491 380.699 221.406 381.012C221.369 381.142 221.229 381.329 220.986 381.572C220.337 382.215 220.36 382.886 221.054 383.584C221.352 383.884 221.575 384.125 221.721 384.307C221.815 384.429 221.931 384.52 222.068 384.581C222.588 384.811 223.007 385.159 223.324 385.623C223.392 385.719 223.493 385.778 223.607 385.787C224.158 385.835 223.983 385.875 223.082 385.905C208.773 385.884 194.464 385.878 180.155 385.887C179.799 385.887 179.561 385.925 179.443 386.001C179.367 386.001 179.29 386.001 179.214 386.001C178.983 385.864 178.726 385.823 178.443 385.878C177.639 386.036 177.389 385.916 177.694 385.518C177.78 385.409 177.821 385.268 177.808 385.122C177.774 384.728 177.898 384.385 178.178 384.094C178.292 383.975 178.333 383.83 178.274 383.761L178.196 383.675C178.141 383.616 178.118 383.547 178.132 383.502C178.391 382.5 178.237 381.617 177.671 380.853C177.506 380.628 177.494 380.466 177.634 380.366C177.786 380.256 177.89 380.161 177.945 380.079L178.411 379.35C178.479 379.241 178.616 379.159 178.78 379.123C181.149 378.58 183.547 378.416 185.973 378.631C186.347 378.665 186.691 378.586 187.005 378.395ZM190.741 383.606C190.972 383.968 191.232 384.077 191.521 383.934C191.853 383.77 192.039 383.684 192.079 383.675C193.059 383.45 194.026 383.506 194.978 383.843C195.12 383.893 195.275 383.898 195.417 383.852C196.473 383.54 197.517 383.582 198.55 383.98C198.691 384.034 198.846 384.034 198.974 383.98C199.136 383.916 199.294 383.848 199.449 383.775C199.684 383.666 199.924 383.614 200.171 383.62C203.06 383.702 205.949 383.728 208.838 383.697C208.881 383.697 208.992 383.678 209.172 383.638C209.312 383.608 209.427 383.64 209.519 383.734C209.624 383.839 209.752 383.893 209.857 383.866C210.959 383.59 212.059 383.597 213.158 383.889C213.3 383.925 213.446 383.921 213.588 383.866C214.41 383.553 215.25 383.525 216.108 383.779C216.157 383.795 216.16 383.789 216.118 383.761C215.987 383.679 216.002 383.631 216.163 383.616C216.206 383.613 216.248 383.62 216.291 383.638C216.787 383.836 217.288 383.789 217.793 383.497C217.876 383.447 217.903 383.333 217.853 383.238L217.688 382.892C217.638 382.783 217.675 382.628 217.784 382.505C218.768 381.397 218.768 380.519 217.784 379.869C217.325 379.563 216.637 379.363 215.72 379.269C214.618 379.153 213.513 379.102 212.405 379.114C211.251 379.123 210.149 379.102 209.099 379.05C207.92 378.989 206.744 378.992 205.569 379.059C204.311 379.129 203.142 379.135 202.061 379.077C199.821 378.962 197.581 379.004 195.344 379.205C195.061 379.232 194.704 379.194 194.275 379.091C193.913 379.003 193.544 378.974 193.17 379.004C192.464 379.062 192.101 379.091 192.083 379.091C189.541 379.103 187 379.152 184.461 379.237C184.44 379.24 184.063 379.226 183.329 379.196C182.339 379.159 181.495 379.504 180.794 380.229C180.721 380.306 180.726 380.443 180.808 380.552C180.884 380.655 180.88 380.755 180.794 380.853C180.694 380.966 180.666 381.107 180.721 381.199C180.849 381.411 181.014 381.588 181.214 381.731C181.492 381.922 181.653 382.083 181.699 382.214C181.823 382.572 181.709 382.949 181.356 383.347C181.246 383.471 181.274 383.541 181.438 383.556C182.616 383.653 183.98 383.669 185.53 383.602C185.856 383.587 186.183 383.581 186.512 383.584C187.763 383.599 189.06 383.549 190.403 383.433C190.535 383.424 190.663 383.488 190.741 383.606Z" fill="#8FC1EE"/>
<path d="M190.403 383.433C189.06 383.548 187.763 383.598 186.512 383.583C186.183 383.58 185.856 383.586 185.53 383.601C183.98 383.668 182.616 383.653 181.438 383.556C181.274 383.541 181.246 383.471 181.356 383.346C181.709 382.949 181.823 382.571 181.699 382.213C181.653 382.082 181.491 381.922 181.214 381.73C181.014 381.588 180.849 381.41 180.721 381.198C180.666 381.107 180.694 380.966 180.794 380.852C180.88 380.755 180.884 380.655 180.808 380.552C180.726 380.442 180.721 380.306 180.794 380.228C181.495 379.503 182.339 379.159 183.329 379.195C184.063 379.225 184.44 379.239 184.461 379.236C187 379.151 189.541 379.102 192.083 379.09C192.101 379.09 192.464 379.062 193.17 379.004C193.544 378.974 193.913 379.002 194.275 379.09C194.704 379.194 195.061 379.231 195.344 379.204C197.581 379.004 199.821 378.961 202.061 379.077C203.142 379.134 204.311 379.128 205.568 379.058C206.744 378.992 207.92 378.989 209.099 379.049C210.149 379.101 211.251 379.122 212.405 379.113C213.513 379.101 214.618 379.153 215.72 379.268C216.637 379.362 217.325 379.562 217.784 379.869C218.768 380.518 218.768 381.397 217.784 382.504C217.675 382.627 217.638 382.782 217.688 382.891L217.853 383.237C217.903 383.333 217.876 383.446 217.793 383.497C217.288 383.788 216.787 383.835 216.291 383.638C216.248 383.619 216.206 383.612 216.163 383.615C216.002 383.63 215.987 383.679 216.117 383.761C216.16 383.788 216.157 383.794 216.108 383.779C215.25 383.524 214.41 383.553 213.588 383.865C213.446 383.92 213.3 383.924 213.158 383.888C212.059 383.597 210.959 383.589 209.857 383.865C209.752 383.893 209.624 383.838 209.519 383.733C209.427 383.639 209.312 383.607 209.172 383.638C208.992 383.677 208.881 383.697 208.838 383.697C205.949 383.727 203.06 383.701 200.171 383.619C199.924 383.613 199.684 383.665 199.449 383.774C199.294 383.847 199.136 383.915 198.974 383.979C198.846 384.034 198.691 384.034 198.549 383.979C197.517 383.582 196.473 383.539 195.417 383.852C195.275 383.897 195.12 383.893 194.978 383.843C194.025 383.506 193.059 383.45 192.079 383.674C192.039 383.683 191.853 383.77 191.521 383.934C191.232 384.076 190.972 383.967 190.74 383.606C190.663 383.487 190.535 383.424 190.403 383.433Z" fill="#8FC1EE"/>
<path d="M223.082 385.905C223.073 385.938 223.063 385.97 223.054 386.001C208.517 386.001 193.98 386.001 179.443 386.001C179.561 385.925 179.799 385.887 180.155 385.887C194.464 385.878 208.773 385.884 223.082 385.905Z" fill="#FDFEFF"/>
</g>
<defs>
<clipPath id="clip0_1511_24485">
<rect width="274" height="386" fill="white"/>
</clipPath>
</defs>
</svg>
