<svg width="41" height="40" viewBox="0 0 41 40" fill="none" xmlns="http://www.w3.org/2000/svg">
<g clip-path="url(#clip0_1319_5158)">
<path d="M24.2394 16.4996L18.416 19.9996L1.77759 9.99961C4.09032 8.73294 2.12699 9.81628 8.43294 6.34961L24.2394 16.4996Z" fill="#A87E6B"/>
<path d="M29.2309 13.5001L24.2394 16.5001L8.43298 6.35013L13.6574 3.4668L29.2309 13.5001Z" fill="#F6CCAF"/>
<path d="M35.0543 9.99967C31.5437 12.1163 39.4718 7.32468 29.2309 13.4997L13.6324 3.49967L18.416 0.833008L35.0543 9.99967Z" fill="#A87E6B"/>
<path d="M24.2394 16.4997L20.0798 18.9997L9.84723 12.8497C9.36835 12.5618 8.97366 12.1526 8.70292 11.6633C8.43218 11.1739 8.29497 10.6218 8.30509 10.0624C8.31521 9.50307 8.47231 8.95627 8.76058 8.47709C9.04884 7.99792 9.45808 7.60331 9.94706 7.33301L24.2394 16.4997Z" fill="#BE927C"/>
<path d="M29.2309 13.4997L24.2394 16.4997L9.94702 7.33301C14.5475 4.83301 10.7789 6.84134 15.1715 4.45801L29.2309 13.4997Z" fill="#FFDEC7"/>
<path d="M35.0544 10L29.2309 13.5L15.1715 4.45833L20.0798 1.75C35.6367 10.3167 33.0744 8.9 35.0544 10Z" fill="#BE927C"/>
<path d="M35.0544 10V24.2333C34.2285 24.1139 33.3866 24.1737 32.5858 24.4086C31.7849 24.6436 31.0438 25.0482 30.4127 25.595C29.7816 26.1419 29.2752 26.8182 28.9277 27.5782C28.5803 28.3382 28.4 29.1641 28.399 30C28.4841 30.9354 28.7677 31.8417 29.231 32.6583C29.1478 32.7417 29.7634 32.3417 18.416 39.1667V20L35.0544 10Z" fill="#A87E6B"/>
<path d="M35.0544 10V24.2333C34.2285 24.1139 33.3866 24.1737 32.5857 24.4086C31.7849 24.6436 31.0438 25.0482 30.4127 25.595C29.7816 26.1419 29.2752 26.8182 28.9277 27.5782C28.5803 28.3382 28.4 29.1641 28.399 30C28.4186 30.4602 28.5055 30.9151 28.6569 31.35C24.905 33.6083 24.8634 33.6833 24.2394 33.85C23.7479 33.9771 23.2338 33.9899 22.7366 33.8874C22.2394 33.7849 21.7722 33.5698 21.3707 33.2585C20.9693 32.9473 20.6442 32.5481 20.4205 32.0917C20.1967 31.6352 20.0802 31.1335 20.0798 30.625V19L35.0544 10Z" fill="#BE927C"/>
<path d="M29.2309 13.5V19.1667L24.2394 21.6667V16.5L29.2309 13.5Z" fill="#F6CCAF"/>
<path d="M29.2309 13.5V18.3333L28.1078 18.8917C27.7006 19.0964 27.2479 19.1934 26.7927 19.1734C26.3375 19.1533 25.895 19.017 25.5073 18.7773C25.1195 18.5376 24.7995 18.2025 24.5776 17.8039C24.3556 17.4053 24.2392 16.9564 24.2394 16.5L29.2309 13.5Z" fill="#FFDEC7"/>
<path d="M29.2309 32.6411C29.2309 32.7245 29.5553 32.4745 24.2394 35.6661V30.8328L28.8482 27.7578C28.709 28.0946 28.6005 28.4432 28.5238 28.7995C28.3782 29.4546 28.3658 30.1323 28.4873 30.7924C28.6088 31.4524 28.8617 32.0811 29.2309 32.6411Z" fill="#F6CCAF"/>
<path d="M24.2394 31.1084V35.6667L23.4075 36.1667V31.6667L24.2394 31.1084Z" fill="#A87E6B"/>
<path d="M28.8483 27.7578C28.5007 28.5636 28.3468 29.4399 28.399 30.3161C28.4479 30.6672 28.5287 31.0131 28.6403 31.3495L27.0264 32.3078C26.7587 32.4916 26.4459 32.5986 26.1219 32.6173C25.7979 32.636 25.475 32.5656 25.1881 32.4137C24.9011 32.2618 24.6611 32.0343 24.4939 31.7556C24.3267 31.477 24.2387 31.1579 24.2394 30.8328C26.4107 29.3828 20.5624 33.2661 28.8483 27.7578Z" fill="#FFDEC7"/>
<path d="M18.416 20V39.1667L1.77759 29.1667V10L18.416 20Z" fill="#A07765"/>
<path d="M10.0968 25V30L15.0883 33.3333V28.3333L10.0968 25Z" fill="#C6C3D8"/>
<path d="M9.94702 7.33301C9.72642 7.45337 9.52229 7.60183 9.33972 7.77467C10.0968 8.28301 7.90882 6.83301 23.4075 16.9997V21.6663L24.2394 21.2497V16.4997L9.94702 7.33301Z" fill="#A87E6B"/>
<path d="M40.0458 29.9993C40.0458 32.6327 36.0193 37.341 34.2224 39.166C34.2224 39.166 28.3989 33.2243 28.3989 29.9993C28.3989 29.2333 28.5496 28.4748 28.8422 27.767C29.1349 27.0593 29.5638 26.4162 30.1046 25.8746C30.6453 25.3329 31.2873 24.9032 31.9938 24.6101C32.7004 24.3169 33.4576 24.166 34.2224 24.166C34.9871 24.166 35.7444 24.3169 36.4509 24.6101C37.1574 24.9032 37.7994 25.3329 38.3401 25.8746C38.8809 26.4162 39.3098 27.0593 39.6025 27.767C39.8952 28.4748 40.0458 29.2333 40.0458 29.9993Z" fill="#DB5669"/>
<path d="M40.0458 29.9993C40.0458 32.6327 36.0193 37.341 34.2224 39.166C34.2224 39.166 28.3989 33.2243 28.3989 29.9993C28.3989 29.2333 28.5496 28.4748 28.8422 27.767C29.1349 27.0593 29.5638 26.4162 30.1046 25.8746C30.6453 25.3329 31.2873 24.9032 31.9938 24.6101C32.7004 24.3169 33.4576 24.166 34.2224 24.166C34.9871 24.166 35.7444 24.3169 36.4509 24.6101C37.1574 24.9032 37.7994 25.3329 38.3401 25.8746C38.8809 26.4162 39.3098 27.0593 39.6025 27.767C39.8952 28.4748 40.0458 29.2333 40.0458 29.9993Z" fill="#DB5669"/>
<path d="M29.2309 32.6413C29.2309 32.7246 29.2975 32.6413 27.6419 33.6246C27.4094 33.2015 27.2091 32.7614 27.043 32.3079L28.6569 31.3496C28.8154 31.794 29.0073 32.2258 29.2309 32.6413Z" fill="#EDB996"/>
<path d="M30.8948 25.25C30.0098 25.8829 29.3161 26.7479 28.8899 27.75L27.0846 28.95C27.3817 28.075 27.882 27.2833 28.5445 26.64C29.2069 25.9967 30.0125 25.5203 30.8948 25.25Z" fill="#A87E6B"/>
<path d="M28.8483 27.7578C28.5007 28.5636 28.3468 29.4399 28.399 30.3161C28.447 30.6674 28.5278 31.0133 28.6403 31.3495L27.0264 32.3078C26.6266 31.2328 26.6266 30.0495 27.0264 28.9745L28.8483 27.7578Z" fill="#F6CCAF"/>
<path d="M40.0458 29.9996C40.0458 32.1163 37.5501 35.3996 35.8114 37.4163C35.1125 36.6663 30.0628 31.333 30.0628 28.333C30.0579 27.1923 30.3908 26.0757 31.0195 25.1246C31.8977 24.5453 32.9161 24.215 33.9666 24.1687C35.0171 24.1225 36.0605 24.362 36.9861 24.8619C37.9117 25.3617 38.6848 26.1033 39.2235 27.0079C39.7622 27.9125 40.0464 28.9463 40.0458 29.9996Z" fill="#F26674"/>
<path d="M36.7182 29.9999C36.7186 30.4363 36.6048 30.8653 36.3883 31.2441C36.1719 31.6229 35.8601 31.9383 35.4842 32.1589C35.1083 32.3796 34.6812 32.4978 34.2455 32.5018C33.8098 32.5059 33.3806 32.3956 33.0007 32.1819C32.6207 31.9682 32.3033 31.6587 32.0798 31.284C31.8564 30.9092 31.7348 30.4825 31.7271 30.0461C31.7194 29.6097 31.8259 29.1789 32.036 28.7965C32.2461 28.4141 32.5525 28.0935 32.9246 27.8665C33.3029 27.6359 33.7356 27.5102 34.1784 27.5023C34.6212 27.4945 35.058 27.6048 35.4442 27.822C35.8303 28.0391 36.1519 28.3553 36.3757 28.738C36.5996 29.1208 36.7178 29.5563 36.7182 29.9999Z" fill="#DAD7E5"/>
<path d="M36.3521 31.2996C35.8745 31.5892 35.3138 31.7101 34.7596 31.6428C34.2053 31.5756 33.6896 31.3242 33.2948 30.9287C32.9001 30.5333 32.6491 30.0167 32.5819 29.4615C32.5148 28.9063 32.6355 28.3446 32.9246 27.8663C33.4022 27.5766 33.9629 27.4558 34.5171 27.523C35.0714 27.5903 35.5871 27.8417 35.9819 28.2371C36.3766 28.6326 36.6276 29.1492 36.6948 29.7043C36.7619 30.2595 36.6412 30.8212 36.3521 31.2996Z" fill="#EDEBF2"/>
</g>
<defs>
<clipPath id="clip0_1319_5158">
<rect width="39.9321" height="40" fill="white" transform="translate(0.945679)"/>
</clipPath>
</defs>
</svg>
