<svg width="48" height="48" viewBox="0 0 48 48" fill="none" xmlns="http://www.w3.org/2000/svg">
<path d="M39 8.00021V16.0002H29C28.9992 14.3223 29.5259 12.6866 30.5058 11.3245C31.4856 9.96247 32.8689 8.94295 34.46 8.41021C35.936 7.99976 37.4743 7.86083 39 8.00021Z" fill="#FFCC66"/>
<path d="M39 8.00007V15.0001H33.35C33.0334 15.0014 32.7211 14.9276 32.4387 14.7848C32.1563 14.6419 31.9118 14.434 31.7253 14.1783C31.5388 13.9225 31.4157 13.6261 31.3661 13.3135C31.3165 13.0009 31.3418 12.681 31.44 12.3801C31.9869 10.7605 33.0383 9.35863 34.44 8.38007C35.9242 7.97726 37.4695 7.84849 39 8.00007Z" fill="#FFDE76"/>
<path d="M38 32L35 40H1V34C0.999491 32.0946 1.45272 30.2165 2.32219 28.521C3.19166 26.8255 4.45237 25.3615 6 24.25C9.78 21.53 12.8 22 19 22V32C19 33.0609 19.4214 34.0783 20.1716 34.8284C20.9217 35.5786 21.9391 36 23 36H31V16H35L38 32Z" fill="#DAD7E5"/>
<path d="M17 24.0002V34.0002C17 35.0611 17.4214 36.0785 18.1715 36.8286C18.9217 37.5788 19.9391 38.0002 21 38.0002H27C27.5304 38.0002 28.0391 37.7895 28.4142 37.4144C28.7893 37.0393 29 36.5306 29 36.0002H23C21.9391 36.0002 20.9217 35.5788 20.1715 34.8286C19.4214 34.0785 19 33.0611 19 32.0002V22.0002C12.92 22.0002 7.84997 21.1902 3.58997 26.5802C7.52997 23.4802 10.62 24.0002 17 24.0002ZM38 32.0002L36.35 36.4102C35.78 33.2902 33.35 20.2002 33.43 20.3402C33.38 20.0506 33.3944 19.7535 33.4723 19.4701C33.5502 19.1867 33.6895 18.924 33.8805 18.7005C34.0714 18.4771 34.3093 18.2985 34.5771 18.1775C34.8449 18.0565 35.1361 17.9959 35.43 18.0002C35.48 18.0002 35.21 17.1002 38 32.0002Z" fill="#EDEBF2"/>
<path d="M47 40H35L38 32C40.53 32 42.6 32.29 44.66 34.34C45.4027 35.0835 45.9916 35.966 46.3931 36.9372C46.7946 37.9084 47.0008 38.9491 47 40Z" fill="#FFCC66"/>
<path d="M45.32 38H37.19C37.0291 37.9989 36.8709 37.959 36.7287 37.8837C36.5865 37.8084 36.4646 37.6998 36.3733 37.5673C36.282 37.4348 36.224 37.2822 36.2043 37.1225C36.1846 36.9628 36.2037 36.8007 36.26 36.65L38 32H39C40.5075 32.0006 41.9841 32.4271 43.2597 33.2303C44.5353 34.0335 45.5581 35.1808 46.21 36.54C46.2891 36.6926 46.3275 36.863 46.3215 37.0347C46.3156 37.2065 46.2654 37.3738 46.176 37.5205C46.0865 37.6672 45.9608 37.7884 45.8109 37.8724C45.6609 37.9564 45.4919 38.0004 45.32 38Z" fill="#FFDE76"/>
<path d="M15 25.9999V35.9999H5.00003C5.00003 33.5199 4.72003 29.9999 8.44003 27.4399C10.78 25.7899 12.86 25.9999 15 25.9999Z" fill="#FFCC66"/>
<path d="M15 25.9999V33.9999H7.00005C7.00005 31.5399 6.84005 29.7099 8.44005 27.4399C10.78 25.7899 12.86 25.9999 15 25.9999Z" fill="#FFDE76"/>
<path d="M15 30V32H13C12.7348 32 12.4804 31.8946 12.2929 31.7071C12.1054 31.5196 12 31.2652 12 31C12 30.7348 12.1054 30.4804 12.2929 30.2929C12.4804 30.1054 12.7348 30 13 30H15Z" fill="#FFBA55"/>
<path d="M38 46C37.2585 46.0002 36.5263 45.8354 35.8563 45.5176C35.1863 45.1998 34.5954 44.737 34.1264 44.1627C33.6573 43.5883 33.3219 42.9169 33.1444 42.1969C32.9669 41.477 32.9517 40.7265 33.1 40H42.9C43.0484 40.7265 43.0332 41.477 42.8557 42.1969C42.6782 42.9169 42.3428 43.5883 41.8737 44.1627C41.4047 44.737 40.8138 45.1998 40.1438 45.5176C39.4738 45.8354 38.7416 46.0002 38 46Z" fill="#374F68"/>
<path d="M42.9 40H33.1C33.0311 40.3288 32.9976 40.6641 33 41H40.9C41.0832 41.8912 41.0167 42.8156 40.708 43.6714C40.3992 44.5272 39.86 45.2811 39.15 45.85C40.4115 45.5513 41.5077 44.7743 42.2073 43.6829C42.9069 42.5915 43.1553 41.271 42.9 40Z" fill="#2C435E"/>
<path d="M10 46C9.25853 46.0002 8.52626 45.8354 7.85628 45.5176C7.18631 45.1998 6.5954 44.737 6.12636 44.1627C5.65733 43.5883 5.32191 42.9169 5.1444 42.1969C4.96689 41.477 4.95174 40.7265 5.10004 40H14.9C15.0483 40.7265 15.0332 41.477 14.8557 42.1969C14.6782 42.9169 14.3428 43.5883 13.8737 44.1627C13.4047 44.737 12.8138 45.1998 12.1438 45.5176C11.4738 45.8354 10.7416 46.0002 10 46Z" fill="#374F68"/>
<path d="M14.9 40H5.1C5.0311 40.3288 4.99757 40.6641 5 41H12.9C13.0832 41.8912 13.0167 42.8156 12.708 43.6714C12.3992 44.5272 11.86 45.2811 11.15 45.85C12.4115 45.5513 13.5077 44.7743 14.2073 43.6829C14.9069 42.5915 15.1553 41.271 14.9 40Z" fill="#2C435E"/>
<path d="M12 41C12 41.5304 11.7893 42.0391 11.4142 42.4142C11.0391 42.7893 10.5304 43 10 43C9.46957 43 8.96086 42.7893 8.58579 42.4142C8.21071 42.0391 8 41.5304 8 41H12ZM40 41C40 41.5304 39.7893 42.0391 39.4142 42.4142C39.0391 42.7893 38.5304 43 38 43C37.4696 43 36.9609 42.7893 36.5858 42.4142C36.2107 42.0391 36 41.5304 36 41H40Z" fill="#DAD7E5"/>
<path d="M22 20V22C13.05 22 9.94 21.41 6 24.25V18H20C20.5304 18 21.0391 18.2107 21.4142 18.5858C21.7893 18.9609 22 19.4696 22 20Z" fill="#DF8761"/>
<path d="M22 20V22C13.05 22 9.94 21.41 6 24.25V18H20C20.5304 18 21.0391 18.2107 21.4142 18.5858C21.7893 18.9609 22 19.4696 22 20Z" fill="#425B72"/>
<path d="M21 21V22H13C10.4905 22.0103 8.04554 22.7962 6 24.25C6 22.8576 6.55312 21.5223 7.53769 20.5377C8.52226 19.5531 9.85761 19 11.25 19H19C19.5304 19 20.0391 19.2107 20.4142 19.5858C20.7893 19.9609 21 20.4696 21 21Z" fill="#374F68"/>
<path d="M4 3H20V18H4V3Z" fill="#A87E6B"/>
<path d="M20 3V16H14C11.8783 16 9.84344 15.1571 8.34315 13.6569C6.84285 12.1566 6 10.1217 6 8V3H20Z" fill="#BE927C"/>
<path d="M32 13H26C25.7348 13 25.4804 12.8946 25.2929 12.7071C25.1054 12.5196 25 12.2652 25 12C25 11.7348 25.1054 11.4804 25.2929 11.2929C25.4804 11.1054 25.7348 11 26 11H32C32.2652 11 32.5196 11.1054 32.7071 11.2929C32.8946 11.4804 33 11.7348 33 12C33 12.2652 32.8946 12.5196 32.7071 12.7071C32.5196 12.8946 32.2652 13 32 13Z" fill="#374F68"/>
<path d="M10 3H14V7H10V3Z" fill="#F6CCAF"/>
<path d="M14 3V6C13.2044 6 12.4413 5.68393 11.8787 5.12132C11.3161 4.55871 11 3.79565 11 3H14Z" fill="#FFDEC7"/>
<path d="M13 15H11C10.7348 15 10.4804 14.8946 10.2929 14.7071C10.1054 14.5196 10 14.2652 10 14C10 13.7348 10.1054 13.4804 10.2929 13.2929C10.4804 13.1054 10.7348 13 11 13H13C13.2652 13 13.5196 13.1054 13.7071 13.2929C13.8946 13.4804 14 13.7348 14 14C14 14.2652 13.8946 14.5196 13.7071 14.7071C13.5196 14.8946 13.2652 15 13 15Z" fill="#EDEBF2"/>
</svg>
