<svg width="259" height="227" viewBox="0 0 259 227" fill="none" xmlns="http://www.w3.org/2000/svg">
<g clip-path="url(#clip0_2151_29748)">
<path d="M256.936 223.754C256.484 224.385 256.027 225.011 255.574 225.632C254.274 226.526 252.731 227.003 251.151 227H7.84846C6.33952 227.001 4.86257 226.566 3.59643 225.748C3.17623 225.195 2.76077 224.638 2.34058 224.081L2.76077 223.85L125.931 155.76C127.024 155.157 128.252 154.84 129.501 154.838C130.75 154.837 131.979 155.15 133.073 155.751L256.521 223.524L256.936 223.754Z" fill="#6C63FF"/>
<path d="M251.152 80.5781L144.404 19.0945C139.914 16.5085 134.821 15.1459 129.636 15.1433C124.452 15.1408 119.357 16.4984 114.865 19.08L7.84848 80.5781C5.76784 80.581 3.77326 81.4067 2.30202 82.874C0.830785 84.3413 0.00294336 86.3306 0 88.4057V219.172C0.00242418 221.248 0.830095 223.237 2.30145 224.705C3.7728 226.172 5.76768 226.998 7.84848 227H251.152C253.232 226.997 255.226 226.171 256.697 224.703C258.168 223.236 258.996 221.247 259 219.172V88.4057C258.997 86.3306 258.169 84.3413 256.698 82.874C255.227 81.4067 253.232 80.581 251.152 80.5781ZM258.077 219.172C258.072 221.003 257.341 222.757 256.043 224.051C254.746 225.346 252.987 226.075 251.152 226.079H7.84848C6.01284 226.076 4.25333 225.347 2.95533 224.053C1.65733 222.758 0.926654 221.003 0.923351 219.172V88.4057C0.925585 86.5746 1.65591 84.8192 2.95414 83.5244C4.25237 82.2296 6.01251 81.5012 7.84848 81.499L114.865 20.0009C119.357 17.4193 124.452 16.0617 129.636 16.0642C134.821 16.0668 139.914 17.4294 144.404 20.0154L251.152 81.499C252.987 81.5012 254.748 82.2296 256.046 83.5244C257.344 84.8192 258.074 86.5746 258.077 88.4057V219.172Z" fill="#3F3D56"/>
<path d="M129.638 154.563C128.834 154.565 128.036 154.432 127.276 154.167L127.137 154.118L127.109 153.809C127.021 153.851 126.934 153.892 126.846 153.931L126.753 153.972L126.66 153.931C126.465 153.845 126.272 153.749 126.086 153.644L41.0891 106.01V8.74848C41.0917 6.49008 41.9923 4.3249 43.5935 2.72796C45.1947 1.13103 47.3657 0.23276 49.6301 0.230225H209.37C211.634 0.23276 213.805 1.13103 215.406 2.72796C217.008 4.3249 217.908 6.49008 217.911 8.74848V106.134L217.793 106.2L133.191 153.644C132.105 154.248 130.882 154.564 129.638 154.563Z" fill="white"/>
<path d="M129.639 154.793C128.808 154.796 127.984 154.658 127.2 154.385L126.92 154.286L126.908 154.155L126.753 154.223L126.567 154.142C126.366 154.053 126.166 153.953 125.973 153.845L40.8584 106.145V8.74848C40.861 6.42904 41.786 4.20536 43.4305 2.56527C45.075 0.925183 47.3046 0.00262505 49.6302 0H209.37C211.696 0.00263478 213.925 0.925192 215.57 2.56528C217.214 4.20537 218.139 6.42905 218.142 8.74848V106.269L133.304 153.845C132.184 154.468 130.922 154.795 129.639 154.793ZM127.786 153.606C129.483 154.093 131.304 153.89 132.852 153.042L217.218 105.73V8.74848C217.216 6.67319 216.388 4.68357 214.917 3.21612C213.446 1.74867 211.451 0.923229 209.37 0.920893H49.6302C47.5494 0.923219 45.5545 1.74866 44.0831 3.21611C42.6117 4.68357 41.7841 6.67319 41.7817 8.74848V105.605L47.3171 108.706L126.425 153.042C126.533 153.103 126.642 153.16 126.753 153.213C126.864 153.16 126.973 153.103 127.081 153.043L127.702 152.693L127.786 153.606Z" fill="#3F3D56"/>
<path d="M256.955 83.9762L223.451 102.762L217.68 105.999L133.078 153.444C132.027 154.028 130.842 154.334 129.638 154.332C128.861 154.335 128.088 154.205 127.353 153.95C127.149 153.885 126.948 153.808 126.753 153.72C126.564 153.637 126.379 153.545 126.199 153.444L47.0909 109.107L41.3199 105.875L2.11449 83.9025C2.00789 83.8416 1.92969 83.7411 1.89686 83.623C1.86402 83.5049 1.8792 83.3787 1.93911 83.2717C1.99918 83.1655 2.09903 83.0875 2.21674 83.0547C2.33444 83.0219 2.46038 83.037 2.56693 83.0967L41.3199 104.816L47.0909 108.048L126.651 152.638C126.915 152.786 127.19 152.913 127.473 153.02C127.593 153.066 127.718 153.108 127.843 153.144C128.633 153.386 129.464 153.466 130.286 153.379C131.108 153.292 131.904 153.04 132.626 152.638L217.68 104.945L223.451 101.708L256.502 83.175C256.555 83.1454 256.613 83.1264 256.673 83.1192C256.733 83.1119 256.794 83.1165 256.853 83.1328C256.911 83.149 256.965 83.1766 257.013 83.2138C257.061 83.2511 257.1 83.2974 257.13 83.35C257.16 83.4026 257.179 83.4605 257.186 83.5204C257.193 83.5804 257.189 83.6412 257.172 83.6993C257.156 83.7575 257.129 83.8118 257.091 83.8593C257.054 83.9068 257.007 83.9466 256.955 83.9762Z" fill="#3F3D56"/>
<path d="M75.7492 30.3894H62.8223C61.8428 30.3894 60.9033 30.0014 60.2107 29.3106C59.518 28.6198 59.1289 27.6828 59.1289 26.7059C59.1289 25.7289 59.518 24.792 60.2107 24.1012C60.9033 23.4104 61.8428 23.0223 62.8223 23.0223H75.7492C76.7288 23.0223 77.6682 23.4104 78.3609 24.1012C79.0535 24.792 79.4426 25.7289 79.4426 26.7059C79.4426 27.6828 79.0535 28.6198 78.3609 29.3106C77.6682 30.0014 76.7288 30.3894 75.7492 30.3894Z" fill="#6C63FF"/>
<path d="M90.9845 42.8215H62.8223C61.8428 42.8215 60.9033 42.4334 60.2107 41.7426C59.518 41.0518 59.1289 40.1149 59.1289 39.1379C59.1289 38.161 59.518 37.224 60.2107 36.5332C60.9033 35.8424 61.8428 35.4543 62.8223 35.4543H90.9845C91.9641 35.4543 92.9035 35.8424 93.5961 36.5332C94.2888 37.224 94.6779 38.161 94.6779 39.1379C94.6779 40.1149 94.2888 41.0518 93.5961 41.7426C92.9035 42.4334 91.9641 42.8215 90.9845 42.8215Z" fill="#E6E6E6"/>
<path d="M169.666 75.9736H89.7959C88.8164 75.9736 87.877 75.5856 87.1843 74.8948C86.4917 74.204 86.1025 73.267 86.1025 72.2901C86.1025 71.3131 86.4917 70.3762 87.1843 69.6854C87.877 68.9946 88.8164 68.6065 89.7959 68.6065H169.666C170.645 68.6065 171.585 68.9946 172.277 69.6854C172.97 70.3762 173.359 71.3131 173.359 72.2901C173.359 73.267 172.97 74.204 172.277 74.8948C171.585 75.5856 170.645 75.9736 169.666 75.9736Z" fill="#6C63FF"/>
<path d="M177.052 90.2475H81.9473C80.9678 90.2475 80.0283 89.8594 79.3357 89.1686C78.643 88.4778 78.2539 87.5409 78.2539 86.5639C78.2539 85.587 78.643 84.65 79.3357 83.9592C80.0283 83.2684 80.9678 82.8803 81.9473 82.8803H177.052C178.032 82.8803 178.971 83.2684 179.664 83.9592C180.357 84.65 180.746 85.587 180.746 86.5639C180.746 87.5409 180.357 88.4778 179.664 89.1686C178.971 89.8594 178.032 90.2475 177.052 90.2475Z" fill="#E6E6E6"/>
<path d="M177.052 104.061H81.9473C80.9678 104.061 80.0283 103.673 79.3357 102.982C78.643 102.291 78.2539 101.354 78.2539 100.377C78.2539 99.4004 78.643 98.4634 79.3357 97.7726C80.0283 97.0818 80.9678 96.6937 81.9473 96.6937H177.052C178.032 96.6937 178.971 97.0818 179.664 97.7726C180.357 98.4634 180.746 99.4004 180.746 100.377C180.746 101.354 180.357 102.291 179.664 102.982C178.971 103.673 178.032 104.061 177.052 104.061Z" fill="#E6E6E6"/>
</g>
<defs>
<clipPath id="clip0_2151_29748">
<rect width="259" height="227" fill="white"/>
</clipPath>
</defs>
</svg>
