<svg width="356" height="256" viewBox="0 0 356 256" fill="none" xmlns="http://www.w3.org/2000/svg">
<g clip-path="url(#clip0_1518_25284)">
<path d="M347.691 255.711H134.095C131.892 255.709 129.78 254.832 128.222 253.274C126.664 251.716 125.788 249.603 125.785 247.399V8.31184C125.788 6.10816 126.664 3.99545 128.222 2.43722C129.78 0.878986 131.892 0.00248077 134.095 0H347.691C349.894 0.00248077 352.006 0.878986 353.564 2.43722C355.121 3.99545 355.998 6.10816 356 8.31184V247.399C355.998 249.603 355.121 251.716 353.564 253.274C352.006 254.832 349.894 255.709 347.691 255.711ZM134.095 0.977863C132.151 0.980063 130.287 1.75345 128.913 3.12836C127.538 4.50327 126.765 6.36742 126.763 8.31184V247.399C126.765 249.344 127.538 251.208 128.913 252.583C130.287 253.958 132.151 254.731 134.095 254.733H347.691C349.635 254.731 351.498 253.958 352.873 252.583C354.247 251.208 355.02 249.344 355.022 247.399V8.31184C355.02 6.36742 354.247 4.50327 352.873 3.12836C351.498 1.75345 349.635 0.980063 347.691 0.977863H134.095Z" fill="#3F3D56"/>
<path d="M355.511 20.335H126.274V21.3128H355.511V20.335Z" fill="#3F3D56"/>
<path d="M137.516 14.6676C139.676 14.6676 141.426 12.9164 141.426 10.7562C141.426 8.59594 139.676 6.84473 137.516 6.84473C135.357 6.84473 133.606 8.59594 133.606 10.7562C133.606 12.9164 135.357 14.6676 137.516 14.6676Z" fill="#6C63FF"/>
<path d="M149.736 14.6676C151.895 14.6676 153.646 12.9164 153.646 10.7562C153.646 8.59594 151.895 6.84473 149.736 6.84473C147.576 6.84473 145.825 8.59594 145.825 10.7562C145.825 12.9164 147.576 14.6676 149.736 14.6676Z" fill="#6C63FF"/>
<path d="M161.955 14.6676C164.115 14.6676 165.865 12.9164 165.865 10.7562C165.865 8.59594 164.115 6.84473 161.955 6.84473C159.795 6.84473 158.045 8.59594 158.045 10.7562C158.045 12.9164 159.795 14.6676 161.955 14.6676Z" fill="#6C63FF"/>
<path d="M317.142 56.2269H164.643C162.958 56.2269 161.342 55.5572 160.15 54.3652C158.959 53.1732 158.289 51.5565 158.289 49.8708C158.289 48.185 158.959 46.5683 160.15 45.3763C161.342 44.1843 162.958 43.5146 164.643 43.5146H317.142C318.827 43.5146 320.444 44.1843 321.635 45.3763C322.827 46.5683 323.496 48.185 323.496 49.8708C323.496 51.5565 322.827 53.1732 321.635 54.3652C320.444 55.5572 318.827 56.2269 317.142 56.2269ZM164.643 44.4925C163.217 44.4925 161.85 45.0592 160.842 46.0678C159.833 47.0764 159.267 48.4444 159.267 49.8708C159.267 51.2972 159.833 52.6651 160.842 53.6738C161.85 54.6824 163.217 55.249 164.643 55.249H317.142C318.568 55.249 319.936 54.6824 320.944 53.6738C321.952 52.6651 322.519 51.2972 322.519 49.8708C322.519 48.4444 321.952 47.0764 320.944 46.0678C319.936 45.0592 318.568 44.4925 317.142 44.4925H164.643Z" fill="#3F3D56"/>
<path d="M279.435 106.387H210.029C208.991 106.387 207.997 105.975 207.264 105.242C206.53 104.508 206.118 103.513 206.118 102.476C206.118 101.439 206.53 100.444 207.264 99.7101C207.997 98.9765 208.991 98.5645 210.029 98.5645H279.435C280.472 98.5645 281.467 98.9765 282.2 99.7101C282.933 100.444 283.345 101.439 283.345 102.476C283.345 103.513 282.933 104.508 282.2 105.242C281.467 105.975 280.472 106.387 279.435 106.387Z" fill="#CCCCCC"/>
<path d="M319.515 119.589H210.029C208.991 119.589 207.997 119.176 207.264 118.443C206.53 117.709 206.118 116.714 206.118 115.677C206.118 114.64 206.53 113.645 207.264 112.911C207.997 112.178 208.991 111.766 210.029 111.766H319.515C320.552 111.766 321.546 112.178 322.28 112.911C323.013 113.645 323.425 114.64 323.425 115.677C323.425 116.714 323.013 117.709 322.28 118.443C321.546 119.176 320.552 119.589 319.515 119.589Z" fill="#CCCCCC"/>
<path d="M184.021 120.322H163.004C161.773 120.321 160.592 119.831 159.722 118.96C158.851 118.089 158.362 116.909 158.36 115.677V102.476C158.362 101.244 158.851 100.064 159.722 99.193C160.592 98.3223 161.773 97.8325 163.004 97.8311H184.021C185.252 97.8325 186.433 98.3223 187.303 99.193C188.174 100.064 188.663 101.244 188.665 102.476V115.677C188.663 116.909 188.174 118.089 187.303 118.96C186.433 119.831 185.252 120.321 184.021 120.322ZM163.004 98.8089C162.032 98.81 161.1 99.1967 160.413 99.8841C159.726 100.572 159.339 101.504 159.338 102.476V115.677C159.339 116.649 159.726 117.581 160.413 118.269C161.1 118.956 162.032 119.343 163.004 119.344H184.021C184.993 119.343 185.925 118.956 186.612 118.269C187.299 117.581 187.686 116.649 187.687 115.677V102.476C187.686 101.504 187.299 100.572 186.612 99.8841C185.925 99.1967 184.993 98.81 184.021 98.8089H163.004Z" fill="#CCCCCC"/>
<path d="M279.435 152.836H210.029C208.991 152.836 207.997 152.424 207.264 151.69C206.53 150.956 206.118 149.962 206.118 148.924C206.118 147.887 206.53 146.892 207.264 146.158C207.997 145.425 208.991 145.013 210.029 145.013H279.435C280.472 145.013 281.467 145.425 282.2 146.158C282.933 146.892 283.345 147.887 283.345 148.924C283.345 149.962 282.933 150.956 282.2 151.69C281.467 152.424 280.472 152.836 279.435 152.836Z" fill="#CCCCCC"/>
<path d="M319.515 166.037H210.029C208.991 166.037 207.997 165.625 207.264 164.891C206.53 164.158 206.118 163.163 206.118 162.125C206.118 161.088 206.53 160.093 207.264 159.36C207.997 158.626 208.991 158.214 210.029 158.214H319.515C320.552 158.214 321.546 158.626 322.28 159.36C323.013 160.093 323.425 161.088 323.425 162.125C323.425 163.163 323.013 164.158 322.28 164.891C321.546 165.625 320.552 166.037 319.515 166.037Z" fill="#CCCCCC"/>
<path d="M184.021 166.77H163.004C161.773 166.769 160.592 166.279 159.722 165.408C158.851 164.537 158.362 163.357 158.36 162.125V148.924C158.362 147.693 158.851 146.512 159.722 145.641C160.592 144.771 161.773 144.281 163.004 144.279H184.021C185.252 144.281 186.433 144.771 187.303 145.641C188.174 146.512 188.663 147.693 188.665 148.924V162.125C188.663 163.357 188.174 164.537 187.303 165.408C186.433 166.279 185.252 166.769 184.021 166.77ZM163.004 145.257C162.032 145.258 161.1 145.645 160.413 146.332C159.726 147.02 159.339 147.952 159.338 148.924V162.125C159.339 163.098 159.726 164.03 160.413 164.717C161.1 165.405 162.032 165.791 163.004 165.792H184.021C184.993 165.791 185.925 165.405 186.612 164.717C187.299 164.03 187.686 163.098 187.687 162.125V148.924C187.686 147.952 187.299 147.02 186.612 146.332C185.925 145.645 184.993 145.258 184.021 145.257H163.004Z" fill="#CCCCCC"/>
<path d="M279.435 199.284H210.029C208.991 199.284 207.997 198.872 207.264 198.138C206.53 197.405 206.118 196.41 206.118 195.372C206.118 194.335 206.53 193.34 207.264 192.607C207.997 191.873 208.991 191.461 210.029 191.461H279.435C280.472 191.461 281.467 191.873 282.2 192.607C282.933 193.34 283.345 194.335 283.345 195.372C283.345 196.41 282.933 197.405 282.2 198.138C281.467 198.872 280.472 199.284 279.435 199.284Z" fill="#F2F2F2"/>
<path d="M319.515 212.485H210.029C208.991 212.485 207.997 212.073 207.264 211.339C206.53 210.606 206.118 209.611 206.118 208.574C206.118 207.536 206.53 206.541 207.264 205.808C207.997 205.074 208.991 204.662 210.029 204.662H319.515C320.552 204.662 321.546 205.074 322.28 205.808C323.013 206.541 323.425 207.536 323.425 208.574C323.425 209.611 323.013 210.606 322.28 211.339C321.546 212.073 320.552 212.485 319.515 212.485Z" fill="#F2F2F2"/>
<path d="M184.021 213.218H163.004C161.773 213.217 160.592 212.727 159.722 211.856C158.851 210.986 158.362 209.805 158.36 208.574V195.372C158.362 194.141 158.851 192.96 159.722 192.09C160.592 191.219 161.773 190.729 163.004 190.728H184.021C185.252 190.729 186.433 191.219 187.303 192.09C188.174 192.96 188.663 194.141 188.665 195.372V208.574C188.663 209.805 188.174 210.986 187.303 211.856C186.433 212.727 185.252 213.217 184.021 213.218Z" fill="#F2F2F2"/>
<path d="M173.513 116.283L172.381 115.261C168.362 111.57 165.708 109.174 165.708 106.19C165.698 105.622 165.802 105.058 166.014 104.531C166.226 104.004 166.542 103.525 166.942 103.123C167.342 102.72 167.819 102.402 168.344 102.186C168.87 101.971 169.433 101.864 170.001 101.87C170.671 101.874 171.332 102.023 171.938 102.308C172.545 102.593 173.082 103.006 173.513 103.52C173.943 103.006 174.48 102.593 175.087 102.308C175.693 102.023 176.354 101.874 177.024 101.87C177.592 101.864 178.155 101.971 178.681 102.186C179.206 102.402 179.683 102.72 180.083 103.123C180.483 103.525 180.799 104.004 181.011 104.531C181.223 105.058 181.327 105.622 181.317 106.19C181.317 109.174 178.663 111.57 174.644 115.261L173.513 116.283Z" fill="#6C63FF"/>
<path d="M173.513 162.731L172.381 161.709C168.362 158.018 165.708 155.623 165.708 152.638C165.698 152.071 165.802 151.506 166.014 150.98C166.226 150.453 166.542 149.974 166.942 149.571C167.342 149.168 167.819 148.85 168.344 148.635C168.87 148.42 169.433 148.312 170.001 148.319C170.671 148.322 171.332 148.472 171.938 148.756C172.545 149.041 173.082 149.455 173.513 149.968C173.943 149.455 174.48 149.041 175.087 148.756C175.693 148.472 176.354 148.322 177.024 148.319C177.592 148.312 178.155 148.42 178.681 148.635C179.206 148.85 179.683 149.168 180.083 149.571C180.483 149.974 180.799 150.453 181.011 150.98C181.223 151.506 181.327 152.071 181.317 152.638C181.317 155.623 178.663 158.018 174.644 161.709L173.513 162.731Z" fill="#6C63FF"/>
<path d="M84.7203 154.917H63.7028C62.4718 154.915 61.2915 154.425 60.421 153.555C59.5505 152.684 59.0608 151.503 59.0594 150.272V137.071C59.0608 135.839 59.5505 134.659 60.421 133.788C61.2915 132.917 62.4718 132.427 63.7028 132.426H84.7203C85.9514 132.427 87.1316 132.917 88.0021 133.788C88.8726 134.659 89.3623 135.839 89.3637 137.071V150.272C89.3623 151.503 88.8726 152.684 88.0021 153.555C87.1316 154.425 85.9514 154.915 84.7203 154.917ZM63.7028 133.404C62.7309 133.405 61.7991 133.791 61.1119 134.479C60.4247 135.166 60.0381 136.098 60.037 137.071V150.272C60.0381 151.244 60.4247 152.176 61.1119 152.864C61.7991 153.551 62.7309 153.938 63.7028 153.939H84.7203C85.6922 153.938 86.624 153.551 87.3113 152.864C87.9985 152.176 88.3851 151.244 88.3862 150.272V137.071C88.3851 136.098 87.9985 135.166 87.3113 134.479C86.624 133.791 85.6922 133.405 84.7203 133.404H63.7028Z" fill="#3F3D56"/>
<path d="M74.2116 150.877L73.0799 149.856C69.0608 146.165 66.4075 143.769 66.4075 140.785C66.3976 140.217 66.5016 139.653 66.7134 139.126C66.9253 138.599 67.2407 138.12 67.6409 137.717C68.0411 137.315 68.518 136.996 69.0435 136.781C69.5689 136.566 70.1321 136.459 70.6998 136.465C71.3697 136.469 72.0309 136.618 72.6373 136.903C73.2437 137.188 73.781 137.601 74.2116 138.115C74.6423 137.601 75.1795 137.188 75.7859 136.903C76.3924 136.618 77.0535 136.469 77.7235 136.465C78.2912 136.459 78.8544 136.566 79.3798 136.781C79.9052 136.996 80.3821 137.315 80.7824 137.717C81.1826 138.12 81.498 138.599 81.7098 139.126C81.9217 139.653 82.0257 140.217 82.0157 140.785C82.0157 143.769 79.3624 146.165 75.3434 149.856L74.2116 150.877Z" fill="#6C63FF"/>
<path d="M62.0578 250.385L67.494 249.091L65.0931 227.501L57.0698 229.41L62.0578 250.385Z" fill="#FFB8B8"/>
<path d="M79.1785 251.646L62.0935 255.711L60.5233 249.108L71.0073 246.613C71.8741 246.407 72.7731 246.373 73.6529 246.515C74.5327 246.656 75.376 246.969 76.1348 247.436C76.8935 247.904 77.5529 248.516 78.0751 249.238C78.5974 249.96 78.9723 250.778 79.1785 251.646Z" fill="#2F2E41"/>
<path d="M56.7217 236.482L44.9152 196.006L59.669 192.345L68.3243 235.212C68.3877 235.526 68.3818 235.851 68.307 236.162C68.2322 236.474 68.0903 236.765 67.8912 237.016C67.6921 237.267 67.4406 237.471 67.1543 237.615C66.868 237.759 66.5538 237.838 66.2337 237.847L58.8986 238.065C58.8765 238.066 58.8545 238.066 58.8326 238.066C58.3568 238.066 57.8939 237.912 57.5134 237.626C57.1328 237.34 56.855 236.939 56.7217 236.482Z" fill="#2F2E41"/>
<path d="M28.3932 250.52L33.9809 250.52L36.6384 228.96L28.3912 228.961L28.3932 250.52Z" fill="#FFB8B8"/>
<path d="M44.7579 255.71L27.1963 255.712L27.1957 248.924L37.9721 248.923C39.7717 248.923 41.4976 249.638 42.7702 250.911C44.0428 252.184 44.7578 253.91 44.7579 255.71Z" fill="#2F2E41"/>
<path d="M27.412 242.143C27.2066 241.945 27.0428 241.707 26.93 241.444C26.8172 241.182 26.7576 240.899 26.7548 240.613L21.664 200.235C21.6619 199.653 21.8904 199.093 22.2996 198.679C22.7087 198.264 23.2653 198.029 23.8475 198.024L35.2107 197.941H35.227C35.804 197.943 36.3574 198.171 36.7685 198.576C37.1796 198.981 37.4156 199.531 37.426 200.108L38.03 239.885C38.0391 240.465 37.8182 241.026 37.4157 241.444C37.0132 241.862 36.4617 242.104 35.8815 242.117L28.9834 242.773C28.9728 242.773 28.9622 242.773 28.9516 242.773C28.3754 242.775 27.822 242.548 27.412 242.143Z" fill="#2F2E41"/>
<path d="M29.8471 108.499C36.4772 108.499 41.852 103.122 41.852 96.4901C41.852 89.8579 36.4772 84.4814 29.8471 84.4814C23.2169 84.4814 17.8422 89.8579 17.8422 96.4901C17.8422 103.122 23.2169 108.499 29.8471 108.499Z" fill="#FFB8B8"/>
<path d="M14.0317 198.126C6.22079 192.021 6.30347 184.899 8.9687 175.386C9.71953 172.706 10.5299 169.99 11.3878 167.114C15.3738 153.754 19.8915 138.611 18.1764 126.108C17.7066 122.684 18.9041 119.082 21.4615 116.226C24.0192 113.37 27.4616 111.787 30.9221 111.877C34.3765 111.969 37.7355 113.735 40.1376 116.723C42.5281 119.697 43.669 130.152 44.0072 131.651C45.5598 138.528 46.4969 142.68 47.1689 149.302C47.9638 157.132 57.4834 180.541 60.5169 184.466C61.322 185.503 61.8984 186.698 62.2081 187.973C62.5179 189.248 62.554 190.575 62.314 191.865C62.0905 193.093 61.6057 194.258 60.8927 195.281C60.1796 196.305 59.2549 197.163 58.1813 197.798C53.2583 200.809 47.8488 202.938 42.1952 204.092C39.7429 204.567 37.2506 204.807 34.7526 204.808C27.0021 204.808 19.5964 202.475 14.0317 198.126Z" fill="#6C63FF"/>
<path d="M63.9542 152.884C63.6433 152.29 63.2061 151.772 62.6733 151.366C62.1405 150.959 61.5251 150.675 60.8704 150.532C60.2157 150.389 59.5377 150.392 58.8842 150.539C58.2306 150.687 57.6173 150.976 57.0876 151.387L47.9908 146.194L43.4882 150.955L56.4376 158.107C57.1858 158.951 58.2177 159.492 59.3378 159.626C60.4579 159.76 61.5883 159.479 62.5148 158.835C63.4414 158.191 64.0996 157.23 64.3649 156.133C64.6302 155.036 64.4841 153.88 63.9542 152.884Z" fill="#FFB8B8"/>
<path d="M50.0868 156.403L33.7825 151.279C31.5935 150.587 29.6696 149.239 28.2703 147.418C26.8711 145.597 26.0639 143.39 25.9575 141.096L25.256 125.249C25.2166 124.358 25.3573 123.467 25.6697 122.632C25.9822 121.796 26.46 121.032 27.0745 120.385C27.689 119.738 28.4276 119.222 29.2461 118.867C30.0646 118.512 30.9463 118.326 31.8383 118.32C32.7303 118.314 33.6144 118.488 34.4376 118.832C35.2609 119.176 36.0064 119.682 36.6295 120.32C37.2527 120.959 37.7407 121.717 38.0643 122.548C38.388 123.38 38.5407 124.268 38.5133 125.16L38.0648 139.74L55.4173 146.819C55.7237 146.944 55.9979 147.136 56.2196 147.382C56.4413 147.628 56.6046 147.92 56.6976 148.238C56.7905 148.556 56.8106 148.89 56.7563 149.217C56.702 149.543 56.5748 149.853 56.3841 150.124L52.5437 155.572C52.2756 155.954 51.8929 156.24 51.4511 156.39C51.0093 156.539 50.5315 156.544 50.0868 156.403Z" fill="#2F2E41"/>
<path d="M10.4999 111.433C11.0485 108.142 11.0283 104.731 11.0088 101.432C11.0035 100.537 10.9981 99.6416 11.0036 98.748C11.0292 94.5952 11.2868 90.1936 12.984 86.1415C14.8313 81.7316 18.252 78.5471 22.1345 77.6232C26.5118 76.5804 31.2616 78.8856 32.6915 82.6813C33.6368 82.1472 34.6888 81.8297 35.7716 81.7516C36.8544 81.6736 37.941 81.8369 38.9531 82.2299C39.9652 82.6229 40.8774 83.2356 41.624 84.024C42.3706 84.8124 42.9329 85.7568 43.2704 86.7889C43.6079 87.8211 43.7122 88.9153 43.5757 89.9927C43.4392 91.07 43.0653 92.1036 42.4811 93.0189C41.8968 93.9342 41.1167 94.7083 40.1971 95.2855C39.2775 95.8626 38.2412 96.2284 37.1632 96.3563L36.9798 96.3726L35.5493 92.654C35.5412 92.7192 35.5335 92.7851 35.5256 92.8514C35.4345 93.6226 35.3404 94.4197 34.704 94.8802C33.9095 95.4551 32.92 97.3471 33.2091 99.2639C33.3894 100.245 33.658 101.207 34.0118 102.139C34.4049 103.163 34.6903 104.225 34.8633 105.308C35.0451 106.695 34.6821 108.1 33.8504 109.226C33.6039 109.554 33.2931 109.829 32.9369 110.034C32.5808 110.238 32.1867 110.368 31.7787 110.415L15.655 112.083L14.9341 106.695L10.3478 112.346L10.4999 111.433Z" fill="#2F2E41"/>
<path d="M94.3342 256H0.488778C0.359146 256 0.234823 255.949 0.14316 255.857C0.0514958 255.765 0 255.641 0 255.511C0 255.382 0.0514958 255.257 0.14316 255.166C0.234823 255.074 0.359146 255.022 0.488778 255.022H94.3342C94.4639 255.022 94.5882 255.074 94.6799 255.166C94.7715 255.257 94.823 255.382 94.823 255.511C94.823 255.641 94.7715 255.765 94.6799 255.857C94.5882 255.949 94.4639 256 94.3342 256Z" fill="#CCCCCC"/>
</g>
<defs>
<clipPath id="clip0_1518_25284">
<rect width="356" height="256" fill="white"/>
</clipPath>
</defs>
</svg>
