<svg width="72" height="72" viewBox="0 0 72 72" fill="none" xmlns="http://www.w3.org/2000/svg">
<g clip-path="url(#clip0_1325_24864)">
<path fill-rule="evenodd" clip-rule="evenodd" d="M36.0002 0C55.8827 0 71.9995 16.1175 71.9995 35.9993C71.9995 55.8818 55.8827 72 36.0002 72C16.1177 72 0.000976562 55.8818 0.000976562 35.9993C0.000976562 16.1175 16.1177 0 36.0002 0Z" fill="#C69C6D"/>
<path fill-rule="evenodd" clip-rule="evenodd" d="M67.8726 28.3903C67.793 28.4815 67.6956 28.5554 67.5862 28.6074C67.4769 28.6593 67.358 28.6882 67.237 28.6923C67.1161 28.6964 66.9955 28.6756 66.8829 28.6311C66.7704 28.5866 66.6681 28.5194 66.5826 28.4338C66.4253 28.2762 66.3335 28.0649 66.3257 27.8424C66.3179 27.6199 66.3947 27.4027 66.5406 27.2345C67.5176 26.1073 68.5074 24.9912 69.5098 23.8865C69.7393 24.5225 69.9471 25.1668 70.1406 25.817C69.3781 26.669 68.6221 27.5268 67.8726 28.3903ZM64.3963 41.3308C64.3691 41.3076 64.3426 41.2836 64.3168 41.2588C63.4513 40.3925 63.7828 38.471 65.2993 35.5483C66.1926 33.827 67.8298 31.1728 70.6573 27.7603C70.8313 28.4983 70.9843 29.2438 71.1126 29.9975C66.7851 35.4793 65.4118 39.1985 65.6113 40.0468C66.7288 40.904 68.8078 40.1578 71.5671 37.9895C71.5216 38.776 71.4499 39.5606 71.3518 40.3423C68.3263 42.398 66.0246 42.7235 64.3963 41.3308ZM67.6221 38.3908C67.548 38.3157 67.4838 38.2315 67.4308 38.1403C66.9696 37.34 67.2673 36.1805 70.1556 32.624C70.5316 32.162 70.9134 31.7047 71.3008 31.2523C71.4109 32.0681 71.492 32.8877 71.5438 33.7093C70.6078 34.8658 69.8256 35.9225 69.3936 36.6545C69.8638 36.3553 70.5658 35.7935 71.5926 34.7465C71.6068 35.1643 71.6248 35.579 71.6248 35.999C71.6248 36.3928 71.6083 36.7843 71.5963 37.175C70.3633 38.2535 69.6261 38.5708 69.1168 38.6855C68.3278 38.864 67.8741 38.6413 67.6221 38.3908ZM52.9033 48.6358C54.1573 48.9523 57.2991 46.8313 60.3381 44.7793C60.8991 44.4005 61.4766 44.0113 62.0691 43.6168C62.2635 43.4977 62.4965 43.4587 62.7191 43.5078C62.9417 43.5569 63.1366 43.6903 63.2629 43.8801C63.3892 44.0699 63.437 44.3012 63.3964 44.5255C63.3557 44.7498 63.2297 44.9497 63.0448 45.083C62.4576 45.4753 61.8831 45.8638 61.3251 46.2395C57.3576 48.9178 54.4911 50.8528 52.4713 50.3435C52.0575 50.2405 51.6798 50.026 51.3793 49.7233C51.1835 49.525 51.0189 49.2982 50.8911 49.0505C50.3181 47.9585 50.6571 45.9058 56.9541 38.3473C60.3268 34.2973 63.9096 30.5098 63.9448 30.4715C64.1076 30.3114 64.326 30.2207 64.5543 30.2185C64.7825 30.2162 65.0027 30.3026 65.1686 30.4595C65.3344 30.6164 65.4329 30.8315 65.4433 31.0595C65.4537 31.2875 65.3752 31.5107 65.2243 31.682C65.1906 31.7173 61.8021 35.3015 58.5351 39.2008C52.5081 46.3993 52.4361 48.0388 52.4653 48.2585C52.6146 48.5308 52.7691 48.6028 52.9033 48.6358ZM54.8736 37.493C42.4266 53.8925 34.1263 62.6308 26.4801 70.328C25.8404 70.1512 25.2059 69.9561 24.5773 69.743C32.3638 61.9205 40.7376 53.204 53.4688 36.4288C59.8018 28.0835 63.8968 23.0698 67.4661 19.2943C67.7612 19.8496 68.0413 20.4128 68.3061 20.9833C64.8748 24.6658 60.9006 29.5535 54.8736 37.493ZM46.7338 37.8013C51.8166 30.7708 57.0283 23.582 65.0383 15.3733C65.3863 15.863 65.7223 16.3625 66.0463 16.8703C58.2568 24.8923 53.1464 31.94 48.1618 38.8318C47.6654 39.5195 47.1703 40.2035 46.6746 40.8875C39.5406 50.7125 29.5798 61.2823 22.0723 68.7973C21.4962 68.5514 20.9267 68.2901 20.3646 68.0135C27.8721 60.521 38.0331 49.787 45.2481 39.8518C45.7439 39.17 46.2366 38.4853 46.7338 37.8013ZM41.6811 59.7665C47.9398 54.9343 52.9948 52.7878 57.8848 50.711C62.0856 48.9275 66.1258 47.2108 70.7406 43.8785C70.544 44.7601 70.3136 45.6337 70.0499 46.4975C66.0058 49.169 62.3526 50.7298 58.5741 52.3333C53.7876 54.3658 48.8376 56.468 42.7573 61.1615C39.0448 64.0265 35.2311 67.6228 31.6401 71.3495C30.9276 71.2633 30.2203 71.1545 29.5206 71.0255C33.4131 66.9253 37.6018 62.915 41.6811 59.7665ZM49.0468 63.5795C50.4438 62.8791 51.8433 62.1838 53.2453 61.4938C57.8946 59.1958 62.2393 57.0418 66.4581 54.4865C65.7353 55.6684 64.9445 56.8074 64.0896 57.8975C60.8533 59.6938 57.5248 61.3445 54.0261 63.0725C52.6277 63.761 51.2317 64.4543 49.8381 65.1523C46.6573 66.7505 43.5276 68.8858 40.4916 71.3323C39.4749 71.4608 38.4532 71.5464 37.4293 71.5888C41.1561 68.3885 45.0531 65.585 49.0468 63.5795ZM51.9336 24.8225C46.3251 31.3715 43.3243 35.5025 40.4226 39.4978C36.7453 44.5625 32.9406 49.7975 23.8618 59.9503C21.8583 62.1932 19.8296 64.4136 17.7763 66.611C17.2628 66.3051 16.7572 65.9863 16.2598 65.6548C18.3834 63.3869 20.4803 61.0943 22.5501 58.7773C31.5673 48.6913 35.3458 43.4923 38.9968 38.465C41.9196 34.4405 44.9413 30.2803 50.5948 23.6773C54.7708 18.8008 58.3813 14.9743 61.9048 11.5573C62.3076 11.9848 62.7013 12.4213 63.0838 12.869C59.6068 16.244 56.0458 20.0203 51.9336 24.8225ZM32.8198 39.002C29.9781 41.8423 26.5356 45.203 22.8898 48.761C18.9891 52.5673 14.7696 56.6893 10.5343 60.902C10.1226 60.4817 9.7217 60.0508 9.3321 59.6098C13.5583 55.4068 17.7666 51.2983 21.6591 47.5003C25.2996 43.9468 28.7391 40.589 31.5741 37.7578C38.7808 30.554 48.2106 19.8095 57.5698 7.65202C58.0364 8.00945 58.4946 8.3778 58.9438 8.75677C49.5396 20.969 40.0641 31.763 32.8198 39.002ZM11.6601 62.0008C19.9378 54.0208 31.8321 42.266 37.5089 35.9135C37.6675 35.7506 37.8829 35.6552 38.1102 35.6473C38.3375 35.6394 38.559 35.7196 38.7286 35.8712C38.8981 36.0228 39.0026 36.2339 39.0202 36.4607C39.0377 36.6874 38.967 36.9122 38.8228 37.088C33.0501 43.5485 21.3133 55.1465 12.9793 63.1783C12.5298 62.7969 12.0899 62.4043 11.6601 62.0008ZM16.0401 61.8515C16.2063 61.6873 16.4307 61.5956 16.6643 61.5965C16.8979 61.5973 17.1216 61.6906 17.2866 61.856C17.4512 62.022 17.5431 62.2465 17.5423 62.4802C17.5414 62.7139 17.4478 62.9377 17.2821 63.1025C17.2468 63.1378 16.5276 63.8495 15.3546 65.024C14.8714 64.6795 14.3967 64.3232 13.9311 63.9553C14.632 63.252 15.335 62.5507 16.0401 61.8515ZM20.8356 45.731C17.1118 49.4518 12.6523 53.561 7.8381 57.8075C7.47791 57.3416 7.12881 56.8672 6.7911 56.3848C11.5296 52.2013 15.9193 48.152 19.5891 44.486C33.2458 30.8368 44.0481 19.1885 54.2968 5.42902C54.8023 5.73277 55.3018 6.04777 55.7901 6.37627C45.4656 20.2565 34.5906 31.9843 20.8356 45.731ZM44.0196 15.2818C28.3821 33.6673 16.5861 45.0148 5.6451 54.65C5.33002 54.1404 5.02866 53.6225 4.74135 53.0968C15.5571 43.5545 27.2361 32.294 42.6771 14.141C45.9433 10.2988 48.6936 6.86977 51.0891 3.72652C51.6328 3.98002 52.1683 4.24552 52.6963 4.52677C50.2371 7.76452 47.4021 11.3045 44.0196 15.2818ZM33.5391 21.5698C24.4011 31.4758 13.6783 41.627 3.5451 50.687C3.28987 50.1213 3.04855 49.5493 2.82135 48.9718C12.7836 40.0498 23.2806 30.0913 32.2438 20.375C38.6878 13.391 43.5291 7.45402 47.3511 2.23177C47.9323 2.42752 48.5068 2.63602 49.0753 2.86102C45.1723 8.22727 40.2073 14.3428 33.5391 21.5698ZM36.6966 8.13127C33.2968 11.8085 26.6653 17.075 18.9606 22.2185C16.9266 23.5753 6.6246 30.3485 3.4986 30.4093C3.01185 30.4205 2.6256 30.284 2.34885 30.0095C2.3241 29.9855 2.3016 29.9593 2.27835 29.933C1.59735 29.1253 1.4886 27.6005 1.95285 25.4915C3.80685 19.4788 7.2126 14.15 11.6998 9.96052C8.49435 14.7148 6.58335 18.3088 5.45835 20.795C3.21735 25.748 3.27135 28.0018 3.5421 28.6528C4.66185 28.5965 9.20235 26.5745 17.5461 21.0425C23.5581 17.0585 31.4053 11.2588 35.4013 6.93652C37.3843 4.79302 39.0501 2.68777 40.4436 0.659773C41.0893 0.740023 41.7313 0.838273 42.3658 0.953023C40.8261 3.27877 38.9548 5.68927 36.6966 8.13127ZM11.2963 19.352C11.2242 19.4611 11.1287 19.5528 11.0168 19.6205C10.9049 19.6882 10.7793 19.7301 10.6492 19.7433C10.5191 19.7565 10.3876 19.7407 10.2644 19.6968C10.1412 19.653 10.0292 19.5824 9.9366 19.49C9.79282 19.3471 9.70309 19.1586 9.68271 18.9569C9.66234 18.7552 9.71257 18.5526 9.82485 18.3838C9.8721 18.3103 14.3931 11.468 19.9603 4.19077C21.0727 3.62836 22.2138 3.12467 23.3788 2.68177C18.4603 8.88727 13.8193 15.5263 11.2963 19.352ZM0.629848 40.2028C0.547982 39.5122 0.485957 38.8194 0.443848 38.1253C8.12385 32.2738 15.5541 27.9275 15.6576 27.8675C15.7576 27.8049 15.8692 27.7631 15.9857 27.7445C16.1022 27.7259 16.2213 27.7309 16.3358 27.7591C16.4503 27.7874 16.558 27.8385 16.6525 27.9092C16.7469 27.9799 16.8261 28.0689 16.8855 28.1709C16.9449 28.2728 16.9832 28.3857 16.9981 28.5027C17.013 28.6197 17.0042 28.7386 16.9723 28.8521C16.9404 28.9657 16.886 29.0717 16.8123 29.1639C16.7386 29.256 16.6471 29.3324 16.5433 29.3885C16.4383 29.4523 8.50935 34.0903 0.629848 40.2028ZM32.3113 15.1655C32.472 15.0034 32.6892 14.9099 32.9174 14.9046C33.1455 14.8994 33.3669 14.9827 33.5348 15.1372C33.7028 15.2917 33.8044 15.5053 33.8182 15.7331C33.832 15.9609 33.7569 16.1851 33.6088 16.3588C32.8626 17.171 15.1738 36.3553 3.99285 44.0098C3.22041 44.5426 2.45948 45.092 1.7106 45.6575C1.53856 45.0453 1.38275 44.4285 1.24335 43.808C1.82094 43.3814 2.40552 42.9644 2.99685 42.557C14.0136 35.0158 32.1313 15.3643 32.3113 15.1655ZM23.9121 12.8795C23.1081 13.1255 22.6423 12.8795 22.3933 12.6305C22.0041 12.2405 21.8668 11.6803 21.9831 10.9625C22.3183 8.89252 25.1691 4.69627 27.9741 1.29277C28.8891 1.08048 29.8121 0.903848 30.7408 0.763273C29.6966 1.93777 28.6993 3.15322 27.7513 4.40677C25.1256 7.87027 23.9953 10.0963 23.7508 11.0548C24.9636 10.4653 27.9741 8.27077 31.9836 4.15777C33.1687 2.94433 34.3082 1.68721 35.3998 0.389023C35.6001 0.386773 35.7981 0.374023 35.9998 0.374023C36.5571 0.374023 37.1098 0.389773 37.6603 0.415273C32.8829 6.41902 26.2483 12.1648 23.9121 12.8795Z" fill="#BC9161"/>
<path d="M58.5 58.499H16.5C14.8425 58.499 13.5 57.1565 13.5 55.499V28.5005C13.5 27.9478 13.6478 27.431 13.908 26.9863C14.4285 26.0975 15.3938 27.749 16.5 27.749H58.5C60.1568 27.749 61.4993 26.843 61.4993 28.5005V55.499C61.4993 57.1565 60.1568 58.499 58.5 58.499ZM13.5 30.7498V28.5005C13.4998 28.1064 13.5773 27.7162 13.7279 27.352C13.8786 26.9879 14.0996 26.657 14.3781 26.3782C14.6567 26.0995 14.9875 25.8784 15.3516 25.7275C15.7157 25.5767 16.1059 25.499 16.5 25.499H58.5C58.894 25.4991 59.2842 25.5768 59.6482 25.7277C60.0122 25.8786 60.3429 26.0998 60.6214 26.3785C60.8999 26.6572 61.1208 26.9881 61.2714 27.3522C61.422 27.7163 61.4995 28.1065 61.4993 28.5005V30.7498H13.5ZM54.0008 41.2498H21.0008C20.8037 41.2499 20.6085 41.2111 20.4264 41.1358C20.2443 41.0605 20.0788 40.95 19.9393 40.8107C19.7999 40.6715 19.6893 40.5061 19.6138 40.324C19.5383 40.142 19.4993 39.9469 19.4993 39.7498V18.0005C19.4993 17.171 20.1713 16.499 21.0008 16.499H54.0008C54.1978 16.4991 54.3929 16.538 54.5749 16.6136C54.7569 16.6891 54.9222 16.7997 55.0615 16.9392C55.2007 17.0786 55.3111 17.2441 55.3863 17.4262C55.4616 17.6083 55.5002 17.8035 55.5 18.0005V39.7498C55.5 40.1475 55.3421 40.5289 55.0609 40.8102C54.7798 41.0915 54.3984 41.2496 54.0008 41.2498Z" fill="#A67C52"/>
<path d="M59.9993 26.9995C59.9981 26.5401 59.891 26.0872 59.6862 25.676C59.4815 25.2648 59.1846 24.9064 58.8188 24.6287V24.6055L40.4093 10.4807C37.7453 8.4662 34.1483 8.5547 31.6043 10.4695L13.1805 24.6062V24.6295C12.8146 24.907 12.5178 25.2653 12.313 25.6764C12.1083 26.0874 12.0011 26.5402 12 26.9995V29.2502H15.1433L32.5328 40.8977L32.559 40.882L39.4733 40.9015L56.8582 29.2502H59.9993V26.9995Z" fill="#C0392B"/>
<path fill-rule="evenodd" clip-rule="evenodd" d="M19.4993 14.999H52.5007C52.8986 14.999 53.2801 15.1571 53.5614 15.4384C53.8427 15.7197 54.0007 16.1012 54.0007 16.499V38.2505C54.0005 38.6482 53.8424 39.0296 53.5611 39.3107C53.2799 39.5918 52.8984 39.7498 52.5007 39.7498H19.4993C19.1017 39.7496 18.7205 39.5916 18.4393 39.3104C18.1582 39.0293 18.0002 38.6481 18 38.2505V16.499C18 15.6718 18.672 14.999 19.4993 14.999Z" fill="white"/>
<path fill-rule="evenodd" clip-rule="evenodd" d="M12 53.9999V26.9991C12 26.8919 12.0308 26.7959 12.042 26.6924L35.0798 41.3999V42.6006L13.3245 56.4891C12.9162 56.215 12.5817 55.8445 12.3507 55.4103C12.1197 54.9761 11.9992 54.4917 12 53.9999Z" fill="#D7D7D7"/>
<path fill-rule="evenodd" clip-rule="evenodd" d="M57.0002 57H15.0002C14.5925 56.9997 14.1892 56.9159 13.8151 56.7537C13.4411 56.5916 13.1042 56.3546 12.8252 56.0572L35.0807 41.8507L36.9197 41.4L59.9679 26.6858C59.9784 26.79 59.9994 26.892 59.9994 26.9993V54C59.9994 54.7955 59.6835 55.5585 59.121 56.1211C58.5586 56.6836 57.7957 56.9998 57.0002 57ZM23.2502 30H47.2502C47.4491 30 47.6399 30.079 47.7805 30.2197C47.9212 30.3603 48.0002 30.5511 48.0002 30.75C48.0002 30.9489 47.9212 31.1397 47.7805 31.2803C47.6399 31.421 47.4491 31.5 47.2502 31.5H23.2502C23.0571 31.4914 22.8747 31.4086 22.7412 31.2689C22.6076 31.1292 22.533 30.9433 22.533 30.75C22.533 30.5567 22.6076 30.3708 22.7412 30.2311C22.8747 30.0914 23.0571 30.0086 23.2502 30ZM48.7502 26.9993H23.2502C23.0513 26.9993 22.8605 26.9202 22.7199 26.7796C22.5792 26.6389 22.5002 26.4482 22.5002 26.2493C22.5002 26.0503 22.5792 25.8596 22.7199 25.7189C22.8605 25.5783 23.0513 25.4993 23.2502 25.4993H48.7502C48.9491 25.4993 49.1399 25.5783 49.2805 25.7189C49.4212 25.8596 49.5002 26.0503 49.5002 26.2493C49.5002 26.4482 49.4212 26.6389 49.2805 26.7796C49.1399 26.9202 48.9491 26.9993 48.7502 26.9993ZM36.7502 22.5H23.2502C23.0571 22.4914 22.8747 22.4086 22.7412 22.2689C22.6076 22.1292 22.533 21.9433 22.533 21.75C22.533 21.5567 22.6076 21.3708 22.7412 21.2311C22.8747 21.0914 23.0571 21.0086 23.2502 21H36.7502C36.9491 21 37.1399 21.079 37.2805 21.2197C37.4212 21.3603 37.5002 21.5511 37.5002 21.75C37.5002 21.9489 37.4212 22.1397 37.2805 22.2803C37.1399 22.421 36.9491 22.5 36.7502 22.5Z" fill="#BEC3C7"/>
<path fill-rule="evenodd" clip-rule="evenodd" d="M36.75 48.5002C36.1785 48.8422 35.4413 48.7935 34.95 48.2985L32.8478 46.1812L32.8463 46.1797L29.6955 43.0049C28.9287 42.2301 28.4985 41.184 28.4985 40.0938C28.4985 39.0037 28.9287 37.9575 29.6955 37.1827C30.0734 36.8004 30.5233 36.497 31.0193 36.2898C31.5153 36.0827 32.0474 35.9761 32.5849 35.9761C33.1224 35.9761 33.6545 36.0827 34.1505 36.2898C34.6465 36.497 35.0964 36.8004 35.4743 37.1827L36 37.7129L36.525 37.1827C36.5955 37.1122 36.6765 37.062 36.75 36.9982V48.5002Z" fill="#E74C3C"/>
<path fill-rule="evenodd" clip-rule="evenodd" d="M42.3045 43.005L39.1538 46.1798L39.1522 46.1813L37.0508 48.2985C36.9134 48.4375 36.7497 48.5478 36.5693 48.623C36.389 48.6982 36.1954 48.7368 36 48.7365V37.713L36.525 37.1828C36.9029 36.8005 37.3529 36.497 37.849 36.2899C38.345 36.0827 38.8772 35.9761 39.4148 35.9761C39.9523 35.9761 40.4845 36.0827 40.9805 36.2899C41.4766 36.497 41.9266 36.8005 42.3045 37.1828C43.0713 37.9576 43.5015 39.0037 43.5015 40.0939C43.5015 41.184 43.0713 42.2302 42.3045 43.005Z" fill="#C0392B"/>
</g>
<defs>
<clipPath id="clip0_1325_24864">
<rect width="72" height="72" fill="white"/>
</clipPath>
</defs>
</svg>
