<svg width="397" height="264" viewBox="0 0 397 264" fill="none" xmlns="http://www.w3.org/2000/svg">
<g clip-path="url(#clip0_2386_27589)">
<path d="M142.404 151.935C156.01 127.986 181.962 109.598 209.435 111.369C189.17 133.42 177.353 161.933 176.075 191.862C175.624 203.407 176.323 216.294 168.663 224.938C163.897 230.317 156.611 232.922 149.448 233.468C142.285 234.014 135.123 232.719 128.055 231.43L126.341 231.956C125.688 204.417 128.799 175.883 142.404 151.935Z" fill="#F0F0F0"/>
<path d="M209.476 111.946C189.16 121.732 171.837 138.076 161.203 158.008C158.904 162.318 156.947 166.89 156.093 171.723C155.239 176.559 155.835 181.163 157.486 185.756C158.995 189.955 161.025 194.075 161.487 198.568C161.975 203.304 160.234 207.732 157.099 211.247C153.264 215.547 148.113 218.211 142.986 220.642C137.293 223.34 131.337 226.053 127.304 231.09C126.816 231.7 125.898 230.906 126.386 230.296C133.401 221.533 145.41 219.886 153.737 212.827C157.623 209.533 160.54 205.048 160.356 199.792C160.195 195.196 158.106 190.945 156.541 186.707C154.898 182.257 154.079 177.782 154.668 173.037C155.271 168.183 157.054 163.525 159.233 159.176C164.146 149.367 170.871 140.362 178.575 132.578C187.428 123.63 197.747 116.263 209.083 110.797C209.784 110.459 210.173 111.61 209.476 111.946Z" fill="white"/>
<path d="M164.317 151.347C161.203 149.069 158.999 145.756 158.1 142.002C157.201 138.248 157.665 134.296 159.409 130.852C159.764 130.156 160.861 130.676 160.505 131.373C158.875 134.576 158.444 138.258 159.288 141.752C160.133 145.246 162.197 148.323 165.11 150.428C165.743 150.886 164.946 151.803 164.317 151.347Z" fill="white"/>
<path d="M156.44 183.728C164.244 182.587 171.332 178.544 176.289 172.407C176.78 171.798 177.698 172.592 177.208 173.2C172.037 179.578 164.653 183.769 156.529 184.939C155.754 185.05 155.67 183.838 156.44 183.728Z" fill="white"/>
<path d="M188.027 125.124C189.049 126.257 190.335 127.118 191.772 127.631C193.208 128.143 194.749 128.29 196.257 128.059C197.029 127.939 197.113 129.15 196.345 129.27C194.679 129.518 192.977 129.353 191.389 128.79C189.801 128.228 188.374 127.284 187.235 126.043C187.117 125.935 187.046 125.786 187.034 125.627C187.022 125.468 187.072 125.311 187.172 125.187C187.277 125.066 187.426 124.991 187.587 124.979C187.747 124.967 187.905 125.019 188.027 125.124Z" fill="white"/>
<path d="M264.097 186.917C263.616 187.006 263.136 187.095 262.651 187.194C256.201 188.425 249.86 190.179 243.693 192.437C243.214 192.604 242.73 192.781 242.256 192.962C227.457 198.562 213.825 206.863 202.053 217.443C197.373 221.657 193.02 226.222 189.032 231.097C183.524 237.83 178.088 245.569 170.892 249.959C170.146 250.425 169.372 250.845 168.574 251.216L127.116 234.008C127.041 233.922 126.962 233.845 126.887 233.758L125.2 233.147C125.388 232.881 125.589 232.609 125.777 232.344C125.886 232.189 126.004 232.038 126.112 231.883C126.187 231.782 126.263 231.68 126.325 231.584C126.35 231.55 126.375 231.516 126.396 231.491C126.459 231.395 126.526 231.312 126.585 231.225C127.703 229.704 128.834 228.188 129.978 226.677C129.982 226.667 129.982 226.667 129.995 226.661C138.739 215.17 148.518 204.309 159.634 195.277C159.968 195.006 160.306 194.725 160.66 194.461C165.693 190.418 171.048 186.793 176.671 183.623C179.756 181.897 182.926 180.329 186.169 178.924C194.556 175.309 203.459 173.037 212.552 172.191C230.678 170.506 249.141 174.642 263.043 186.036C263.398 186.328 263.745 186.616 264.097 186.917Z" fill="#F0F0F0"/>
<path d="M263.785 187.405C241.676 182.979 218.01 185.593 197.526 195.102C193.098 197.158 188.784 199.629 185.194 202.974C181.602 206.32 179.309 210.355 177.863 215.017C176.542 219.279 175.683 223.792 173.349 227.658C170.889 231.733 166.834 234.219 162.217 235.137C156.567 236.26 150.851 235.284 145.295 234.136C139.126 232.861 132.738 231.439 126.488 233.031C125.731 233.224 125.476 232.037 126.232 231.844C137.106 229.074 147.685 234.993 158.582 234.374C163.666 234.085 168.694 232.261 171.71 227.954C174.346 224.187 175.236 219.534 176.537 215.207C177.903 210.664 179.941 206.598 183.266 203.164C186.668 199.652 190.894 197.007 195.251 194.847C205.076 189.976 215.864 186.837 226.698 185.262C239.151 183.452 251.822 183.786 264.162 186.251C264.926 186.404 264.544 187.557 263.785 187.405Z" fill="white"/>
<path d="M204.022 191.659C202.906 187.964 203.14 183.992 204.681 180.452C206.222 176.913 208.97 174.037 212.435 172.338C213.137 171.997 213.7 173.073 212.997 173.414C209.768 174.99 207.208 177.67 205.78 180.968C204.352 184.267 204.149 187.968 205.208 191.403C205.437 192.15 204.25 192.402 204.022 191.659Z" fill="white"/>
<path d="M178.249 212.768C185.167 216.558 193.258 217.601 200.91 215.687C201.668 215.497 201.923 216.684 201.166 216.874C193.2 218.85 184.782 217.749 177.592 213.788C176.907 213.41 177.568 212.392 178.249 212.768Z" fill="white"/>
<path d="M238.731 185.006C238.865 186.526 239.374 187.989 240.213 189.263C241.051 190.537 242.193 191.584 243.536 192.307C244.225 192.676 243.563 193.694 242.878 193.328C241.398 192.521 240.139 191.364 239.209 189.958C238.28 188.552 237.709 186.94 237.545 185.262C237.517 185.105 237.549 184.943 237.635 184.809C237.722 184.675 237.856 184.579 238.01 184.54C238.168 184.507 238.331 184.538 238.466 184.625C238.602 184.712 238.697 184.849 238.731 185.006Z" fill="white"/>
<path d="M185.12 215.306C179.314 187.214 172.056 177.848 172.056 177.848L169.284 175.697L165.949 173.105L165.965 172.772L165.175 172.503L164.989 172.359L164.684 172.125L164.635 172.177L164.532 172.285L149.444 167.153L130.302 160.646L121.438 149.118C119.994 147.24 118.136 145.723 116.008 144.684C113.88 143.646 111.541 143.114 109.173 143.132L80.8646 143.341C77.0369 143.37 73.3583 144.83 70.5519 147.435L51.9451 164.705L22.9521 178.56L22.9032 178.511L22.5987 178.729L18.119 180.872L18.3039 181.835L15.5312 183.837C15.5312 183.837 8.27348 192.552 2.46725 218.691C0.990216 225.341 0.263164 239.609 0.000737474 257.19C-0.0124442 258.079 0.1512 258.962 0.482151 259.788C0.813102 260.613 1.30476 261.365 1.92854 261.998C2.55231 262.632 3.29576 263.135 4.11565 263.479C4.93555 263.823 5.81553 264 6.70443 264H161.562L180.89 264C181.778 263.999 182.658 263.822 183.477 263.479C184.296 263.136 185.04 262.633 185.663 262C186.287 261.368 186.779 260.617 187.11 259.792C187.441 258.968 187.606 258.085 187.594 257.197C187.338 238.066 186.611 222.519 185.12 215.306Z" fill="#3F3D56"/>
<path d="M204.989 24.498C198.964 24.498 193.186 26.8929 188.926 31.1558C184.666 35.4187 182.272 41.2004 182.272 47.2291C182.272 53.2577 184.666 59.0395 188.926 63.3024C193.186 67.5653 198.964 69.9601 204.989 69.9601H374.283C380.308 69.9601 386.086 67.5653 390.346 63.3024C394.607 59.0395 397 53.2577 397 47.2291C397 41.2004 394.607 35.4187 390.346 31.1558C386.086 26.8929 380.308 24.498 374.283 24.498H204.989Z" fill="#E5E5E5"/>
<path d="M204.989 29.0986C200.184 29.0986 195.575 31.0088 192.177 34.409C188.779 37.8092 186.87 42.4208 186.87 47.2294C186.87 52.0379 188.779 56.6495 192.177 60.0497C195.575 63.4499 200.184 65.3601 204.989 65.3601H374.283C379.089 65.3601 383.698 63.4499 387.096 60.0497C390.494 56.6495 392.403 52.0379 392.403 47.2294C392.403 42.4208 390.494 37.8092 387.096 34.409C383.698 31.0088 379.089 29.0986 374.283 29.0986H204.989Z" fill="white"/>
<path d="M99.465 132.49C119.948 132.49 136.552 115.875 136.552 95.3799C136.552 74.8844 119.948 58.2695 99.465 58.2695C78.9824 58.2695 62.3779 74.8844 62.3779 95.3799C62.3779 115.875 78.9824 132.49 99.465 132.49Z" fill="#9E616A"/>
<path d="M89.9769 130.673C89.8185 130.324 89.6605 129.974 89.5029 129.622C89.5637 129.624 89.6238 129.633 89.6845 129.634L89.9769 130.673Z" fill="#2F2E41"/>
<path d="M61.3458 59.957C63.2215 58.4598 65.4138 57.0821 67.8121 57.1595C70.2103 57.2369 72.6422 59.4043 72.1454 61.7532C76.5504 53.9488 83.5619 47.9464 91.9491 44.7994C100.336 41.6524 109.563 41.5621 118.01 44.5442C123.971 46.6485 129.816 50.8582 131.185 57.0326C131.537 58.6176 131.612 60.3555 132.601 61.6426C133.848 63.2653 136.234 63.6324 138.199 63.0616C138.218 63.0559 138.238 63.0501 138.258 63.0442C138.59 62.9308 138.948 62.9197 139.286 63.0122C139.624 63.1048 139.927 63.2968 140.155 63.5634C140.383 63.83 140.526 64.1589 140.565 64.5076C140.604 64.8563 140.538 65.2088 140.375 65.5194L138.688 68.6668C140.814 69.141 143.023 69.0939 145.127 68.5297C145.477 68.438 145.846 68.4567 146.185 68.5833C146.523 68.7099 146.814 68.9382 147.018 69.2369C147.221 69.5355 147.328 69.8899 147.322 70.2514C147.317 70.6129 147.199 70.9638 146.987 71.256C141.425 78.8959 132.135 83.8294 122.654 83.7714C115.915 83.7303 109.107 81.4064 102.549 82.957C100.012 83.5568 97.6412 84.7175 95.6108 86.3537C93.5805 87.9899 91.942 90.0602 90.8155 92.4127C89.6891 94.7652 89.1033 97.3402 89.1012 99.9488C89.099 102.557 89.6805 105.133 90.8031 107.488C88.7884 105.283 84.8938 105.805 82.8329 107.967C80.7721 110.129 80.2386 113.356 80.4462 116.336C80.7638 120.895 82.5487 125.19 84.4304 129.371C68.654 128.874 53.7321 117.8 48.7093 102.822C43.6655 87.7818 48.9516 69.8505 61.3458 59.957Z" fill="#2F2E41"/>
<path opacity="0.2" d="M36.5029 206.825L46.905 263.456L53.1465 264L36.5029 206.825Z" fill="black"/>
<path opacity="0.2" d="M151.084 202.554L140.682 263.415L134.44 264L151.084 202.554Z" fill="black"/>
<path d="M70.2182 40.8979C68.2237 41.7312 66.1426 40.8179 65.2698 38.7264C64.3837 36.603 65.2113 34.4473 67.2377 33.6007C69.2643 32.7539 71.3084 33.6694 72.2088 35.8271C73.0957 37.9525 72.2771 40.0376 70.2182 40.8979ZM66.3976 29.421L64.8118 30.0836C64.4156 30.2471 63.9726 30.256 63.5702 30.1083C63.1679 29.9606 62.8356 29.6672 62.639 29.2861L62.5606 29.1326C60.8543 26.0534 60.6589 22.311 61.983 18.0153C63.2096 14.1619 63.7191 11.4518 62.6945 8.99655C61.5099 6.15785 58.9803 5.26863 55.7546 6.55677C54.5035 7.07951 54.1054 7.07118 53.1208 8.04848C52.9067 8.26366 52.6514 8.43347 52.3702 8.5478C52.0891 8.66213 51.7878 8.71863 51.4843 8.71393C51.1909 8.71047 50.9013 8.64794 50.6326 8.53006C50.3639 8.41218 50.1217 8.24135 49.9204 8.02779C49.5326 7.61622 49.3154 7.07273 49.3125 6.50709C49.3097 5.94144 49.5214 5.39579 49.9051 4.98032C51.5599 3.2469 53.5559 1.87555 55.7671 0.952795C62.6978 -1.94306 66.1868 2.33226 67.7834 6.15827C69.3451 9.90054 68.4666 13.3727 67.0551 17.8696C65.8723 21.6062 65.9412 24.375 67.2848 27.128C67.3818 27.3361 67.4358 27.5617 67.4435 27.7913C67.4512 28.0208 67.4124 28.2495 67.3296 28.4637C67.2467 28.6778 67.1214 28.873 66.9613 29.0375C66.8012 29.202 66.6094 29.3325 66.3976 29.421Z" fill="#6C63FF"/>
<path d="M242.384 58.0704H208.701C208.594 58.0712 208.488 58.0507 208.388 58.0102C208.289 57.9698 208.199 57.9101 208.123 57.8346C208.047 57.7592 207.987 57.6694 207.946 57.5706C207.905 57.4717 207.884 57.3657 207.884 57.2586C207.884 57.1515 207.905 57.0455 207.946 56.9467C207.987 56.8478 208.047 56.7581 208.123 56.6826C208.199 56.6072 208.289 56.5475 208.388 56.507C208.488 56.4665 208.594 56.4461 208.701 56.4468H242.384C242.598 56.4483 242.803 56.5344 242.954 56.6865C243.105 56.8386 243.19 57.0443 243.19 57.2586C243.19 57.473 243.105 57.6786 242.954 57.8307C242.803 57.9828 242.598 58.069 242.384 58.0704Z" fill="#6C63FF"/>
<path d="M285.113 58.341H251.43C251.323 58.3417 251.217 58.3212 251.118 58.2808C251.019 58.2403 250.929 58.1806 250.853 58.1051C250.777 58.0297 250.717 57.9399 250.676 57.8411C250.634 57.7422 250.613 57.6362 250.613 57.5291C250.613 57.4221 250.634 57.316 250.676 57.2172C250.717 57.1183 250.777 57.0286 250.853 56.9531C250.929 56.8777 251.019 56.818 251.118 56.7775C251.217 56.737 251.323 56.7166 251.43 56.7173H285.113C285.22 56.7166 285.326 56.737 285.426 56.7775C285.525 56.818 285.615 56.8777 285.691 56.9531C285.767 57.0286 285.827 57.1183 285.868 57.2172C285.909 57.316 285.93 57.4221 285.93 57.5291C285.93 57.6362 285.909 57.7422 285.868 57.8411C285.827 57.9399 285.767 58.0297 285.691 58.1051C285.615 58.1806 285.525 58.2403 285.426 58.2808C285.326 58.3212 285.22 58.3417 285.113 58.341Z" fill="#6C63FF"/>
<path d="M327.843 58.6115H294.159C293.945 58.61 293.74 58.5238 293.589 58.3717C293.438 58.2196 293.354 58.014 293.354 57.7996C293.354 57.5853 293.438 57.3796 293.589 57.2275C293.74 57.0754 293.945 56.9893 294.159 56.9878H327.843C327.95 56.9871 328.056 57.0075 328.155 57.048C328.254 57.0885 328.344 57.1482 328.42 57.2236C328.496 57.2991 328.556 57.3888 328.597 57.4877C328.638 57.5865 328.659 57.6926 328.659 57.7996C328.659 57.9067 328.638 58.0127 328.597 58.1116C328.556 58.2104 328.496 58.3002 328.42 58.3756C328.344 58.4511 328.254 58.5108 328.155 58.5513C328.056 58.5917 327.95 58.6122 327.843 58.6115Z" fill="#6C63FF"/>
<path d="M370.572 58.8824H336.889C336.675 58.881 336.47 58.7948 336.319 58.6427C336.168 58.4906 336.083 58.285 336.083 58.0706C336.083 57.8562 336.168 57.6506 336.319 57.4985C336.47 57.3464 336.675 57.2602 336.889 57.2588H370.572C370.786 57.2602 370.991 57.3464 371.142 57.4985C371.293 57.6506 371.378 57.8562 371.378 58.0706C371.378 58.285 371.293 58.4906 371.142 58.6427C370.991 58.7948 370.786 58.881 370.572 58.8824Z" fill="#6C63FF"/>
<path d="M225.468 50.5992C228.926 50.5992 231.729 47.7946 231.729 44.335C231.729 40.8754 228.926 38.0708 225.468 38.0708C222.011 38.0708 219.208 40.8754 219.208 44.335C219.208 47.7946 222.011 50.5992 225.468 50.5992Z" fill="#6C63FF"/>
<path d="M268.456 50.5992C271.913 50.5992 274.716 47.7946 274.716 44.335C274.716 40.8754 271.913 38.0708 268.456 38.0708C264.998 38.0708 262.195 40.8754 262.195 44.335C262.195 47.7946 264.998 50.5992 268.456 50.5992Z" fill="#6C63FF"/>
<path d="M311.443 50.5992C314.9 50.5992 317.703 47.7946 317.703 44.335C317.703 40.8754 314.9 38.0708 311.443 38.0708C307.985 38.0708 305.183 40.8754 305.183 44.335C305.183 47.7946 307.985 50.5992 311.443 50.5992Z" fill="#6C63FF"/>
<path d="M354.43 50.5992C357.888 50.5992 360.69 47.7946 360.69 44.335C360.69 40.8754 357.888 38.0708 354.43 38.0708C350.973 38.0708 348.17 40.8754 348.17 44.335C348.17 47.7946 350.973 50.5992 354.43 50.5992Z" fill="#6C63FF"/>
</g>
<defs>
<clipPath id="clip0_2386_27589">
<rect width="397" height="264" fill="white"/>
</clipPath>
</defs>
</svg>
