<svg width="259" height="262" viewBox="0 0 259 262" fill="none" xmlns="http://www.w3.org/2000/svg">
<g clip-path="url(#clip0_2386_27643)">
<path d="M256.937 258.754C256.484 259.385 256.027 260.011 255.575 260.633C254.274 261.526 252.731 262.003 251.152 262H7.84871C6.33976 262.001 4.86281 261.566 3.59668 260.748C3.17648 260.195 2.76102 259.638 2.34082 259.081L2.76102 258.851L125.931 190.76C127.024 190.157 128.252 189.84 129.501 189.838C130.75 189.837 131.979 190.151 133.074 190.751L256.521 258.524L256.937 258.754Z" fill="#6C63FF"/>
<path d="M251.152 115.578L144.404 54.0948C139.914 51.5088 134.821 50.1461 129.636 50.1436C124.452 50.141 119.357 51.4987 114.865 54.0802L7.84848 115.578C5.76784 115.581 3.77326 116.407 2.30202 117.874C0.830785 119.342 0.00294336 121.331 0 123.406V254.173C0.00242418 256.248 0.830095 258.237 2.30145 259.705C3.7728 261.172 5.76768 261.998 7.84848 262H251.152C253.232 261.997 255.226 261.171 256.697 259.704C258.168 258.236 258.996 256.248 259 254.173V123.406C258.997 121.331 258.169 119.342 256.698 117.874C255.227 116.407 253.232 115.581 251.152 115.578ZM258.077 254.173C258.072 256.003 257.341 257.757 256.043 259.051C254.746 260.346 252.987 261.075 251.152 261.079H7.84848C6.01284 261.076 4.25333 260.347 2.95533 259.053C1.65733 257.758 0.926654 256.003 0.923351 254.173V123.406C0.925585 121.575 1.65591 119.819 2.95414 118.525C4.25237 117.23 6.01251 116.501 7.84848 116.499L114.865 55.0011C119.357 52.4196 124.452 51.0619 129.636 51.0645C134.821 51.067 139.914 52.4297 144.404 55.0156L251.152 116.499C252.987 116.501 254.748 117.23 256.046 118.525C257.344 119.819 258.074 121.575 258.077 123.406V254.173Z" fill="#3F3D56"/>
<path d="M129.638 189.562C128.834 189.565 128.035 189.432 127.276 189.167L127.137 189.118L127.108 188.808C127.021 188.851 126.933 188.892 126.846 188.931L126.753 188.971L126.66 188.93C126.465 188.845 126.272 188.749 126.086 188.644L41.0889 141.009V43.7482C41.0914 41.4898 41.9921 39.3247 43.5933 37.7277C45.1945 36.1308 47.3654 35.2325 49.6299 35.23H209.37C211.634 35.2325 213.805 36.1308 215.406 37.7277C217.007 39.3247 217.908 41.4898 217.911 43.7482V141.134L217.793 141.2L133.191 188.644C132.105 189.248 130.882 189.564 129.638 189.562Z" fill="white"/>
<path d="M129.639 189.793C128.808 189.796 127.984 189.658 127.2 189.385L126.92 189.286L126.908 189.155L126.753 189.223L126.567 189.142C126.366 189.053 126.166 188.953 125.973 188.845L40.8584 141.145V43.7485C40.861 41.429 41.786 39.2054 43.4305 37.5653C45.075 35.9252 47.3046 35.0026 49.6302 35H209.37C211.696 35.0026 213.925 35.9252 215.57 37.5653C217.214 39.2054 218.139 41.429 218.142 43.7485V141.269L133.304 188.845C132.184 189.468 130.922 189.795 129.639 189.793ZM127.786 188.606C129.483 189.093 131.304 188.89 132.852 188.042L217.218 140.73V43.7485C217.216 41.6732 216.388 39.6836 214.917 38.2161C213.446 36.7487 211.451 35.9232 209.37 35.9209H49.6302C47.5494 35.9232 45.5545 36.7487 44.0831 38.2161C42.6117 39.6836 41.7841 41.6732 41.7817 43.7485V140.605L47.3171 143.706L126.425 188.042C126.533 188.103 126.642 188.16 126.753 188.213C126.864 188.16 126.973 188.103 127.081 188.043L127.702 187.693L127.786 188.606Z" fill="#3F3D56"/>
<path d="M256.955 118.976L223.451 137.762L217.68 140.999L133.078 188.444C132.027 189.028 130.842 189.334 129.638 189.332C128.861 189.335 128.088 189.205 127.353 188.95C127.149 188.885 126.948 188.808 126.753 188.72C126.564 188.637 126.379 188.545 126.199 188.444L47.0909 144.107L41.3199 140.875L2.11449 118.902C2.00789 118.841 1.92969 118.741 1.89686 118.623C1.86402 118.505 1.8792 118.379 1.93911 118.272C1.99918 118.165 2.09903 118.087 2.21674 118.055C2.33444 118.022 2.46038 118.037 2.56693 118.097L41.3199 139.816L47.0909 143.048L126.651 187.638C126.915 187.786 127.19 187.913 127.473 188.02C127.593 188.066 127.718 188.107 127.843 188.144C128.633 188.386 129.464 188.466 130.286 188.379C131.108 188.292 131.904 188.04 132.626 187.638L217.68 139.945L223.451 136.708L256.502 118.175C256.555 118.145 256.613 118.126 256.673 118.119C256.733 118.112 256.794 118.116 256.853 118.133C256.911 118.149 256.965 118.176 257.013 118.214C257.061 118.251 257.1 118.297 257.13 118.35C257.16 118.402 257.179 118.46 257.186 118.52C257.193 118.58 257.189 118.641 257.172 118.699C257.156 118.757 257.129 118.812 257.091 118.859C257.054 118.907 257.007 118.946 256.955 118.976Z" fill="#3F3D56"/>
<path d="M75.7492 65.3896H62.8223C61.8428 65.3896 60.9033 65.0015 60.2107 64.3107C59.518 63.6199 59.1289 62.683 59.1289 61.706C59.1289 60.7291 59.518 59.7922 60.2107 59.1014C60.9033 58.4105 61.8428 58.0225 62.8223 58.0225H75.7492C76.7288 58.0225 77.6682 58.4105 78.3609 59.1014C79.0535 59.7922 79.4426 60.7291 79.4426 61.706C79.4426 62.683 79.0535 63.6199 78.3609 64.3107C77.6682 65.0015 76.7288 65.3896 75.7492 65.3896Z" fill="#6C63FF"/>
<path d="M90.9845 77.8217H62.8223C61.8428 77.8217 60.9033 77.4336 60.2107 76.7428C59.518 76.052 59.1289 75.1151 59.1289 74.1382C59.1289 73.1612 59.518 72.2243 60.2107 71.5335C60.9033 70.8427 61.8428 70.4546 62.8223 70.4546H90.9845C91.9641 70.4546 92.9035 70.8427 93.5961 71.5335C94.2888 72.2243 94.6779 73.1612 94.6779 74.1382C94.6779 75.1151 94.2888 76.052 93.5961 76.7428C92.9035 77.4336 91.9641 77.8217 90.9845 77.8217Z" fill="#E6E6E6"/>
<path d="M169.666 110.974H89.7959C88.8164 110.974 87.877 110.585 87.1843 109.895C86.4917 109.204 86.1025 108.267 86.1025 107.29C86.1025 106.313 86.4917 105.376 87.1843 104.685C87.877 103.995 88.8164 103.606 89.7959 103.606H169.666C170.645 103.606 171.585 103.995 172.277 104.685C172.97 105.376 173.359 106.313 173.359 107.29C173.359 108.267 172.97 109.204 172.277 109.895C171.585 110.585 170.645 110.974 169.666 110.974Z" fill="#6C63FF"/>
<path d="M177.052 125.248H81.9473C80.9678 125.248 80.0283 124.859 79.3357 124.169C78.643 123.478 78.2539 122.541 78.2539 121.564C78.2539 120.587 78.643 119.65 79.3357 118.959C80.0283 118.268 80.9678 117.88 81.9473 117.88H177.052C178.032 117.88 178.971 118.268 179.664 118.959C180.357 119.65 180.746 120.587 180.746 121.564C180.746 122.541 180.357 123.478 179.664 124.169C178.971 124.859 178.032 125.248 177.052 125.248Z" fill="#E6E6E6"/>
<path d="M177.052 139.061H81.9473C80.9678 139.061 80.0283 138.673 79.3357 137.982C78.643 137.291 78.2539 136.354 78.2539 135.377C78.2539 134.4 78.643 133.464 79.3357 132.773C80.0283 132.082 80.9678 131.694 81.9473 131.694H177.052C178.032 131.694 178.971 132.082 179.664 132.773C180.357 133.464 180.746 134.4 180.746 135.377C180.746 136.354 180.357 137.291 179.664 137.982C178.971 138.673 178.032 139.061 177.052 139.061Z" fill="#E6E6E6"/>
<path d="M217.5 77C238.763 77 256 59.763 256 38.5C256 17.237 238.763 0 217.5 0C196.237 0 179 17.237 179 38.5C179 59.763 196.237 77 217.5 77Z" fill="#6C63FF"/>
<path d="M227.857 35.6067V28.4175C227.858 27.0498 227.591 25.6953 227.071 24.4315C226.551 23.1676 225.788 22.0191 224.826 21.0517C223.864 20.0842 222.722 19.3167 221.465 18.7931C220.208 18.2695 218.861 18 217.5 18C216.139 18 214.792 18.2695 213.535 18.7931C212.278 19.3167 211.136 20.0842 210.174 21.0517C209.212 22.0191 208.449 23.1676 207.929 24.4315C207.409 25.6953 207.142 27.0498 207.143 28.4175V35.6067C205.759 35.6693 204.451 36.266 203.493 37.2726C202.536 38.2792 202.001 39.6182 202 41.0111V58H233V41.0111C232.999 39.6182 232.464 38.2792 231.507 37.2726C230.549 36.266 229.241 35.6693 227.857 35.6067ZM217.5 21.6728C219.279 21.6749 220.985 22.3862 222.243 23.6506C223.5 24.915 224.208 26.6294 224.21 28.4175V35.5941H210.79V28.4175C210.792 26.6294 211.5 24.915 212.757 23.6506C214.015 22.3862 215.721 21.6749 217.5 21.6728Z" fill="white"/>
<path d="M220 44.0007C220 43.4835 219.889 42.975 219.677 42.5247C219.465 42.0743 219.159 41.6974 218.79 41.4304C218.421 41.1635 218.001 41.0156 217.57 41.0012C217.139 40.9867 216.712 41.1062 216.331 41.348C215.95 41.5898 215.628 41.9458 215.395 42.3813C215.163 42.8167 215.028 43.317 215.004 43.8334C214.98 44.3498 215.068 44.8649 215.259 45.3285C215.45 45.7922 215.737 46.1888 216.094 46.4798V53H218.906V46.4798C219.243 46.2051 219.519 45.8355 219.71 45.4034C219.9 44.9713 220 44.4897 220 44.0007Z" fill="#6C63FF"/>
</g>
<defs>
<clipPath id="clip0_2386_27643">
<rect width="259" height="262" fill="white"/>
</clipPath>
</defs>
</svg>
