<svg width="267" height="47" viewBox="0 0 267 47" fill="none" xmlns="http://www.w3.org/2000/svg">
<path d="M64 4C64 1.79086 65.7909 0 68 0H239.438C240.442 0 241.41 0.37789 242.149 1.05858L263.308 20.5586C265.027 22.1428 265.027 24.8572 263.308 26.4414L242.149 45.9414C241.41 46.6221 240.442 47 239.438 47H68C65.7909 47 64 45.2091 64 43V4Z" fill="url(#paint0_linear_287_6359)"/>
<path d="M48 4C48 1.79086 49.7909 0 52 0H223.438C224.442 0 225.41 0.37789 226.149 1.05858L247.308 20.5586C249.027 22.1428 249.027 24.8572 247.308 26.4414L226.149 45.9414C225.41 46.6221 224.442 47 223.438 47H52C49.7909 47 48 45.2091 48 43V4Z" fill="#F4F4F4"/>
<path d="M32 4C32 1.79086 33.7909 0 36 0H207.438C208.442 0 209.41 0.37789 210.149 1.05858L231.308 20.5586C233.027 22.1428 233.027 24.8572 231.308 26.4414L210.149 45.9414C209.41 46.6221 208.442 47 207.438 47H36C33.7909 47 32 45.2091 32 43V4Z" fill="url(#paint1_linear_287_6359)"/>
<path d="M16 4C16 1.79086 17.7909 0 20 0H191.438C192.442 0 193.41 0.37789 194.149 1.05858L215.308 20.5586C217.027 22.1428 217.027 24.8572 215.308 26.4414L194.149 45.9414C193.41 46.6221 192.442 47 191.438 47H20C17.7909 47 16 45.2091 16 43V4Z" fill="#F4F4F4"/>
<path d="M0 4C0 1.79086 1.79086 0 4 0H175.438C176.442 0 177.41 0.37789 178.149 1.05858L199.308 20.5586C201.027 22.1428 201.027 24.8572 199.308 26.4414L178.149 45.9414C177.41 46.6221 176.442 47 175.438 47H4C1.79086 47 0 45.2091 0 43V4Z" fill="url(#paint2_linear_287_6359)"/>
<path d="M33.5449 34H29.6221V25.9893H22.2715V34H18.3359V15.4395H22.2715V22.7139H29.6221V15.4395H33.5449V34ZM50.8359 26.8779C50.8359 28.0628 50.6751 29.1123 50.3535 30.0264C50.0404 30.9404 49.5791 31.7148 48.9697 32.3496C48.3688 32.9759 47.641 33.4499 46.7861 33.7715C45.9398 34.0931 44.9834 34.2539 43.917 34.2539C42.9183 34.2539 42 34.0931 41.1621 33.7715C40.3327 33.4499 39.609 32.9759 38.9912 32.3496C38.3818 31.7148 37.9079 30.9404 37.5693 30.0264C37.2393 29.1123 37.0742 28.0628 37.0742 26.8779C37.0742 25.3037 37.3535 23.9707 37.9121 22.8789C38.4707 21.7871 39.2663 20.9577 40.2988 20.3906C41.3314 19.8236 42.5628 19.54 43.9932 19.54C45.3219 19.54 46.4984 19.8236 47.5225 20.3906C48.555 20.9577 49.3633 21.7871 49.9473 22.8789C50.5397 23.9707 50.8359 25.3037 50.8359 26.8779ZM41.0225 26.8779C41.0225 27.8089 41.124 28.5918 41.3271 29.2266C41.5303 29.8613 41.8477 30.3395 42.2793 30.6611C42.7109 30.9827 43.2738 31.1436 43.9678 31.1436C44.6533 31.1436 45.2077 30.9827 45.6309 30.6611C46.0625 30.3395 46.3757 29.8613 46.5703 29.2266C46.7734 28.5918 46.875 27.8089 46.875 26.8779C46.875 25.9385 46.7734 25.1598 46.5703 24.542C46.3757 23.9157 46.0625 23.446 45.6309 23.1328C45.1992 22.8197 44.6364 22.6631 43.9424 22.6631C42.9183 22.6631 42.1735 23.0143 41.708 23.7168C41.251 24.4193 41.0225 25.473 41.0225 26.8779ZM60.0146 31.1689C60.4378 31.1689 60.8483 31.1266 61.2461 31.042C61.6523 30.9574 62.0544 30.8516 62.4521 30.7246V33.6064C62.0374 33.7926 61.5212 33.945 60.9033 34.0635C60.2939 34.1904 59.6253 34.2539 58.8975 34.2539C58.0511 34.2539 57.2894 34.1185 56.6123 33.8477C55.9437 33.5684 55.4147 33.0902 55.0254 32.4131C54.6445 31.7275 54.4541 30.7754 54.4541 29.5566V22.7139H52.6006V21.0762L54.7334 19.7812L55.8506 16.7852H58.3262V19.8066H62.2998V22.7139H58.3262V29.5566C58.3262 30.0983 58.4785 30.5046 58.7832 30.7754C59.0964 31.0378 59.5068 31.1689 60.0146 31.1689ZM87.792 24.542C87.792 26.6325 87.39 28.3802 86.5859 29.7852C85.7904 31.1816 84.6351 32.2354 83.1201 32.9463C81.6051 33.6488 79.7812 34 77.6484 34H72.3926V15.4395H78.2197C80.1663 15.4395 81.8548 15.7865 83.2852 16.4805C84.7155 17.166 85.8242 18.1859 86.6113 19.54C87.3984 20.8857 87.792 22.5531 87.792 24.542ZM83.7041 24.6436C83.7041 23.2725 83.501 22.1468 83.0947 21.2666C82.6969 20.3779 82.1045 19.722 81.3174 19.2988C80.5387 18.8757 79.5739 18.6641 78.4229 18.6641H76.3281V30.75H78.0166C79.9378 30.75 81.3639 30.238 82.2949 29.2139C83.2344 28.1898 83.7041 26.6663 83.7041 24.6436ZM97.1865 19.54C98.4984 19.54 99.6283 19.7939 100.576 20.3018C101.524 20.8011 102.256 21.529 102.772 22.4854C103.289 23.4417 103.547 24.6097 103.547 25.9893V27.8682H94.3936C94.4359 28.96 94.7617 29.819 95.3711 30.4453C95.9889 31.0632 96.8438 31.3721 97.9355 31.3721C98.8411 31.3721 99.6706 31.279 100.424 31.0928C101.177 30.9066 101.951 30.6273 102.747 30.2549V33.251C102.045 33.598 101.308 33.8519 100.538 34.0127C99.7764 34.1735 98.8496 34.2539 97.7578 34.2539C96.3359 34.2539 95.0749 33.9915 93.9746 33.4668C92.8828 32.9421 92.0238 32.1423 91.3975 31.0674C90.7796 29.9925 90.4707 28.6383 90.4707 27.0049C90.4707 25.346 90.75 23.9665 91.3086 22.8662C91.8757 21.7575 92.6628 20.9281 93.6699 20.3779C94.6771 19.8193 95.8493 19.54 97.1865 19.54ZM97.2119 22.2949C96.4587 22.2949 95.8324 22.5361 95.333 23.0186C94.8421 23.501 94.5586 24.2585 94.4824 25.291H99.916C99.9076 24.7155 99.8018 24.2035 99.5986 23.7549C99.404 23.3063 99.1077 22.9508 98.71 22.6885C98.3206 22.4261 97.8213 22.2949 97.2119 22.2949ZM112.51 19.5146C114.414 19.5146 115.874 19.9294 116.89 20.7588C117.905 21.5882 118.413 22.8493 118.413 24.542V34H115.709L114.96 32.0703H114.858C114.452 32.5781 114.037 32.9928 113.614 33.3145C113.191 33.6361 112.704 33.873 112.154 34.0254C111.604 34.1777 110.936 34.2539 110.148 34.2539C109.311 34.2539 108.557 34.0931 107.889 33.7715C107.229 33.4499 106.708 32.959 106.327 32.2988C105.946 31.6302 105.756 30.7839 105.756 29.7598C105.756 28.2533 106.285 27.1445 107.343 26.4336C108.401 25.7142 109.988 25.3164 112.104 25.2402L114.566 25.1641V24.542C114.566 23.7972 114.372 23.2513 113.982 22.9043C113.593 22.5573 113.051 22.3838 112.357 22.3838C111.672 22.3838 110.999 22.4811 110.339 22.6758C109.679 22.8704 109.019 23.1159 108.358 23.4121L107.076 20.7969C107.829 20.3991 108.672 20.0859 109.603 19.8574C110.542 19.6289 111.511 19.5146 112.51 19.5146ZM114.566 27.4238L113.068 27.4746C111.816 27.5085 110.944 27.7327 110.453 28.1475C109.971 28.5622 109.729 29.1081 109.729 29.7852C109.729 30.3776 109.903 30.8008 110.25 31.0547C110.597 31.3001 111.05 31.4229 111.608 31.4229C112.438 31.4229 113.136 31.1774 113.703 30.6865C114.279 30.1956 114.566 29.4974 114.566 28.5918V27.4238ZM126.284 34H122.412V14.2461H126.284V34ZM140.262 29.7852C140.262 30.75 140.033 31.5667 139.576 32.2354C139.128 32.8955 138.455 33.3991 137.558 33.7461C136.66 34.0846 135.543 34.2539 134.206 34.2539C133.216 34.2539 132.365 34.1904 131.654 34.0635C130.952 33.9365 130.241 33.7249 129.521 33.4287V30.2295C130.292 30.5765 131.117 30.8643 131.997 31.0928C132.886 31.3128 133.664 31.4229 134.333 31.4229C135.086 31.4229 135.624 31.3128 135.945 31.0928C136.275 30.8643 136.44 30.568 136.44 30.2041C136.44 29.9671 136.373 29.7555 136.237 29.5693C136.11 29.3747 135.831 29.1589 135.399 28.9219C134.968 28.6764 134.291 28.359 133.368 27.9697C132.479 27.5973 131.747 27.2207 131.172 26.8398C130.605 26.459 130.182 26.0104 129.902 25.4941C129.632 24.9694 129.496 24.305 129.496 23.501C129.496 22.1891 130.004 21.2031 131.02 20.543C132.044 19.8743 133.41 19.54 135.12 19.54C136 19.54 136.838 19.6289 137.634 19.8066C138.438 19.9844 139.263 20.2679 140.109 20.6572L138.941 23.4502C138.239 23.1455 137.575 22.8958 136.948 22.7012C136.33 22.5065 135.7 22.4092 135.057 22.4092C134.49 22.4092 134.062 22.4854 133.774 22.6377C133.487 22.79 133.343 23.0228 133.343 23.3359C133.343 23.5645 133.415 23.7676 133.559 23.9453C133.711 24.123 133.999 24.3219 134.422 24.542C134.854 24.7536 135.484 25.0286 136.313 25.3672C137.118 25.6973 137.816 26.0443 138.408 26.4082C139.001 26.7637 139.458 27.208 139.779 27.7412C140.101 28.266 140.262 28.9473 140.262 29.7852ZM153.287 27.8428H150.189L149.542 15.4395H153.935L153.287 27.8428ZM149.491 32.1846C149.491 31.389 149.707 30.8304 150.139 30.5088C150.579 30.1872 151.108 30.0264 151.726 30.0264C152.326 30.0264 152.843 30.1872 153.274 30.5088C153.715 30.8304 153.935 31.389 153.935 32.1846C153.935 32.9463 153.715 33.4964 153.274 33.835C152.843 34.1735 152.326 34.3428 151.726 34.3428C151.108 34.3428 150.579 34.1735 150.139 33.835C149.707 33.4964 149.491 32.9463 149.491 32.1846ZM160.727 27.8428H157.629L156.981 15.4395H161.374L160.727 27.8428ZM156.931 32.1846C156.931 31.389 157.146 30.8304 157.578 30.5088C158.018 30.1872 158.547 30.0264 159.165 30.0264C159.766 30.0264 160.282 30.1872 160.714 30.5088C161.154 30.8304 161.374 31.389 161.374 32.1846C161.374 32.9463 161.154 33.4964 160.714 33.835C160.282 34.1735 159.766 34.3428 159.165 34.3428C158.547 34.3428 158.018 34.1735 157.578 33.835C157.146 33.4964 156.931 32.9463 156.931 32.1846Z" fill="white"/>
<defs>
<linearGradient id="paint0_linear_287_6359" x1="64" y1="23" x2="241" y2="23" gradientUnits="userSpaceOnUse">
<stop stop-color="#CC0000"/>
<stop offset="1" stop-color="#FF8701"/>
</linearGradient>
<linearGradient id="paint1_linear_287_6359" x1="32" y1="23" x2="209" y2="23" gradientUnits="userSpaceOnUse">
<stop stop-color="#CC0000"/>
<stop offset="1" stop-color="#FF8701"/>
</linearGradient>
<linearGradient id="paint2_linear_287_6359" x1="1.12473e-06" y1="23" x2="177" y2="23" gradientUnits="userSpaceOnUse">
<stop stop-color="#CC0000"/>
<stop offset="1" stop-color="#FF8701"/>
</linearGradient>
</defs>
</svg>
