<svg width="424" height="254" viewBox="0 0 424 254" fill="none" xmlns="http://www.w3.org/2000/svg">
<g clip-path="url(#clip0_2076_31684)">
<path d="M22.1218 253.432C22.0934 253.308 19.3502 240.844 24.9526 230.492C30.555 220.14 42.5138 215.575 42.634 215.53L43.1805 215.326L43.3096 215.893C43.338 216.018 46.0812 228.482 40.4788 238.834C34.8767 249.185 22.9176 253.751 22.7975 253.796L22.2507 254L22.1218 253.432ZM42.431 216.711C40.0355 217.738 30.5814 222.231 25.8497 230.974C21.1175 239.718 22.5452 250.058 23.0005 252.615C25.3949 251.591 34.8453 247.104 39.5818 238.352C44.3137 229.609 42.8865 219.269 42.431 216.711Z" fill="#F1F1F1"/>
<path d="M36.1977 235.203C26.1299 241.238 22.2524 253.225 22.2524 253.225C22.2524 253.225 34.6981 255.428 44.7659 249.393C54.8337 243.357 58.7112 231.37 58.7112 231.37C58.7112 231.37 46.2655 229.167 36.1977 235.203Z" fill="#F1F1F1"/>
<path d="M188.662 138.455C188.815 137.665 188.793 136.851 188.597 136.071C188.401 135.291 188.035 134.563 187.526 133.939C187.017 133.315 186.377 132.81 185.651 132.459C184.924 132.108 184.13 131.92 183.323 131.908L178.66 120.226L170.844 121.317L177.661 137.722C177.731 139.075 178.296 140.354 179.249 141.319C180.203 142.284 181.479 142.867 182.835 142.957C184.191 143.047 185.533 142.639 186.607 141.809C187.681 140.979 188.412 139.786 188.662 138.455Z" fill="#9F616A"/>
<path d="M174.262 134.35L171.84 128.596L156.748 99.9726L157.569 47.0096L157.726 46.9887C167.383 45.7175 173.917 90.051 174.191 91.939L183.726 124.432L185.996 131.594L174.262 134.35Z" fill="#6C63FF"/>
<path d="M151.073 246.031L158.41 246.03L161.901 217.831L151.071 217.831L151.073 246.031Z" fill="#9F616A"/>
<path d="M149.201 243.644L163.652 243.643H163.652C166.094 243.644 168.437 244.61 170.164 246.331C171.891 248.052 172.861 250.385 172.861 252.819V253.117L149.201 253.118L149.201 243.644Z" fill="#2F2E41"/>
<path d="M83.6047 234.892L89.6254 239.072L108.671 217.925L99.7856 211.755L83.6047 234.892Z" fill="#9F616A"/>
<path d="M83.439 231.867L95.2951 240.099L95.2956 240.099C97.2993 241.491 98.6662 243.618 99.0957 246.014C99.5252 248.409 98.9821 250.877 97.5858 252.873L97.4147 253.118L78.0029 239.64L83.439 231.867Z" fill="#2F2E41"/>
<path d="M147.04 239.402L146.723 186.501L142.106 153.238L133.498 182.49L133.481 182.514L102.288 227.636L90.1501 221.508L90.2166 221.351C90.9584 219.593 108.437 178.306 113.135 178.306C113.545 178.335 113.957 178.264 114.333 178.099C114.71 177.934 115.04 177.68 115.297 177.36C116.676 175.525 115.553 171.632 115.541 171.593C114.196 166.037 117.578 164.144 118.251 163.828L120.063 126.569L120.25 126.582L169.36 130.014L167.3 176.598L162.868 237.632L162.715 237.65L147.04 239.402Z" fill="#2F2E41"/>
<path d="M170.11 138.27L169.898 138.253L117.082 134.011L117.212 116.599L119.797 71.1362L119.812 71.1046L130.34 48.3327L137.802 44.9657L148.69 44.3948L148.717 44.4015L158.653 46.8543L168.99 120.786L170.11 138.27Z" fill="#6C63FF"/>
<path d="M150.396 38.5588C157.135 34.8884 159.612 26.4698 155.928 19.7555C152.244 13.0411 143.795 10.5735 137.056 14.2439C130.317 17.9143 127.841 26.3328 131.524 33.0472C135.208 39.7616 143.657 42.2292 150.396 38.5588Z" fill="#9F616A"/>
<path d="M129.741 29.8794V24.481C129.741 24.481 125.372 19.3537 130.178 18.0621C130.178 18.0621 131.489 5.14635 142.849 11.1737C142.849 11.1737 158.579 8.59055 156.831 17.6316C156.831 17.6316 160.763 15.2713 159.453 21.2986L156.917 31.0076C156.917 31.0076 158.142 24.5942 154.209 23.7331L152.025 22.4415C152.025 22.4415 145.908 28.4689 136.732 21.1499C136.732 21.1499 132.8 20.2148 133.237 24.0895C133.673 27.9642 129.741 29.8794 129.741 29.8794Z" fill="#2F2E41"/>
<path d="M142.278 125.268C142.287 124.463 142.119 123.667 141.785 122.935C141.452 122.202 140.961 121.552 140.348 121.029C139.735 120.506 139.014 120.123 138.236 119.907C137.458 119.692 136.643 119.649 135.846 119.782L129.156 109.123L121.663 111.594L131.324 126.514C131.636 127.832 132.423 128.99 133.535 129.769C134.647 130.547 136.006 130.893 137.357 130.739C138.707 130.585 139.954 129.943 140.861 128.935C141.768 127.927 142.272 126.622 142.278 125.268Z" fill="#9F616A"/>
<path d="M124.998 121.908L112.894 97.4221L112.904 97.3625C112.953 97.0914 117.825 70.136 121.552 60.228C125.302 50.2572 130.435 48.2553 130.652 48.175L130.76 48.1348L135.363 52.5336L128.987 94.9351L135.86 115.385L124.998 121.908Z" fill="#6C63FF"/>
<path d="M424 0H400.563V23.3514H424V0Z" fill="#F1F1F1"/>
<path d="M240.584 90.8672H217.147V114.219H240.584V90.8672Z" fill="#F1F1F1"/>
<path d="M230.302 103.986H415.59V10.5253H230.302V103.986Z" fill="white"/>
<path d="M417.118 105.509H228.773V9.00238H417.118V105.509ZM231.83 102.463H414.062V12.0482H231.83V102.463Z" fill="#E5E5E5"/>
<path d="M395.101 43.3096H252.542V48.02H395.101V43.3096Z" fill="#E5E5E5"/>
<path d="M395.101 54.733H252.542V59.4435H395.101V54.733Z" fill="#E5E5E5"/>
<path d="M395.101 71.6H368.607V75.6879H395.101V71.6Z" fill="#6C63FF"/>
<path d="M194.625 253.98H0.509489C0.374364 253.98 0.244773 253.926 0.149226 253.831C0.0536778 253.736 0 253.607 0 253.472C0 253.337 0.0536778 253.208 0.149226 253.113C0.244773 253.018 0.374364 252.964 0.509489 252.964H194.625C194.76 252.964 194.89 253.018 194.985 253.113C195.081 253.208 195.134 253.337 195.134 253.472C195.134 253.607 195.081 253.736 194.985 253.831C194.89 253.926 194.76 253.98 194.625 253.98Z" fill="#CBCBCB"/>
</g>
<defs>
<clipPath id="clip0_2076_31684">
<rect width="424" height="254" fill="white"/>
</clipPath>
</defs>
</svg>
