<svg width="293" height="283" viewBox="0 0 293 283" fill="none" xmlns="http://www.w3.org/2000/svg">
<g clip-path="url(#clip0_2386_27901)">
<path d="M186.88 63.4385H171.29V195.182C171.29 197.249 170.879 199.296 170.081 201.205C169.283 203.115 168.114 204.85 166.639 206.312C165.165 207.773 163.414 208.933 161.487 209.724C159.561 210.515 157.496 210.922 155.41 210.922H36.2197V211.072C36.2197 213.139 36.6304 215.186 37.4285 217.096C38.2265 219.006 39.3962 220.741 40.8708 222.202C42.3453 223.664 44.0959 224.823 46.0225 225.614C47.9491 226.405 50.0141 226.812 52.0994 226.812H186.88C188.965 226.812 191.03 226.405 192.957 225.614C194.883 224.823 196.634 223.664 198.109 222.202C199.583 220.741 200.753 219.006 201.551 217.096C202.349 215.186 202.76 213.139 202.76 211.072V79.1785C202.76 75.004 201.087 71.0005 198.109 68.0486C195.131 65.0968 191.092 63.4385 186.88 63.4385Z" fill="#F2F2F2"/>
<path d="M260.783 272.799C261.059 272.811 261.332 272.74 261.566 272.593C261.799 272.447 261.981 272.233 262.088 271.98C262.195 271.727 262.22 271.448 262.161 271.181C262.103 270.913 261.962 270.67 261.759 270.484L261.667 270.12C261.679 270.091 261.692 270.062 261.704 270.033C261.982 269.382 262.448 268.827 263.043 268.437C263.638 268.048 264.336 267.842 265.049 267.844C265.763 267.847 266.459 268.058 267.051 268.452C267.644 268.846 268.105 269.404 268.379 270.057C269.47 272.663 270.86 275.274 271.202 278.03C271.353 279.248 271.29 280.482 271.014 281.679C273.579 276.135 274.91 270.109 274.919 264.01C274.919 262.48 274.833 260.951 274.662 259.43C274.52 258.183 274.323 256.945 274.071 255.716C272.697 249.047 269.746 242.796 265.461 237.477C263.388 236.356 261.71 234.631 260.656 232.535C260.274 231.782 260.004 230.978 259.854 230.148C260.088 230.179 260.737 226.647 260.56 226.431C260.886 225.94 261.47 225.696 261.826 225.218C263.596 222.838 266.036 223.254 267.31 226.488C270.031 227.849 270.057 230.106 268.387 232.277C267.325 233.658 267.179 235.527 266.248 237.006C266.343 237.127 266.443 237.245 266.539 237.367C268.292 239.601 269.819 241.999 271.1 244.529C270.788 241.695 271.16 238.829 272.184 236.166C273.222 233.684 275.168 231.593 276.881 229.447C277.334 228.871 277.95 228.441 278.649 228.211C279.349 227.981 280.102 227.962 280.813 228.156C281.524 228.351 282.16 228.749 282.642 229.302C283.125 229.855 283.431 230.537 283.522 231.262C283.525 231.294 283.529 231.325 283.532 231.357C283.278 231.499 283.028 231.65 282.785 231.81C282.479 232.013 282.241 232.303 282.104 232.641C281.967 232.98 281.936 233.352 282.016 233.708C282.095 234.065 282.282 234.389 282.55 234.639C282.819 234.888 283.158 235.051 283.522 235.107L283.559 235.113C283.468 236.022 283.308 236.923 283.08 237.808C285.278 246.233 280.532 249.302 273.757 249.44C273.607 249.516 273.461 249.592 273.312 249.664C274.598 253.278 275.405 257.043 275.712 260.863C275.886 263.117 275.876 265.381 275.682 267.633L275.693 267.553C276.184 265.049 277.532 262.789 279.509 261.156C282.446 258.765 286.594 257.884 289.762 255.962C290.099 255.748 290.491 255.633 290.891 255.633C291.291 255.632 291.683 255.744 292.021 255.957C292.358 256.169 292.628 256.473 292.797 256.833C292.966 257.192 293.028 257.592 292.975 257.985L292.962 258.069C292.49 258.26 292.03 258.479 291.586 258.727C291.331 258.869 291.082 259.02 290.838 259.18C290.532 259.382 290.295 259.672 290.158 260.011C290.02 260.35 289.99 260.722 290.069 261.078C290.149 261.434 290.335 261.758 290.604 262.008C290.873 262.258 291.211 262.421 291.575 262.477L291.613 262.482C291.639 262.486 291.662 262.49 291.689 262.494C290.882 264.403 289.75 266.161 288.341 267.69C286.967 275.045 281.064 275.743 274.75 273.601H274.746C274.053 276.585 273.049 279.49 271.751 282.268H261.051C261.013 282.15 260.978 282.029 260.944 281.911C261.934 281.973 262.928 281.914 263.904 281.736C263.11 280.77 262.317 279.797 261.523 278.832C261.505 278.814 261.488 278.795 261.473 278.775C261.07 278.281 260.664 277.79 260.261 277.296L260.261 277.295C260.239 275.781 260.415 274.269 260.783 272.799Z" fill="#F2F2F2"/>
<path d="M142.933 45.5176C143.324 46.1042 143.839 46.5997 144.441 46.9699C145.044 47.3401 145.721 47.576 146.425 47.6614C147.129 47.7468 147.843 47.6796 148.518 47.4645C149.193 47.2494 149.813 46.8915 150.335 46.4156L172.58 56.3636L176.869 50.9411L150.361 39.3172C149.487 38.5061 148.344 38.0408 147.147 38.0095C145.951 37.9782 144.784 38.383 143.869 39.1473C142.953 39.9116 142.352 40.9822 142.18 42.1563C142.008 43.3303 142.276 44.5263 142.933 45.5176Z" fill="#A0616A"/>
<path d="M238.401 51.7208L240.608 64.1134C240.711 64.6915 240.69 65.2846 240.548 65.8546C240.406 66.4246 240.146 66.9588 239.783 67.423C239.421 67.8872 238.964 68.2711 238.443 68.5501C237.922 68.8291 237.348 68.997 236.757 69.0431L199.268 71.9653L155.2 52.4165L160.463 42.5129L198.718 54.5205L238.401 51.7208Z" fill="#6C63FF"/>
<path d="M150.66 42.8394H15.8797C7.10959 42.8394 0 49.8864 0 58.5794V190.473C0 199.166 7.10959 206.213 15.8797 206.213H150.66C159.43 206.213 166.54 199.166 166.54 190.473V58.5794C166.54 49.8864 159.43 42.8394 150.66 42.8394Z" fill="#F2F2F2"/>
<path d="M15.8797 46.0762C14.2232 46.0762 12.5829 46.3996 11.0525 47.0279C9.52206 47.6562 8.13151 48.5772 6.96019 49.7382C5.78886 50.8993 4.85971 52.2776 4.2258 53.7945C3.59189 55.3115 3.26562 56.9373 3.26563 58.5793V190.473C3.26563 193.789 4.5946 196.97 6.96019 199.314C9.32578 201.659 12.5342 202.976 15.8797 202.976H101.9C109.96 202.976 117.94 201.403 125.387 198.346C132.833 195.288 139.599 190.807 145.298 185.158C150.997 179.509 155.518 172.803 158.602 165.422C161.687 158.042 163.274 150.131 163.274 142.142V58.5793C163.274 56.9373 162.948 55.3115 162.314 53.7945C161.68 52.2776 160.751 50.8993 159.579 49.7382C158.408 48.5772 157.018 47.6562 155.487 47.0279C153.957 46.3996 152.316 46.0762 150.66 46.0762H15.8797Z" fill="white"/>
<path d="M120.947 86.1039H45.298C44.6038 86.1039 43.9381 85.8306 43.4473 85.344C42.9564 84.8575 42.6807 84.1976 42.6807 83.5096C42.6807 82.8215 42.9564 82.1617 43.4473 81.6751C43.9381 81.1886 44.6038 80.9153 45.298 80.9153H120.947C121.642 80.9153 122.307 81.1886 122.798 81.6751C123.289 82.1617 123.565 82.8215 123.565 83.5096C123.565 84.1976 123.289 84.8575 122.798 85.344C122.307 85.8306 121.642 86.1039 120.947 86.1039Z" fill="#F2F2F2"/>
<path d="M120.947 141.427H45.298C44.6038 141.427 43.9381 141.154 43.4473 140.667C42.9564 140.181 42.6807 139.521 42.6807 138.833C42.6807 138.145 42.9564 137.485 43.4473 136.998C43.9381 136.512 44.6038 136.238 45.298 136.238H120.947C121.642 136.238 122.307 136.512 122.798 136.998C123.289 137.485 123.565 138.145 123.565 138.833C123.565 139.521 123.289 140.181 122.798 140.667C122.307 141.154 121.642 141.427 120.947 141.427Z" fill="#F2F2F2"/>
<path d="M151.667 113.784H14.5783C13.8841 113.784 13.2184 113.51 12.7275 113.024C12.2367 112.537 11.9609 111.877 11.9609 111.189C11.9609 110.501 12.2367 109.841 12.7275 109.355C13.2184 108.868 13.8841 108.595 14.5783 108.595H151.667C152.361 108.595 153.027 108.868 153.518 109.355C154.009 109.841 154.284 110.501 154.284 111.189C154.284 111.877 154.009 112.537 153.518 113.024C153.027 113.51 152.361 113.784 151.667 113.784Z" fill="#F2F2F2"/>
<path d="M233.665 106.342L220.009 135.181L272.543 129.907L261.577 102.222L233.665 106.342Z" fill="#A0616A"/>
<path d="M245.879 272.095L240.898 272.054L238.693 252.566L246.044 252.628L245.879 272.095Z" fill="#A0616A"/>
<path d="M229.924 279.946C229.919 280.531 230.149 281.094 230.563 281.512C230.977 281.929 231.541 282.167 232.132 282.173L242.035 282.255L243.769 278.771L244.405 282.272L248.142 282.306L247.198 269.819L245.898 269.733L240.596 269.371L238.885 269.257L238.855 272.79L230.9 278.139C230.602 278.339 230.357 278.608 230.187 278.923C230.017 279.238 229.927 279.589 229.924 279.946Z" fill="#2F2E41"/>
<path d="M190.757 272.118L186.008 270.627L189.677 251.358L196.685 253.557L190.757 272.118Z" fill="#A0616A"/>
<path d="M173.18 274.975C173.002 275.533 173.055 276.139 173.327 276.658C173.599 277.178 174.067 277.569 174.63 277.747L184.072 280.709L186.761 277.884L186.332 281.416L189.894 282.537L192.694 270.326L191.476 269.866L186.515 267.975L184.913 267.368L183.837 270.737L174.648 273.532C174.304 273.637 173.99 273.823 173.734 274.074C173.479 274.326 173.288 274.635 173.18 274.975Z" fill="#2F2E41"/>
<path d="M270.151 121.797L222.384 130.472C222.384 130.472 214.722 136.153 216.772 138.187C218.821 140.222 219.139 139.907 217.793 141.241C216.446 142.576 213.535 144.36 213.506 145.528C213.477 146.696 192.102 199.076 192.102 199.076C192.102 199.076 194.477 197.899 192.696 199.665C190.914 201.43 190.914 202.889 190.914 202.889L182.602 258.519L196.102 259.307L209.321 208.59L238.807 161.21C238.807 161.21 241.733 203.461 241.855 206.271C241.978 209.081 243.759 205.55 241.978 209.081C240.197 212.613 239.009 210.258 240.197 212.613C241.384 214.967 235.919 262.895 235.919 262.895H248.241L274.67 163.554C274.67 163.554 284.073 135.153 270.151 121.797Z" fill="#2F2E41"/>
<path d="M256.078 42.3366L236.945 40.366L231.987 46.7453L226.212 49.7941C223.768 51.0843 221.751 53.045 220.402 55.4416C219.052 57.8383 218.428 60.5694 218.603 63.3085L225.352 102.222C225.352 102.222 219.651 114.946 223.571 118.113C227.49 121.28 220.541 129.123 228.915 125.176C237.289 121.228 273.447 125.764 273.447 125.764L265.728 103.988L271.494 82.59L272.129 64.6481C272.248 61.2954 271.244 57.9979 269.274 55.2698C267.305 52.5416 264.48 50.536 261.24 49.5656L260.434 49.3241L256.078 42.3366Z" fill="#6C63FF"/>
<path d="M282.421 27.7971C282.546 33.1428 280.531 38.3191 277.635 42.8656C276.775 40.2114 275.228 37.7957 273.615 35.493C274.428 40.4745 273.562 45.5828 271.151 50.0274C271.066 50.0876 270.978 50.1436 270.887 50.195C268.527 51.6023 265.535 52.1722 262.982 51.1559C268.257 45.5196 268.928 36.181 264.506 29.859C263.254 28.0652 261.634 26.4786 260.859 24.4371C259.634 21.1798 260.811 17.5934 261.554 14.1974C262.248 11.0366 262.37 7.27534 260.23 4.95893C260.459 4.63522 260.77 4.37754 261.132 4.2123C261.494 4.04707 261.894 3.98022 262.291 4.0186C263.61 4.20328 264.57 5.33967 265.182 6.51009C265.793 7.68047 266.196 8.97766 267.048 9.98858C268.627 11.8807 271.314 12.3281 273.579 13.3253C279.064 15.7469 282.289 21.8488 282.421 27.7971Z" fill="#2F2E41"/>
<path d="M141.108 282.3C141.108 282.392 141.126 282.483 141.162 282.568C141.197 282.653 141.249 282.73 141.315 282.796C141.38 282.861 141.458 282.912 141.544 282.947C141.63 282.982 141.722 283 141.815 283H292.21C292.397 283 292.577 282.926 292.709 282.795C292.842 282.664 292.916 282.485 292.916 282.3C292.916 282.114 292.842 281.936 292.709 281.804C292.577 281.673 292.397 281.599 292.21 281.599H141.815C141.722 281.599 141.63 281.617 141.544 281.652C141.458 281.687 141.38 281.739 141.315 281.804C141.249 281.869 141.197 281.946 141.162 282.031C141.126 282.116 141.108 282.208 141.108 282.3Z" fill="#CCCCCC"/>
<path d="M283.605 151.696C286.556 151.696 288.949 149.324 288.949 146.399C288.949 143.474 286.556 141.102 283.605 141.102C280.653 141.102 278.261 143.474 278.261 146.399C278.261 149.324 280.653 151.696 283.605 151.696Z" fill="#6C63FF"/>
<path d="M236.251 24.7405C236.564 23.6532 234.404 30.3001 235.446 30.4201C240.195 30.96 246.712 33.7708 250.019 35.0821C250.168 35.0649 250.317 35.0478 250.462 35.0264C250.817 34.9878 251.163 34.9321 251.504 34.8678C259.205 33.4237 262.166 21.6991 262.166 21.592C262.166 21.0649 260.89 6.58824 258.879 6.37401C258.351 6.31722 257.82 6.28861 257.289 6.2883H252.3C251.268 6.0678 250.221 5.91747 249.168 5.83836H249.16C239.116 5.07986 231.196 11.1477 231.937 18.5312C231.941 18.5398 231.95 18.5484 231.954 18.557C232.169 18.8741 232.357 19.174 232.524 19.4611C232.686 19.7311 232.822 19.9882 232.94 20.2325C233.855 22.118 231.502 24.4906 233.062 24.9334C235.138 25.5224 227.604 44.8812 235.819 44.8812C231.823 46.0072 235.386 27.7402 236.251 24.7405Z" fill="#2F2E41"/>
<path d="M245.216 36.0995C251.74 36.0995 257.028 30.8576 257.028 24.3913C257.028 17.9251 251.74 12.6831 245.216 12.6831C238.693 12.6831 233.404 17.9251 233.404 24.3913C233.404 30.8576 238.693 36.0995 245.216 36.0995Z" fill="#A0616A"/>
<path d="M231.937 19.1698C232.134 19.2726 232.326 19.3669 232.523 19.4612C232.729 19.5597 232.935 19.6583 233.141 19.7483C237.096 21.5267 240.316 21.7238 242.269 19.1698C242.322 17.8259 242.626 16.5035 243.167 15.2702C243.072 16.6484 243.438 18.0193 244.21 19.1698H248.143C252.195 21.8352 254.275 22.1138 251.463 30.8642C250.679 33.3025 247.562 47.491 248.788 49.595C249.143 49.5565 252.918 34.0157 253.259 33.9515C260.959 32.5073 265.852 19.9326 265.226 19.2212C265.229 17.1983 264.76 15.2022 263.855 13.389C262.71 11.0918 260.926 9.16758 258.712 7.8439C257.393 7.20986 256.018 6.69775 254.604 6.31406C254.569 6.30548 254.538 6.2969 254.503 6.28835C254.069 6.17264 253.627 6.06551 253.185 5.97552C252.271 5.78423 251.346 5.64545 250.416 5.55985C250.351 5.55556 250.285 5.55127 250.224 5.55127C249.852 5.55213 249.488 5.65125 249.168 5.8384C249.164 5.8384 249.164 5.84267 249.159 5.84267C248.931 5.97504 248.731 6.15132 248.572 6.36117C248.293 6.71427 248.141 7.15066 248.143 7.59961H243.763C243.601 7.59961 243.439 7.60389 243.277 7.61246C240.353 7.71148 237.572 8.88826 235.478 10.9125C233.384 12.9367 232.127 15.6627 231.954 18.557C231.941 18.7627 231.937 18.9641 231.937 19.1698Z" fill="#2F2E41"/>
<path d="M257.763 15.4269C262.061 15.4269 265.545 11.9735 265.545 7.71344C265.545 3.45343 262.061 0 257.763 0C253.466 0 249.981 3.45343 249.981 7.71344C249.981 11.9735 253.466 15.4269 257.763 15.4269Z" fill="#2F2E41"/>
<path d="M283.665 148.583C284.045 147.989 284.29 147.321 284.383 146.624C284.477 145.928 284.417 145.219 284.207 144.548C283.997 143.876 283.642 143.258 283.168 142.736C282.693 142.213 282.11 141.8 281.458 141.523L281.496 117.333L274.749 115.677L274.915 144.408C274.527 145.531 274.567 146.755 275.028 147.85C275.49 148.944 276.341 149.833 277.419 150.348C278.498 150.863 279.729 150.967 280.88 150.642C282.031 150.317 283.022 149.584 283.665 148.583Z" fill="#A0616A"/>
<path d="M250.25 59.7236L260.75 52.6503C261.24 52.3203 261.794 52.0955 262.377 51.9903C262.96 51.8851 263.558 51.9018 264.134 52.0394C264.71 52.177 265.25 52.4324 265.72 52.7893C266.191 53.1461 266.581 53.5965 266.865 54.1115L284.918 86.8102L284.987 134.665L273.716 133.965L269.089 94.4561L250.25 59.7236Z" fill="#6C63FF"/>
<path d="M169.607 168.251H57.385C54.9441 168.251 52.6032 169.212 50.8772 170.923C49.1513 172.634 48.1816 174.954 48.1816 177.374C48.1816 179.793 49.1513 182.113 50.8772 183.824C52.6032 185.535 54.9441 186.496 57.385 186.496H169.607C172.047 186.496 174.388 185.535 176.114 183.824C177.84 182.113 178.81 179.793 178.81 177.374C178.81 174.954 177.84 172.634 176.114 170.923C174.388 169.212 172.047 168.251 169.607 168.251Z" fill="white"/>
<path d="M169.607 187.085H57.385C54.7867 187.085 52.2947 186.062 50.4574 184.24C48.6201 182.419 47.5879 179.949 47.5879 177.374C47.5879 174.798 48.6201 172.328 50.4574 170.507C52.2947 168.686 54.7867 167.663 57.385 167.663H169.607C172.205 167.663 174.697 168.686 176.534 170.507C178.372 172.328 179.404 174.798 179.404 177.374C179.404 179.949 178.372 182.419 176.534 184.24C174.697 186.062 172.205 187.085 169.607 187.085ZM57.385 168.84C55.1016 168.84 52.9117 169.739 51.2971 171.339C49.6825 172.94 48.7754 175.11 48.7754 177.374C48.7754 179.637 49.6825 181.808 51.2971 183.408C52.9117 185.009 55.1016 185.908 57.385 185.908H169.607C171.89 185.908 174.08 185.009 175.695 183.408C177.309 181.808 178.216 179.637 178.216 177.374C178.216 175.11 177.309 172.94 175.695 171.339C174.08 169.739 171.89 168.84 169.607 168.84H57.385Z" fill="#6C63FF"/>
<path d="M176.223 208.062H126.699C126.005 208.062 125.339 207.789 124.849 207.302C124.358 206.816 124.082 206.156 124.082 205.468C124.082 204.78 124.358 204.12 124.849 203.633C125.339 203.147 126.005 202.873 126.699 202.873H176.223C176.917 202.873 177.583 203.147 178.074 203.633C178.565 204.12 178.84 204.78 178.84 205.468C178.84 206.156 178.565 206.816 178.074 207.302C177.583 207.789 176.917 208.062 176.223 208.062Z" fill="#6C63FF"/>
</g>
<defs>
<clipPath id="clip0_2386_27901">
<rect width="293" height="283" fill="white"/>
</clipPath>
</defs>
</svg>
