<svg width="391" height="272" viewBox="0 0 391 272" fill="none" xmlns="http://www.w3.org/2000/svg">
<g clip-path="url(#clip0_2399_28272)">
<path d="M77.9042 272C120.929 272 155.808 269.351 155.808 266.084C155.808 262.817 120.929 260.168 77.9042 260.168C34.8789 260.168 0 262.817 0 266.084C0 269.351 34.8789 272 77.9042 272Z" fill="#E6E6E6"/>
<path d="M59.5488 60.3521C73.1065 54.5864 89.9928 58.2395 106.484 60.7749C106.638 57.7045 108.498 53.9677 106.549 51.8256C104.182 49.2232 104.4 46.4888 105.824 43.7387C109.467 36.7061 104.248 29.2231 98.9785 23.0011C97.7908 21.6018 96.2897 20.5024 94.5972 19.7921C92.9047 19.0819 91.0685 18.7808 89.2378 18.9133L79.4764 19.6104C77.101 19.7801 74.8341 20.671 72.9791 22.164C71.124 23.657 69.7692 25.6808 69.0959 27.9648C66.7651 31.1343 65.5175 34.2951 66.303 37.4394C62.8118 39.8249 62.2252 42.7044 63.794 45.9506C65.1243 47.9945 65.1102 49.9841 63.7335 51.9186C61.9256 54.3849 60.5408 57.135 59.6361 60.056L59.5488 60.3521Z" fill="#2F2E41"/>
<path d="M381.735 235.14H105.413C102.955 235.14 100.599 234.164 98.8612 232.426C97.1236 230.689 96.1475 228.333 96.1475 225.876C196.314 214.236 294.598 214.236 391 225.876C391 228.333 390.024 230.689 388.286 232.426C386.549 234.164 384.192 235.14 381.735 235.14Z" fill="#2F2E41"/>
<path d="M391 226.421L96.1475 225.876L130.32 168.385L130.483 168.113V41.4096C130.483 39.8717 130.786 38.3489 131.375 36.928C131.963 35.5071 132.826 34.2161 133.914 33.1287C135.001 32.0412 136.292 31.1786 137.713 30.5901C139.134 30.0017 140.658 29.6988 142.196 29.699H343.317C344.855 29.6988 346.378 30.0017 347.799 30.5901C349.22 31.1786 350.511 32.0412 351.599 33.1287C352.686 34.2161 353.549 35.5071 354.138 36.928C354.726 38.3489 355.029 39.8717 355.029 41.4096V168.984L391 226.421Z" fill="#3F3D56"/>
<path d="M141.928 37.873C140.917 37.8742 139.947 38.2764 139.232 38.9916C138.517 39.7067 138.114 40.6763 138.113 41.6876V157.214C138.114 158.225 138.517 159.195 139.232 159.91C139.947 160.625 140.917 161.027 141.928 161.028H345.219C346.23 161.027 347.2 160.625 347.915 159.91C348.63 159.195 349.032 158.225 349.034 157.214V41.6876C349.032 40.6763 348.63 39.7067 347.915 38.9916C347.2 38.2765 346.23 37.8742 345.219 37.873H141.928Z" fill="white"/>
<path d="M142.781 176.287C142.468 176.287 142.163 176.377 141.899 176.546C141.636 176.714 141.427 176.954 141.295 177.238L130.766 200.125C130.651 200.375 130.601 200.648 130.62 200.922C130.639 201.195 130.727 201.46 130.874 201.691C131.022 201.921 131.226 202.111 131.467 202.243C131.707 202.375 131.977 202.444 132.251 202.444H353.682C353.961 202.444 354.235 202.372 354.479 202.237C354.722 202.101 354.927 201.905 355.073 201.668C355.22 201.431 355.303 201.16 355.316 200.882C355.328 200.604 355.269 200.327 355.144 200.078L343.699 177.19C343.564 176.918 343.356 176.689 343.097 176.53C342.839 176.37 342.541 176.286 342.237 176.287H142.781Z" fill="#2F2E41"/>
<path d="M242.756 35.9657C244.111 35.9657 245.209 34.8678 245.209 33.5135C245.209 32.1592 244.111 31.0613 242.756 31.0613C241.402 31.0613 240.304 32.1592 240.304 33.5135C240.304 34.8678 241.402 35.9657 242.756 35.9657Z" fill="white"/>
<path d="M220.991 206.803C220.632 206.803 220.282 206.922 219.997 207.141C219.712 207.359 219.506 207.666 219.412 208.013L216.771 217.821C216.706 218.064 216.697 218.318 216.746 218.564C216.795 218.81 216.899 219.042 217.052 219.241C217.205 219.44 217.401 219.602 217.626 219.713C217.851 219.824 218.099 219.881 218.35 219.881H268.58C268.841 219.881 269.098 219.819 269.329 219.7C269.561 219.58 269.761 219.407 269.912 219.195C270.063 218.982 270.161 218.737 270.198 218.479C270.235 218.221 270.21 217.958 270.125 217.712L266.729 207.903C266.618 207.582 266.409 207.303 266.132 207.106C265.855 206.909 265.524 206.803 265.184 206.803H220.991Z" fill="#2F2E41"/>
<path d="M355.029 166.205V168.385H130.32L130.489 168.113V166.205H355.029Z" fill="#2F2E41"/>
<path d="M348.761 76.291C369.832 76.291 386.912 59.2126 386.912 38.1455C386.912 17.0783 369.832 0 348.761 0C327.691 0 310.61 17.0783 310.61 38.1455C310.61 59.2126 327.691 76.291 348.761 76.291Z" fill="#6C63FF"/>
<path d="M364.567 54.766H332.956C332.378 54.7654 331.824 54.5356 331.416 54.1269C331.007 53.7183 330.777 53.1642 330.776 52.5862V33.5135C330.777 32.9356 331.007 32.3815 331.416 31.9729C331.824 31.5642 332.378 31.3344 332.956 31.3337H364.567C365.145 31.3344 365.699 31.5642 366.108 31.9729C366.517 32.3815 366.747 32.9356 366.747 33.5135V52.5862C366.747 53.1641 366.517 53.7182 366.108 54.1269C365.699 54.5356 365.145 54.7654 364.567 54.766ZM332.956 33.5135V52.5862H364.569L364.567 33.5135L332.956 33.5135Z" fill="white"/>
<path d="M358.572 33.5134H338.951V24.7945C338.951 18.4793 343.077 13.8958 348.761 13.8958C354.446 13.8958 358.572 18.4793 358.572 24.7945L358.572 33.5134ZM341.131 31.3337H356.392V24.7945C356.392 19.6609 353.254 16.0755 348.761 16.0755C344.269 16.0755 341.131 19.661 341.131 24.7945L341.131 31.3337Z" fill="white"/>
<path d="M348.761 44.6847C349.965 44.6847 350.941 43.7088 350.941 42.5049C350.941 41.3011 349.965 40.3252 348.761 40.3252C347.557 40.3252 346.581 41.3011 346.581 42.5049C346.581 43.7088 347.557 44.6847 348.761 44.6847Z" fill="white"/>
<path d="M322.129 121.843H165.019C164.247 121.842 163.508 121.535 162.963 120.99C162.417 120.445 162.11 119.705 162.109 118.934V79.9674C162.11 79.1961 162.417 78.4567 162.963 77.9114C163.508 77.366 164.247 77.0593 165.019 77.0583H322.129C322.9 77.0593 323.64 77.366 324.185 77.9114C324.73 78.4567 325.037 79.1961 325.038 79.9674V118.934C325.037 119.705 324.73 120.445 324.185 120.99C323.64 121.535 322.9 121.842 322.129 121.843ZM165.019 78.222C164.556 78.2225 164.112 78.4065 163.785 78.7338C163.458 79.061 163.274 79.5046 163.273 79.9674V118.934C163.274 119.397 163.458 119.84 163.785 120.168C164.112 120.495 164.556 120.679 165.019 120.679H322.129C322.592 120.679 323.035 120.495 323.363 120.168C323.69 119.84 323.874 119.397 323.874 118.934V79.9674C323.874 79.5046 323.69 79.0609 323.363 78.7337C323.035 78.4065 322.592 78.2225 322.129 78.222L165.019 78.222Z" fill="#E6E6E6"/>
<path d="M189.431 109.805C195.976 109.805 201.282 104.5 201.282 97.9555C201.282 91.4111 195.976 86.1057 189.431 86.1057C182.885 86.1057 177.579 91.4111 177.579 97.9555C177.579 104.5 182.885 109.805 189.431 109.805Z" fill="#E6E6E6"/>
<path d="M216.802 90.0557C216.542 90.0553 216.285 90.106 216.045 90.2051C215.805 90.3042 215.587 90.4496 215.403 90.633C215.219 90.8165 215.073 91.0343 214.974 91.2741C214.874 91.5139 214.823 91.771 214.823 92.0306C214.823 92.2903 214.874 92.5473 214.974 92.7871C215.073 93.027 215.219 93.2448 215.403 93.4283C215.587 93.6117 215.805 93.7571 216.045 93.8562C216.285 93.9552 216.542 94.006 216.802 94.0056H309.921C310.444 94.0056 310.947 93.7975 311.317 93.4271C311.688 93.0568 311.896 92.5544 311.896 92.0306C311.896 91.5068 311.688 91.0045 311.317 90.6341C310.947 90.2637 310.444 90.0557 309.921 90.0557H216.802Z" fill="#E6E6E6"/>
<path d="M216.801 101.906C216.278 101.906 215.775 102.114 215.405 102.484C215.034 102.854 214.826 103.357 214.826 103.88C214.826 104.404 215.034 104.907 215.405 105.277C215.775 105.647 216.278 105.855 216.801 105.855H256.871C257.395 105.855 257.897 105.647 258.267 105.277C258.638 104.907 258.846 104.404 258.846 103.88C258.846 103.357 258.638 102.854 258.267 102.484C257.897 102.114 257.395 101.906 256.871 101.906H216.801Z" fill="#E6E6E6"/>
<path d="M129.933 102.704L100.89 118.143L100.522 105.278C110.002 103.695 119.021 100.94 127.36 96.4556L130.397 88.9522C130.728 88.1346 131.266 87.4171 131.958 86.8702C132.65 86.3232 133.473 85.9656 134.345 85.8325C135.217 85.6993 136.109 85.7952 136.932 86.1107C137.756 86.4262 138.484 86.9505 139.044 87.6321C139.863 88.6293 140.273 89.9006 140.189 91.1884C140.106 92.4762 139.537 93.6843 138.596 94.5679L129.933 102.704Z" fill="#FFB8B8"/>
<path d="M58.9695 191.84C58.7577 191.063 58.7127 190.25 58.8375 189.454C58.9624 188.659 59.2543 187.899 59.694 187.224L66.0739 177.434C67.5829 175.119 69.8983 173.446 72.571 172.741C75.2436 172.036 78.0829 172.349 80.5379 173.619C77.8567 178.182 78.2304 182.185 81.464 185.664C76.4443 188.115 71.805 191.277 67.6897 195.053C66.9384 195.565 66.0756 195.891 65.1732 196.002C64.2708 196.113 63.3548 196.007 62.5017 195.693C61.6485 195.378 60.8829 194.865 60.2685 194.194C59.6541 193.524 59.2087 192.717 58.9695 191.84Z" fill="#2F2E41"/>
<path d="M131.256 179.04C130.291 180.649 128.928 181.982 127.299 182.913C125.669 183.843 123.828 184.34 121.952 184.354L79.5676 184.675L77.7295 174.015L96.4788 168.501L80.6705 156.371L97.9493 136.154L129.333 165.401C131.167 167.11 132.359 169.397 132.709 171.88C133.059 174.362 132.546 176.89 131.256 179.04Z" fill="#2F2E41"/>
<path d="M72.9504 251.942H63.0243C54.1121 190.861 45.0404 129.61 71.8475 106.748L103.464 111.894L99.42 138.727L81.7736 158.944L72.9504 251.942Z" fill="#2F2E41"/>
<path d="M81.6752 265.779C80.8982 265.991 80.0851 266.036 79.2894 265.911C78.4937 265.786 77.7334 265.494 77.0586 265.055L66.2809 263.606C63.965 262.097 62.2921 259.782 61.5868 257.11C60.8816 254.438 61.1942 251.599 62.4641 249.144C67.0283 251.825 71.0321 251.451 74.5114 248.218C76.9698 253.181 81.0203 252.878 84.8887 257.06C85.4009 257.811 85.7262 258.673 85.8375 259.576C85.9487 260.478 85.8427 261.394 85.5283 262.247C85.2139 263.1 84.7002 263.865 84.03 264.48C83.3598 265.094 82.5524 265.539 81.6752 265.779Z" fill="#2F2E41"/>
<path d="M96.4783 65.9465L78.0967 61.5356C81.1496 55.2874 81.401 48.3351 79.9348 40.9511L92.4343 40.5835C92.826 49.7657 94.0109 58.3442 96.4783 65.9465Z" fill="#FFB8B8"/>
<path d="M101.531 122.961C88.1494 132.078 78.6946 123.273 71.4796 109.688C72.4822 101.376 70.8588 91.4276 67.8522 80.6183C66.5151 75.8507 67.0143 70.7551 69.2513 66.3375C71.4882 61.9199 75.3004 58.5014 79.9351 56.7568L95.7433 63.3733C109.166 74.313 111.808 86.1629 106.772 98.661L101.531 122.961Z" fill="#6C63FF"/>
<path d="M63.0243 75.136L48.3189 82.8551L74.4209 98.2935L78.0528 107.251C78.2952 107.849 78.4133 108.49 78.3999 109.135C78.3864 109.78 78.2418 110.415 77.9747 111.002C77.7076 111.59 77.3237 112.116 76.8464 112.551C76.369 112.985 75.8083 113.317 75.1983 113.527C74.505 113.766 73.7656 113.842 73.0383 113.747C72.3109 113.653 71.6153 113.392 71.0059 112.984C70.3964 112.576 69.8897 112.032 69.5254 111.396C69.1611 110.759 68.9491 110.047 68.9061 109.315L68.5388 103.072L35.3635 92.1258C34.2458 91.757 33.2266 91.1387 32.3832 90.3177C31.5398 89.4968 30.8944 88.4947 30.4957 87.3874C29.9145 85.7733 29.8849 84.0122 30.4116 82.3795C30.9382 80.7468 31.9913 79.3348 33.406 78.3643L60.0832 60.0652L63.0243 75.136Z" fill="#FFB8B8"/>
<path d="M77.7291 76.6063C71.5961 73.919 66.0192 76.8382 58.9798 79.1794L57.877 59.6976C64.8667 55.9727 71.5309 54.9684 77.7291 57.8598L77.7291 76.6063Z" fill="#6C63FF"/>
<path d="M85.066 50.2335C91.5476 50.2335 96.802 44.9798 96.802 38.4992C96.802 32.0185 91.5476 26.7649 85.066 26.7649C78.5845 26.7649 73.3301 32.0185 73.3301 38.4992C73.3301 44.9798 78.5845 50.2335 85.066 50.2335Z" fill="#FFB8B8"/>
<path d="M99.106 37.0185C87.4864 38.1564 78.6323 36.2563 72.9736 30.8462V26.4893H98.1199L99.106 37.0185Z" fill="#2F2E41"/>
</g>
<defs>
<clipPath id="clip0_2399_28272">
<rect width="391" height="272" fill="white"/>
</clipPath>
</defs>
</svg>
