<svg width="379" height="326" viewBox="0 0 379 326" fill="none" xmlns="http://www.w3.org/2000/svg">
<g clip-path="url(#clip0_2386_28031)">
<path d="M157.652 283.214L161.792 269.75C156.811 264.275 150.568 260.097 143.604 257.579C150.407 268.837 143.814 283.524 146.562 296.384C147.449 300.389 149.228 304.143 151.766 307.367C154.303 310.592 157.535 313.205 161.221 315.013L167.503 322.787C170.796 317.04 172.802 310.649 173.384 304.053C173.966 297.458 173.11 290.815 170.874 284.582C169.584 281.097 167.861 277.789 165.744 274.735C162.011 279.118 157.652 283.214 157.652 283.214Z" fill="#F2F2F2"/>
<path d="M134.891 284.935L132.584 271.039C125.681 268.358 118.228 267.399 110.87 268.248C121.987 275.293 122.644 291.375 130.846 301.662C133.428 304.851 136.696 307.419 140.407 309.175C144.119 310.931 148.178 311.83 152.284 311.806L161.378 315.966C161.759 309.355 160.702 302.741 158.277 296.579C155.853 290.416 152.12 284.852 147.335 280.269C144.626 277.725 141.606 275.531 138.347 273.74C136.963 279.326 134.891 284.935 134.891 284.935Z" fill="#F2F2F2"/>
<path d="M270.372 319.331L263.995 319.33L260.962 294.767L270.373 294.768L270.372 319.331Z" fill="#FFB6B6"/>
<path d="M271.998 325.504L251.438 325.503V325.244C251.439 323.124 252.282 321.091 253.782 319.592C255.283 318.094 257.318 317.251 259.441 317.251H259.441L263.197 314.406L270.203 317.252L271.998 317.252L271.998 325.504Z" fill="#2F2E41"/>
<path d="M373.37 296.103L369.022 300.761L348.963 286.23L355.379 279.354L373.37 296.103Z" fill="#FFB6B6"/>
<path d="M379 299.123L364.982 314.144L364.792 313.967C363.24 312.522 362.326 310.52 362.251 308.401C362.176 306.283 362.947 304.222 364.394 302.671L364.871 297.987L371.733 294.808L372.956 293.497L379 299.123Z" fill="#2F2E41"/>
<path d="M363.935 282.298L357.196 296.376L315.811 269.009L309.791 260.816L290.05 233.952L282.026 246.669L276.442 259.963C274.623 261.149 273.089 262.723 271.953 264.572C270.817 266.422 270.106 268.5 269.872 270.657L269.616 273.011L273.144 304.69L259.734 308.802L252.032 266.246L254.55 257.025L257.142 244.08L270.192 203.176H305.115L325.145 245.759L326.609 254.436L332.289 260.946L363.935 282.298Z" fill="#2F2E41"/>
<path d="M291.36 136.252L297.239 140.723L304.328 142.899C304.328 142.899 307.259 184.077 309.9 186.715C312.541 189.353 310.159 189.424 310.69 192.85C311.221 196.277 312.511 203.301 312.511 203.301C294.684 212.726 279.315 212.979 266.971 201.95C266.813 201.268 266.893 200.552 267.198 199.922C267.503 199.291 268.015 198.784 268.648 198.484C270.946 197.266 266.53 191.583 268.408 190.633C270.286 189.682 267.645 181.439 267.645 181.439L269.377 164.241L268.008 161.492L271.349 144.67L277.144 142.556L279.46 136.985L291.36 136.252Z" fill="#3F3D56"/>
<path d="M295.042 209.439C295.016 208.696 295.153 207.955 295.444 207.27C295.735 206.585 296.173 205.973 296.727 205.475C297.281 204.977 297.938 204.607 298.65 204.39C299.363 204.173 300.115 204.115 300.852 204.22L309.137 188.136L313.753 196.327L305.178 210.345C304.92 211.571 304.22 212.66 303.212 213.405C302.204 214.15 300.957 214.5 299.707 214.389C298.458 214.277 297.293 213.712 296.433 212.799C295.573 211.887 295.079 210.692 295.042 209.439Z" fill="#FFB6B6"/>
<path d="M308.996 205.505L326.766 177.997L326.707 177.87C326.64 177.725 322.616 169.045 318.717 161.094C318.117 159.87 317.519 158.663 316.939 157.507C316.689 157.008 316.443 156.519 316.2 156.041C314.562 152.817 313.132 150.152 312.278 148.885C310.388 146.023 307.576 143.892 304.307 142.846L304.225 142.825L304.146 142.858C302.547 143.532 301.226 144.73 300.4 146.254C299.574 147.779 299.293 149.539 299.603 151.245C301.145 159.471 304.579 167.227 309.636 173.9L312.517 177.693L302.506 199.432L308.996 205.505Z" fill="#3F3D56"/>
<path d="M247.888 100.062C248.378 100.623 248.738 101.284 248.943 101.999C249.149 102.715 249.195 103.466 249.079 104.201C248.962 104.936 248.686 105.636 248.269 106.253C247.852 106.87 247.304 107.388 246.665 107.77L250.37 125.476L241.62 122.016L239.443 105.733C238.871 104.618 238.728 103.332 239.041 102.119C239.355 100.906 240.103 99.8498 241.144 99.1507C242.185 98.4517 243.446 98.1583 244.689 98.3262C245.932 98.4941 247.071 99.1115 247.888 100.062Z" fill="#FFB6B6"/>
<path d="M239.529 111.893L243.068 144.439L243.193 144.5C243.296 144.551 247.779 146.747 253.282 149.363C254.21 149.804 254.077 151.715 255.048 152.172C255.716 152.487 257.481 151.345 258.156 151.66C264.171 154.47 270.253 157.201 272.677 157.941C275.949 158.977 279.477 158.864 282.676 157.62L282.753 157.585L282.794 157.51C283.611 155.981 283.882 154.219 283.562 152.515C283.243 150.812 282.351 149.268 281.035 148.138C274.651 142.717 267.093 138.852 258.958 136.848L254.329 135.714L248.4 112.53L239.529 111.893Z" fill="#3F3D56"/>
<path d="M285.091 134.408C291.514 134.408 296.72 129.208 296.72 122.794C296.72 116.38 291.514 111.18 285.091 111.18C278.669 111.18 273.463 116.38 273.463 122.794C273.463 129.208 278.669 134.408 285.091 134.408Z" fill="#FFB6B6"/>
<path d="M273.546 115.012C274.502 112.233 279.263 110.306 286.98 110.038C294.698 109.77 296.655 118.853 296.655 118.853C301.807 123.027 291.154 134.203 290.638 133.8L290.87 131.701C291.254 128.223 292.884 125.509 290.811 121.885L288.82 121.908C286.248 122.401 283.676 122.895 281.105 123.389L284.149 120.712L284.063 120.579C282.768 121.253 281.359 121.68 279.907 121.84C278.271 121.936 276.482 121.285 275.698 119.847C275.489 119.452 275.361 119.019 275.322 118.573C273.116 119.454 272.106 122.171 272.106 122.171C272.106 122.171 272.59 117.79 273.546 115.012Z" fill="#2F2E41"/>
<path d="M46.8505 115.708C46.6928 115.508 46.5229 115.318 46.3418 115.139C46.386 115.079 46.4303 115.012 46.4745 114.952L46.8505 115.708Z" fill="#2F2E41"/>
<path d="M49.1119 162.42C47.2098 165.794 43.4109 167.678 39.6453 168.6C35.4157 169.706 30.9617 169.62 26.778 168.351C26.2472 168.18 25.7164 167.981 25.2021 167.76C25.4493 167.105 25.6453 166.431 25.7883 165.745C25.9807 164.816 26.0771 163.871 26.0758 162.923C25.6568 163.739 25.114 164.486 24.4667 165.137C23.9673 165.661 23.4001 166.116 22.7802 166.49C20.8572 165.325 19.1921 163.78 17.8865 161.951C17.9694 161.746 18.0524 161.542 18.1298 161.337C18.5314 160.27 18.8493 159.173 19.0809 158.057C19.3951 156.547 19.5526 155.009 19.5509 153.468C18.8691 154.796 17.9849 156.011 16.9299 157.068C16.6136 157.406 16.2775 157.725 15.9235 158.024C15.3753 156.361 15.1634 154.606 15.3001 152.86C15.4367 151.115 15.9193 149.414 16.7198 147.856C18.9095 143.814 23.1562 141.411 26.9384 138.799C30.7261 136.187 34.5139 132.652 34.8346 128.063C35.0503 124.964 33.6126 121.861 34.1876 118.812C34.4295 117.526 35.02 116.332 35.8947 115.358C36.7694 114.385 37.8949 113.67 39.1484 113.291C40.402 112.912 41.7356 112.884 43.0039 113.21C44.2723 113.536 45.4268 114.203 46.3416 115.139C44.1961 118.177 42.0617 121.319 41.1936 124.931C40.3089 128.609 41.0333 132.923 43.9363 135.358C44.9316 136.198 46.1536 136.794 46.9223 137.844C47.9452 139.235 47.9507 141.091 48.1166 142.803C48.4484 146.133 49.5377 149.336 50.1239 152.634C50.7155 155.925 50.7487 159.498 49.1119 162.42Z" fill="#2F2E41"/>
<path d="M10.1191 299.376L15.1659 303.271L32.6074 285.682L25.1588 279.934L10.1191 299.376Z" fill="#A0616A"/>
<path d="M10.3336 295.571L18.679 301.252L16.038 304.666L19.575 315.751C19.7498 316.298 19.7447 316.887 19.5606 317.432C19.3766 317.976 19.0231 318.447 18.5517 318.777C18.0804 319.106 17.516 319.277 16.9408 319.263C16.3657 319.25 15.8099 319.053 15.3547 318.702L5.85715 311.372L6.83247 306.732L3.58093 309.615L0 306.852L10.3336 295.571Z" fill="#2F2E41"/>
<path d="M35.7227 125.52C35.7219 127.49 36.2052 129.429 37.1301 131.168C38.0551 132.907 39.3933 134.393 41.0274 135.495C42.6615 136.598 44.5415 137.282 46.5024 137.489C48.4632 137.696 50.445 137.419 52.2736 136.683C54.1023 135.946 55.722 134.773 56.9906 133.265C58.2591 131.757 59.1377 129.962 59.5492 128.036C59.9607 126.11 59.8926 124.112 59.3507 122.219C58.8089 120.325 57.81 118.593 56.4416 117.175L56.3838 117.118C56.2874 117.017 56.191 116.916 56.0898 116.819L56.088 116.819L56.0864 116.818L56.0854 116.816L56.085 116.814C55.9598 116.699 55.8345 116.583 55.7044 116.473C53.5843 114.615 50.6045 112.599 47.5642 112.599C40.91 112.599 35.7227 118.874 35.7227 125.52Z" fill="#2F2E41"/>
<path d="M104.383 119.342C104.44 119.983 104.356 120.63 104.137 121.236C103.917 121.841 103.567 122.392 103.112 122.848C102.656 123.304 102.106 123.655 101.5 123.876C100.894 124.097 100.247 124.182 99.6044 124.126L69.7757 151.025L64.6426 142.928L95.5773 119.033C95.743 117.961 96.2967 116.987 97.1335 116.295C97.9702 115.604 99.0319 115.243 100.117 115.281C101.203 115.319 102.236 115.753 103.022 116.502C103.809 117.25 104.293 118.261 104.383 119.342Z" fill="#A0616A"/>
<path d="M57.0275 159.144C57.0275 159.144 58.1373 161.192 61.9284 158.031C64.9634 155.5 79.5041 144.513 82.6366 140.01C83.3519 140.294 84.1412 140.331 84.8801 140.117C85.6189 139.902 86.2654 139.449 86.7177 138.827L78.1347 131.319C75.5667 131.615 75.6217 133.338 75.8892 134.316L69.4149 137.246L52.6963 147.917L56.1989 157.679L57.0275 159.144Z" fill="#6C63FF"/>
<path d="M40.8309 178.006L40.2057 180.98L39.6748 191.948L63.0469 193.231L62.3212 176.361L60.0557 172.644L40.8309 178.006Z" fill="#A0616A"/>
<path d="M50.7358 138.393C56.3144 138.393 60.8368 133.876 60.8368 128.304C60.8368 122.732 56.3144 118.215 50.7358 118.215C45.1571 118.215 40.6348 122.732 40.6348 128.304C40.6348 133.876 45.1571 138.393 50.7358 138.393Z" fill="#A0616A"/>
<path d="M32.8033 165.515L32.7412 157.129C32.7398 154.112 33.7622 151.183 35.6415 148.82C37.5209 146.458 40.1464 144.801 43.0896 144.12L43.1278 144.111L45.1251 141.424L53.24 142.234L54.7273 145.27L60.6075 148.767L62.8714 156.036C63.8534 156.69 64.6903 157.538 65.3301 158.529C65.9699 159.519 66.399 160.63 66.5906 161.793C67.3592 166.697 63.9217 171.603 63.5128 172.166L62.4592 178.092L39.5401 182.131L39.354 182.155L32.8033 165.515Z" fill="#6C63FF"/>
<path d="M63.0964 126.505C61.9181 127.25 60.6957 127.924 59.4357 128.521C58.157 129.135 56.8194 129.617 55.4434 129.962C55.0497 129.1 54.568 128.28 54.0057 127.516C54.1504 128.421 54.1541 129.343 54.0168 130.25C51.7361 130.617 49.4001 130.426 47.2099 129.692L45.3077 126.505L45.164 130.062C43.588 130.349 42.0176 130.62 40.4417 130.901C40.3477 130.912 40.2537 130.934 40.1652 130.951C39.1865 126.544 40.5744 121.689 43.6599 118.751C45.1919 117.308 47.1029 116.328 49.1704 115.928C51.2379 115.527 53.3769 115.721 55.3384 116.487C55.5872 116.586 55.8415 116.697 56.0848 116.813L56.0852 116.815L56.0864 116.817L56.0882 116.818L56.0904 116.818C56.2341 116.89 56.3558 117.061 56.5162 117.045C63.417 116.277 63.6382 121.623 63.0964 126.505Z" fill="#2F2E41"/>
<path d="M46.293 286.368L51.3475 290.252L68.7537 272.628L61.2938 266.896L46.293 286.368Z" fill="#A0616A"/>
<path d="M46.9582 282.914L55.3151 288.578L52.681 291.997L56.2404 303.075C56.4163 303.622 56.4124 304.211 56.2294 304.756C56.0465 305.301 55.6939 305.773 55.2233 306.103C54.7526 306.434 54.1885 306.605 53.6133 306.593C53.0381 306.58 52.482 306.385 52.026 306.034L42.5137 298.724L43.4797 294.082L40.234 296.972L36.6475 294.215L46.9582 282.914Z" fill="#2F2E41"/>
<path d="M29.8914 264.858L29.8912 264.793L32.2867 260.67L29.8406 255.303L29.7672 241.514L30.1637 239.444C30.697 236.66 30.5419 233.788 29.7117 231.077L29.667 222.684C29.581 220.582 32.8423 218.732 32.0818 216.98C24.8933 200.411 39.4223 187.772 39.5204 187.67L39.8173 187.362L41.4282 188.581L42.9615 188.583L63.6523 192.348L63.8017 192.626C64.6155 194.151 66.1861 199.406 66.2792 201.784C67.3104 202.976 79.0566 216.552 80.1007 217.495C87.1568 223.871 91.1966 234.425 92.9767 240.149C93.4187 241.564 93.5079 243.065 93.2362 244.521C92.9646 245.978 92.3405 247.347 91.4182 248.507L64.7061 277.73L57.5177 271.103L71.9714 244.797L70.9291 242.128C69.059 241.784 67.3666 240.802 66.1406 239.35L63.2139 235.88C62.4035 234.922 61.8886 233.75 61.7314 232.506L59.9565 232.292L53.5988 225.625L49.1879 265.521L47.9887 268.673L27.1051 293.194L18.2578 287.671L29.8914 264.858Z" fill="#2F2E41"/>
<path d="M26.7014 93.5502C26.3002 94.0547 26.0146 94.6409 25.8648 95.2676C25.7149 95.8942 25.7045 96.5461 25.8341 97.1772C25.9638 97.8083 26.2304 98.4033 26.6153 98.9204C27.0001 99.4375 27.4937 99.864 28.0615 100.17L21.4209 119.805L26.8433 140.613L35.5869 136.665L30.1914 120.97L34.2281 98.1249C34.6794 97.1383 34.7527 96.0206 34.434 94.9836C34.1154 93.9467 33.427 93.0625 32.4992 92.4986C31.5714 91.9347 30.4688 91.7303 29.4003 91.9241C28.3317 92.1179 27.3714 92.6965 26.7014 93.5502Z" fill="#A0616A"/>
<path d="M34.7048 157.758C34.7048 157.758 32.6512 158.859 31.2229 154.137C30.0795 150.357 22.2982 129.833 22.158 124.352C21.4046 124.196 20.7247 123.794 20.2252 123.209C19.7258 122.625 19.4353 121.891 19.3994 121.123L30.7009 119.561C32.6841 121.217 31.6901 122.627 30.9285 123.297L34.7777 129.809L42.8231 147.39L36.2034 156.988L34.7048 157.758Z" fill="#6C63FF"/>
<path d="M40.4395 130.9C41.6 127.405 43.6811 124.285 46.4644 121.87C49.2476 119.454 52.6305 117.831 56.2581 117.17C56.2726 117.166 56.3208 117.146 56.3834 117.118C56.422 117.093 56.4702 117.069 56.5183 117.045C56.3738 116.964 56.2341 116.891 56.0895 116.819L56.0876 116.819L56.0861 116.818L56.085 116.816L56.0847 116.814C55.9594 116.699 55.8341 116.583 55.704 116.473L55.3378 116.487C55.3378 116.487 42.468 114.451 40.4395 130.9Z" fill="#FD6584"/>
<path d="M206.507 243.323C207.911 241.214 207.08 238.196 204.65 236.581C202.22 234.966 199.111 235.366 197.706 237.475C196.302 239.584 197.133 242.602 199.563 244.217C201.993 245.832 205.102 245.431 206.507 243.323Z" fill="#F2F2F2"/>
<path d="M177.994 164.621C179.399 162.512 178.567 159.493 176.137 157.879C173.707 156.264 170.598 156.664 169.194 158.773C167.789 160.881 168.62 163.9 171.051 165.515C173.481 167.13 176.589 166.729 177.994 164.621Z" fill="#F2F2F2"/>
<path d="M297.229 285.78C298.634 283.672 297.803 280.653 295.372 279.039C292.942 277.424 289.834 277.824 288.429 279.933C287.024 282.041 287.856 285.06 290.286 286.675C292.716 288.289 295.825 287.889 297.229 285.78Z" fill="#F2F2F2"/>
<path d="M56.1669 32.5871C57.5715 30.4785 56.7401 27.46 54.31 25.8452C51.8798 24.2304 48.7711 24.6307 47.3665 26.7394C45.9619 28.848 46.7933 31.8664 49.2234 33.4813C51.6536 35.0961 54.7623 34.6958 56.1669 32.5871Z" fill="#F2F2F2"/>
<path d="M168.663 7.73382C170.068 5.62519 169.236 2.60675 166.806 0.991936C164.376 -0.622877 161.267 -0.222566 159.863 1.88607C158.458 3.9947 159.289 7.01317 161.72 8.62798C164.15 10.2428 167.258 9.84245 168.663 7.73382Z" fill="#F2F2F2"/>
<path d="M115.422 216.25C116.826 214.142 115.995 211.123 113.565 209.509C111.135 207.894 108.026 208.294 106.621 210.403C105.217 212.511 106.048 215.53 108.478 217.145C110.908 218.759 114.017 218.359 115.422 216.25Z" fill="#E6E6E6"/>
<path d="M347.476 326H10.3547C10.1913 326 10.0348 325.934 9.91942 325.819C9.80404 325.703 9.73926 325.547 9.73926 325.384C9.73926 325.22 9.80404 325.064 9.91942 324.948C10.0348 324.833 10.1913 324.768 10.3547 324.767H347.476C347.639 324.767 347.796 324.832 347.912 324.948C348.028 325.063 348.093 325.22 348.093 325.384C348.093 325.547 348.028 325.704 347.912 325.82C347.796 325.935 347.639 326 347.476 326Z" fill="#CCCCCC"/>
<path d="M73.1011 121.244C70.2653 121.236 67.532 120.184 65.4237 118.29C63.3153 116.395 61.9799 113.792 61.6727 110.976L55.0913 49.9265C54.7679 46.8954 55.6616 43.8599 57.5763 41.4861C59.4909 39.1122 62.2702 37.5939 65.3044 37.2642L260.722 16.2487C263.757 15.9256 266.797 16.8181 269.173 18.7304C271.55 20.6427 273.071 23.4186 273.401 26.449L279.982 87.4982C280.306 90.5295 279.412 93.5651 277.497 95.939C275.582 98.3129 272.803 99.8313 269.769 100.161L74.3508 121.177C73.9357 121.221 73.5185 121.244 73.1011 121.244Z" fill="#E6E6E6"/>
<path d="M258.569 19.0828C258.202 19.0829 257.835 19.1027 257.47 19.1419L69.0978 39.3997C67.7806 39.5414 66.5043 39.9408 65.3417 40.5751C64.1791 41.2094 63.1529 42.0662 62.3219 43.0966C61.4908 44.1269 60.871 45.3107 60.498 46.5803C60.125 47.8499 60.006 49.1805 60.1478 50.4961L63.4755 81.3632C64.0134 86.3533 65.5301 91.1887 67.939 95.5933C70.3479 99.9979 73.6019 103.886 77.5151 107.034C81.4283 110.183 85.9242 112.531 90.7459 113.944C95.5676 115.357 100.621 115.808 105.617 115.271L238.074 101.026C243.055 100.49 247.882 98.98 252.278 96.5813C256.675 94.1826 260.555 90.9425 263.698 87.046C266.841 83.1495 269.185 78.6728 270.596 73.8716C272.006 69.0704 272.456 64.0388 271.92 59.0639L268.58 28.0809C268.314 25.613 267.145 23.3301 265.298 21.6696C263.45 20.0092 261.054 19.0881 258.569 19.0828Z" fill="white"/>
<path d="M218.901 51.2066L113.617 62.529C113.316 62.5618 113.012 62.535 112.721 62.4501C112.43 62.3652 112.159 62.224 111.923 62.0344C111.687 61.8448 111.491 61.6106 111.346 61.3452C111.201 61.0798 111.109 60.7885 111.077 60.4878C111.044 60.187 111.072 59.8829 111.157 59.5927C111.242 59.3025 111.384 59.032 111.574 58.7966C111.764 58.5612 111.999 58.3655 112.265 58.2208C112.531 58.0761 112.823 57.9851 113.124 57.9531L218.408 46.6307C218.709 46.598 219.013 46.6248 219.304 46.7096C219.595 46.7945 219.866 46.9358 220.102 47.1254C220.337 47.315 220.534 47.5491 220.679 47.8145C220.824 48.0799 220.916 48.3713 220.948 48.672C220.98 48.9727 220.953 49.2769 220.868 49.567C220.783 49.8572 220.641 50.1278 220.451 50.3632C220.26 50.5986 220.026 50.7942 219.76 50.939C219.494 51.0837 219.202 51.1746 218.901 51.2066Z" fill="#6C63FF"/>
<path d="M220.415 65.2502L115.132 76.5726C114.524 76.638 113.916 76.4596 113.44 76.0767C112.964 75.6938 112.66 75.1379 112.594 74.5311C112.529 73.9243 112.707 73.3164 113.091 72.8411C113.474 72.3658 114.031 72.0621 114.638 71.9968L219.922 60.6744C220.53 60.609 221.138 60.7874 221.614 61.1703C222.09 61.5532 222.394 62.1092 222.46 62.716C222.525 63.3227 222.346 63.9306 221.963 64.4059C221.58 64.8812 221.023 65.1849 220.415 65.2502Z" fill="#6C63FF"/>
<path d="M128.915 89.2964L116.645 90.6159C116.038 90.6813 115.429 90.5029 114.953 90.12C114.477 89.7371 114.173 89.1811 114.108 88.5743C114.043 87.9675 114.221 87.3596 114.605 86.8844C114.988 86.4091 115.545 86.1054 116.152 86.04L128.421 84.7206C128.722 84.6878 129.027 84.7146 129.318 84.7995C129.608 84.8844 129.879 85.0256 130.115 85.2152C130.351 85.4048 130.547 85.639 130.693 85.9044C130.838 86.1697 130.929 86.4611 130.962 86.7618C130.994 87.0625 130.967 87.3667 130.882 87.6569C130.796 87.9471 130.654 88.2176 130.464 88.453C130.274 88.6884 130.039 88.8841 129.774 89.0288C129.508 89.1735 129.216 89.2645 128.915 89.2964Z" fill="#6C63FF"/>
<path d="M68.9579 52.5025C71.2483 52.5025 73.1052 50.6479 73.1052 48.3602C73.1052 46.0726 71.2483 44.218 68.9579 44.218C66.6674 44.218 64.8105 46.0726 64.8105 48.3602C64.8105 50.6479 66.6674 52.5025 68.9579 52.5025Z" fill="#3F3D56"/>
<path d="M254.551 31.7913C256.841 31.7913 258.698 29.9367 258.698 27.6491C258.698 25.3614 256.841 23.5068 254.551 23.5068C252.26 23.5068 250.403 25.3614 250.403 27.6491C250.403 29.9367 252.26 31.7913 254.551 31.7913Z" fill="#3F3D56"/>
<path d="M198.48 116.829C198.099 116.495 197.797 116.08 197.597 115.615C197.396 115.15 197.302 114.646 197.321 114.139C197.529 108.123 196.537 102.125 194.402 96.4952C194.221 96.0219 194.148 95.5143 194.188 95.0092C194.228 94.5042 194.381 94.0144 194.634 93.5755C194.877 93.1536 195.209 92.79 195.607 92.51C196.006 92.2301 196.461 92.0406 196.94 91.9549C201.761 89.0496 206.702 88.2339 211.631 89.5311C212.426 89.4142 213.236 89.5842 213.917 90.0104C214.597 90.4365 215.104 91.0911 215.344 91.8565C217.34 98.3266 218.45 105.037 218.644 111.804C218.663 112.616 218.387 113.407 217.869 114.033C217.35 114.658 216.623 115.075 215.821 115.208L201.236 117.615C200.747 117.697 200.246 117.669 199.77 117.533C199.293 117.397 198.852 117.157 198.48 116.829Z" fill="#6C63FF"/>
<path d="M199.776 99.2997L212.051 97.2742C212.152 97.2578 212.249 97.2216 212.336 97.1678C212.423 97.1141 212.498 97.0436 212.558 96.9607C212.617 96.8777 212.66 96.7838 212.683 96.6843C212.707 96.5849 212.71 96.4818 212.693 96.381C212.677 96.2802 212.64 96.1837 212.586 96.097C212.532 96.0103 212.462 95.9351 212.378 95.8757C212.295 95.8164 212.201 95.7739 212.101 95.7509C212.002 95.7279 211.899 95.7248 211.798 95.7416L199.522 97.7672C199.319 97.8012 199.138 97.9142 199.018 98.0816C198.898 98.2489 198.85 98.4568 198.883 98.6598C198.917 98.8627 199.03 99.044 199.197 99.164C199.364 99.284 199.572 99.3328 199.776 99.2997Z" fill="white"/>
<path d="M200.79 105.43L213.065 103.405C213.269 103.371 213.451 103.258 213.571 103.091C213.691 102.923 213.74 102.715 213.706 102.512C213.672 102.308 213.559 102.127 213.392 102.007C213.224 101.887 213.015 101.838 212.812 101.872L200.536 103.898C200.435 103.914 200.339 103.95 200.252 104.004C200.165 104.058 200.089 104.128 200.03 104.211C199.97 104.294 199.927 104.388 199.904 104.487C199.881 104.587 199.878 104.69 199.894 104.791C199.911 104.891 199.947 104.988 200.001 105.075C200.055 105.161 200.126 105.237 200.209 105.296C200.292 105.355 200.387 105.398 200.486 105.421C200.586 105.444 200.689 105.447 200.79 105.43Z" fill="white"/>
<path d="M201.804 111.56L214.079 109.535C214.283 109.501 214.465 109.388 214.585 109.221C214.705 109.053 214.753 108.845 214.72 108.642C214.686 108.439 214.573 108.257 214.405 108.137C214.238 108.017 214.029 107.969 213.826 108.002L201.55 110.028C201.45 110.044 201.353 110.081 201.266 110.134C201.18 110.188 201.104 110.259 201.045 110.342C200.985 110.424 200.943 110.518 200.92 110.618C200.897 110.717 200.893 110.82 200.91 110.92C200.926 111.021 200.963 111.118 201.017 111.204C201.071 111.291 201.141 111.366 201.224 111.425C201.307 111.485 201.401 111.527 201.501 111.55C201.6 111.573 201.703 111.577 201.804 111.56Z" fill="white"/>
</g>
<defs>
<clipPath id="clip0_2386_28031">
<rect width="379" height="326" fill="white"/>
</clipPath>
</defs>
</svg>
